<svg width="110" height="62" viewBox="0 0 110 62" fill="none" xmlns="http://www.w3.org/2000/svg">
<rect x="0.25" y="0.25" width="109.5" height="61.5" stroke="#404145" stroke-width="0.5"/>
<circle cx="100.5" cy="55.5" r="0.5" fill="#404145"/>
<circle cx="100.5" cy="47.5" r="0.5" fill="#404145"/>
<circle cx="100.5" cy="39.5" r="0.5" fill="#404145"/>
<circle cx="100.5" cy="31.5" r="0.5" fill="#404145"/>
<circle cx="100.5" cy="23.5" r="0.5" fill="#404145"/>
<circle cx="100.5" cy="15.5" r="0.5" fill="#404145"/>
<circle cx="100.5" cy="54.5" r="0.5" fill="#404145"/>
<circle cx="100.5" cy="46.5" r="0.5" fill="#404145"/>
<circle cx="100.5" cy="38.5" r="0.5" fill="#404145"/>
<circle cx="100.5" cy="30.5" r="0.5" fill="#404145"/>
<circle cx="100.5" cy="22.5" r="0.5" fill="#404145"/>
<circle cx="100.5" cy="14.5" r="0.5" fill="#404145"/>
<circle cx="100.5" cy="52.5" r="0.5" fill="#404145"/>
<circle cx="100.5" cy="44.5" r="0.5" fill="#404145"/>
<circle cx="100.5" cy="36.5" r="0.5" fill="#404145"/>
<circle cx="100.5" cy="28.5" r="0.5" fill="#404145"/>
<circle cx="100.5" cy="20.5" r="0.5" fill="#404145"/>
<circle cx="100.5" cy="12.5" r="0.5" fill="#404145"/>
<circle cx="100.5" cy="60.5" r="0.5" fill="#404145"/>
<circle cx="100.5" cy="52.5" r="0.5" fill="#404145"/>
<circle cx="100.5" cy="44.5" r="0.5" fill="#404145"/>
<circle cx="100.5" cy="36.5" r="0.5" fill="#404145"/>
<circle cx="100.5" cy="28.5" r="0.5" fill="#404145"/>
<circle cx="100.5" cy="20.5" r="0.5" fill="#404145"/>
<circle cx="100.5" cy="12.5" r="0.5" fill="#404145"/>
<circle cx="100.5" cy="9.5" r="0.5" fill="#404145"/>
<circle cx="99.5" cy="9.5" r="0.5" fill="#404145"/>
<circle cx="98.5" cy="9.5" r="0.5" fill="#404145"/>
<circle cx="97.5" cy="9.5" r="0.5" fill="#404145"/>
<circle cx="96.5" cy="9.5" r="0.5" fill="#404145"/>
<circle cx="95.5" cy="9.5" r="0.5" fill="#404145"/>
<circle cx="94.5" cy="9.5" r="0.5" fill="#404145"/>
<circle cx="93.5" cy="9.5" r="0.5" fill="#404145"/>
<circle cx="92.5" cy="9.5" r="0.5" fill="#404145"/>
<circle cx="91.5" cy="9.5" r="0.5" fill="#404145"/>
<circle cx="90.5" cy="9.5" r="0.5" fill="#404145"/>
<circle cx="89.5" cy="9.5" r="0.5" fill="#404145"/>
<circle cx="88.5" cy="9.5" r="0.5" fill="#404145"/>
<circle cx="87.5" cy="9.5" r="0.5" fill="#404145"/>
<circle cx="86.5" cy="9.5" r="0.5" fill="#404145"/>
<circle cx="85.5" cy="9.5" r="0.5" fill="#404145"/>
<circle cx="84.5" cy="9.5" r="0.5" fill="#404145"/>
<circle cx="83.5" cy="9.5" r="0.5" fill="#404145"/>
<circle cx="82.5" cy="9.5" r="0.5" fill="#404145"/>
<circle cx="81.5" cy="9.5" r="0.5" fill="#404145"/>
<circle cx="80.5" cy="9.5" r="0.5" fill="#404145"/>
<circle cx="79.5" cy="9.5" r="0.5" fill="#404145"/>
<circle cx="78.5" cy="9.5" r="0.5" fill="#404145"/>
<circle cx="77.5" cy="9.5" r="0.5" fill="#404145"/>
<circle cx="76.5" cy="9.5" r="0.5" fill="#404145"/>
<circle cx="75.5" cy="9.5" r="0.5" fill="#404145"/>
<circle cx="74.5" cy="9.5" r="0.5" fill="#404145"/>
<circle cx="73.5" cy="9.5" r="0.5" fill="#404145"/>
<circle cx="72.5" cy="9.5" r="0.5" fill="#404145"/>
<circle cx="71.5" cy="9.5" r="0.5" fill="#404145"/>
<circle cx="70.5" cy="9.5" r="0.5" fill="#404145"/>
<circle cx="69.5" cy="9.5" r="0.5" fill="#404145"/>
<circle cx="68.5" cy="9.5" r="0.5" fill="#404145"/>
<circle cx="67.5" cy="9.5" r="0.5" fill="#404145"/>
<circle cx="66.5" cy="9.5" r="0.5" fill="#404145"/>
<circle cx="65.5" cy="9.5" r="0.5" fill="#404145"/>
<circle cx="64.5" cy="9.5" r="0.5" fill="#404145"/>
<circle cx="63.5" cy="9.5" r="0.5" fill="#404145"/>
<circle cx="62.5" cy="9.5" r="0.5" fill="#404145"/>
<circle cx="61.5" cy="9.5" r="0.5" fill="#404145"/>
<circle cx="60.5" cy="9.5" r="0.5" fill="#404145"/>
<circle cx="59.5" cy="9.5" r="0.5" fill="#404145"/>
<circle cx="58.5" cy="9.5" r="0.5" fill="#404145"/>
<circle cx="57.5" cy="9.5" r="0.5" fill="#404145"/>
<circle cx="56.5" cy="9.5" r="0.5" fill="#404145"/>
<circle cx="55.5" cy="9.5" r="0.5" fill="#404145"/>
<circle cx="54.5" cy="9.5" r="0.5" fill="#404145"/>
<circle cx="53.5" cy="9.5" r="0.5" fill="#404145"/>
<circle cx="52.5" cy="9.5" r="0.5" fill="#404145"/>
<circle cx="51.5" cy="9.5" r="0.5" fill="#404145"/>
<circle cx="50.5" cy="9.5" r="0.5" fill="#404145"/>
<circle cx="49.5" cy="9.5" r="0.5" fill="#404145"/>
<circle cx="48.5" cy="9.5" r="0.5" fill="#404145"/>
<circle cx="47.5" cy="9.5" r="0.5" fill="#404145"/>
<circle cx="46.5" cy="9.5" r="0.5" fill="#404145"/>
<circle cx="45.5" cy="9.5" r="0.5" fill="#404145"/>
<circle cx="44.5" cy="9.5" r="0.5" fill="#404145"/>
<circle cx="43.5" cy="9.5" r="0.5" fill="#404145"/>
<circle cx="42.5" cy="9.5" r="0.5" fill="#404145"/>
<circle cx="41.5" cy="9.5" r="0.5" fill="#404145"/>
<circle cx="40.5" cy="9.5" r="0.5" fill="#404145"/>
<circle cx="39.5" cy="9.5" r="0.5" fill="#404145"/>
<circle cx="38.5" cy="9.5" r="0.5" fill="#404145"/>
<circle cx="37.5" cy="9.5" r="0.5" fill="#404145"/>
<circle cx="36.5" cy="9.5" r="0.5" fill="#404145"/>
<circle cx="35.5" cy="9.5" r="0.5" fill="#404145"/>
<circle cx="34.5" cy="9.5" r="0.5" fill="#404145"/>
<circle cx="33.5" cy="9.5" r="0.5" fill="#404145"/>
<circle cx="32.5" cy="9.5" r="0.5" fill="#404145"/>
<circle cx="31.5" cy="9.5" r="0.5" fill="#404145"/>
<circle cx="30.5" cy="9.5" r="0.5" fill="#404145"/>
<circle cx="29.5" cy="9.5" r="0.5" fill="#404145"/>
<circle cx="28.5" cy="9.5" r="0.5" fill="#404145"/>
<circle cx="27.5" cy="9.5" r="0.5" fill="#404145"/>
<circle cx="26.5" cy="9.5" r="0.5" fill="#404145"/>
<circle cx="25.5" cy="9.5" r="0.5" fill="#404145"/>
<circle cx="24.5" cy="9.5" r="0.5" fill="#404145"/>
<circle cx="23.5" cy="9.5" r="0.5" fill="#404145"/>
<circle cx="22.5" cy="9.5" r="0.5" fill="#404145"/>
<circle cx="21.5" cy="9.5" r="0.5" fill="#404145"/>
<circle cx="20.5" cy="9.5" r="0.5" fill="#404145"/>
<circle cx="19.5" cy="9.5" r="0.5" fill="#404145"/>
<circle cx="18.5" cy="9.5" r="0.5" fill="#404145"/>
<circle cx="17.5" cy="9.5" r="0.5" fill="#404145"/>
<circle cx="16.5" cy="9.5" r="0.5" fill="#404145"/>
<circle cx="15.5" cy="9.5" r="0.5" fill="#404145"/>
<circle cx="14.5" cy="9.5" r="0.5" fill="#404145"/>
<circle cx="13.5" cy="9.5" r="0.5" fill="#404145"/>
<circle cx="12.5" cy="9.5" r="0.5" fill="#404145"/>
<circle cx="11.5" cy="9.5" r="0.5" fill="#404145"/>
<circle cx="10.5" cy="9.5" r="0.5" fill="#404145"/>
<circle cx="9.5" cy="9.5" r="0.5" fill="#404145"/>
<circle cx="9.5" cy="10.5" r="0.5" fill="#404145"/>
<circle cx="9.5" cy="11.5" r="0.5" fill="#404145"/>
<circle cx="9.5" cy="12.5" r="0.5" fill="#404145"/>
<circle cx="9.5" cy="13.5" r="0.5" fill="#404145"/>
<circle cx="9.5" cy="14.5" r="0.5" fill="#404145"/>
<circle cx="9.5" cy="15.5" r="0.5" fill="#404145"/>
<circle cx="9.5" cy="16.5" r="0.5" fill="#404145"/>
<circle cx="9.5" cy="17.5" r="0.5" fill="#404145"/>
<circle cx="9.5" cy="18.5" r="0.5" fill="#404145"/>
<circle cx="9.5" cy="19.5" r="0.5" fill="#404145"/>
<circle cx="9.5" cy="20.5" r="0.5" fill="#404145"/>
<circle cx="9.5" cy="21.5" r="0.5" fill="#404145"/>
<circle cx="9.5" cy="22.5" r="0.5" fill="#404145"/>
<circle cx="9.5" cy="23.5" r="0.5" fill="#404145"/>
<circle cx="9.5" cy="24.5" r="0.5" fill="#404145"/>
<circle cx="9.5" cy="25.5" r="0.5" fill="#404145"/>
<circle cx="9.5" cy="26.5" r="0.5" fill="#404145"/>
<circle cx="9.5" cy="27.5" r="0.5" fill="#404145"/>
<circle cx="9.5" cy="28.5" r="0.5" fill="#404145"/>
<circle cx="9.5" cy="29.5" r="0.5" fill="#404145"/>
<circle cx="9.5" cy="30.5" r="0.5" fill="#404145"/>
<circle cx="9.5" cy="31.5" r="0.5" fill="#404145"/>
<circle cx="9.5" cy="32.5" r="0.5" fill="#404145"/>
<circle cx="9.5" cy="33.5" r="0.5" fill="#404145"/>
<circle cx="9.5" cy="34.5" r="0.5" fill="#404145"/>
<circle cx="9.5" cy="35.5" r="0.5" fill="#404145"/>
<circle cx="9.5" cy="36.5" r="0.5" fill="#404145"/>
<circle cx="9.5" cy="37.5" r="0.5" fill="#404145"/>
<circle cx="9.5" cy="38.5" r="0.5" fill="#404145"/>
<circle cx="9.5" cy="39.5" r="0.5" fill="#404145"/>
<circle cx="9.5" cy="40.5" r="0.5" fill="#404145"/>
<circle cx="9.5" cy="41.5" r="0.5" fill="#404145"/>
<circle cx="9.5" cy="42.5" r="0.5" fill="#404145"/>
<circle cx="9.5" cy="43.5" r="0.5" fill="#404145"/>
<circle cx="9.5" cy="44.5" r="0.5" fill="#404145"/>
<circle cx="9.5" cy="45.5" r="0.5" fill="#404145"/>
<circle cx="9.5" cy="46.5" r="0.5" fill="#404145"/>
<circle cx="9.5" cy="47.5" r="0.5" fill="#404145"/>
<circle cx="9.5" cy="48.5" r="0.5" fill="#404145"/>
<circle cx="9.5" cy="49.5" r="0.5" fill="#404145"/>
<circle cx="9.5" cy="50.5" r="0.5" fill="#404145"/>
<circle cx="9.5" cy="51.5" r="0.5" fill="#404145"/>
<circle cx="9.5" cy="52.5" r="0.5" fill="#404145"/>
<circle cx="9.5" cy="53.5" r="0.5" fill="#404145"/>
<circle cx="9.5" cy="54.5" r="0.5" fill="#404145"/>
<circle cx="9.5" cy="55.5" r="0.5" fill="#404145"/>
<circle cx="9.5" cy="56.5" r="0.5" fill="#404145"/>
<circle cx="9.5" cy="57.5" r="0.5" fill="#404145"/>
<circle cx="9.5" cy="58.5" r="0.5" fill="#404145"/>
<circle cx="9.5" cy="59.5" r="0.5" fill="#404145"/>
<circle cx="9.5" cy="60.5" r="0.5" fill="#404145"/>
<circle cx="100.5" cy="59.5" r="0.5" fill="#404145"/>
<circle cx="100.5" cy="51.5" r="0.5" fill="#404145"/>
<circle cx="100.5" cy="43.5" r="0.5" fill="#404145"/>
<circle cx="100.5" cy="35.5" r="0.5" fill="#404145"/>
<circle cx="100.5" cy="27.5" r="0.5" fill="#404145"/>
<circle cx="100.5" cy="19.5" r="0.5" fill="#404145"/>
<circle cx="100.5" cy="11.5" r="0.5" fill="#404145"/>
<circle cx="100.5" cy="58.5" r="0.5" fill="#404145"/>
<circle cx="100.5" cy="50.5" r="0.5" fill="#404145"/>
<circle cx="100.5" cy="42.5" r="0.5" fill="#404145"/>
<circle cx="100.5" cy="34.5" r="0.5" fill="#404145"/>
<circle cx="100.5" cy="26.5" r="0.5" fill="#404145"/>
<circle cx="100.5" cy="18.5" r="0.5" fill="#404145"/>
<circle cx="100.5" cy="10.5" r="0.5" fill="#404145"/>
<circle cx="100.5" cy="57.5" r="0.5" fill="#404145"/>
<circle cx="100.5" cy="49.5" r="0.5" fill="#404145"/>
<circle cx="100.5" cy="41.5" r="0.5" fill="#404145"/>
<circle cx="100.5" cy="33.5" r="0.5" fill="#404145"/>
<circle cx="100.5" cy="25.5" r="0.5" fill="#404145"/>
<circle cx="100.5" cy="17.5" r="0.5" fill="#404145"/>
<circle cx="100.5" cy="56.5" r="0.5" fill="#404145"/>
<circle cx="100.5" cy="48.5" r="0.5" fill="#404145"/>
<circle cx="100.5" cy="40.5" r="0.5" fill="#404145"/>
<circle cx="100.5" cy="32.5" r="0.5" fill="#404145"/>
<circle cx="100.5" cy="24.5" r="0.5" fill="#404145"/>
<circle cx="100.5" cy="16.5" r="0.5" fill="#404145"/>
<circle cx="100.5" cy="53.5" r="0.5" fill="#404145"/>
<circle cx="100.5" cy="45.5" r="0.5" fill="#404145"/>
<circle cx="100.5" cy="37.5" r="0.5" fill="#404145"/>
<circle cx="100.5" cy="29.5" r="0.5" fill="#404145"/>
<circle cx="100.5" cy="21.5" r="0.5" fill="#404145"/>
<circle cx="100.5" cy="13.5" r="0.5" fill="#404145"/>
</svg>
