<svg width="116" height="117" viewBox="0 0 116 117" fill="none" xmlns="http://www.w3.org/2000/svg">
<path d="M71 72L41 35.2L68.8261 2" stroke="#404145" stroke-width="6"/>
<path d="M13.2422 88.5469V93H11.7422V81.625H15.9375C17.1823 81.625 18.1562 81.9427 18.8594 82.5781C19.5677 83.2135 19.9219 84.0547 19.9219 85.1016C19.9219 86.2057 19.5755 87.0573 18.8828 87.6562C18.1953 88.25 17.2083 88.5469 15.9219 88.5469H13.2422ZM13.2422 87.3203H15.9375C16.7396 87.3203 17.3542 87.1328 17.7812 86.7578C18.2083 86.3776 18.4219 85.8307 18.4219 85.1172C18.4219 84.4401 18.2083 83.8984 17.7812 83.4922C17.3542 83.0859 16.7682 82.875 16.0234 82.8594H13.2422V87.3203ZM26.7344 93C26.651 92.8333 26.5833 92.5365 26.5312 92.1094C25.8594 92.8073 25.0573 93.1562 24.125 93.1562C23.2917 93.1562 22.6068 92.9219 22.0703 92.4531C21.5391 91.9792 21.2734 91.3802 21.2734 90.6562C21.2734 89.776 21.6068 89.0938 22.2734 88.6094C22.9453 88.1198 23.888 87.875 25.1016 87.875H26.5078V87.2109C26.5078 86.7057 26.3568 86.3047 26.0547 86.0078C25.7526 85.7057 25.3073 85.5547 24.7188 85.5547C24.2031 85.5547 23.7708 85.6849 23.4219 85.9453C23.0729 86.2057 22.8984 86.5208 22.8984 86.8906H21.4453C21.4453 86.4688 21.5938 86.0625 21.8906 85.6719C22.1927 85.276 22.599 84.9635 23.1094 84.7344C23.625 84.5052 24.1901 84.3906 24.8047 84.3906C25.7786 84.3906 26.5417 84.6354 27.0938 85.125C27.6458 85.6094 27.9323 86.2786 27.9531 87.1328V91.0234C27.9531 91.7995 28.0521 92.4167 28.25 92.875V93H26.7344ZM24.3359 91.8984C24.7891 91.8984 25.2188 91.7812 25.625 91.5469C26.0312 91.3125 26.3255 91.0078 26.5078 90.6328V88.8984H25.375C23.6042 88.8984 22.7188 89.4167 22.7188 90.4531C22.7188 90.9062 22.8698 91.2604 23.1719 91.5156C23.474 91.7708 23.862 91.8984 24.3359 91.8984ZM35.1406 90.7578C35.1406 90.3672 34.9922 90.0651 34.6953 89.8516C34.4036 89.6328 33.8906 89.4453 33.1562 89.2891C32.4271 89.1328 31.8464 88.9453 31.4141 88.7266C30.987 88.5078 30.6693 88.2474 30.4609 87.9453C30.2578 87.6432 30.1562 87.2839 30.1562 86.8672C30.1562 86.1745 30.4479 85.5885 31.0312 85.1094C31.6198 84.6302 32.3698 84.3906 33.2812 84.3906C34.2396 84.3906 35.0156 84.638 35.6094 85.1328C36.2083 85.6276 36.5078 86.2604 36.5078 87.0312H35.0547C35.0547 86.6354 34.8854 86.2943 34.5469 86.0078C34.2135 85.7214 33.7917 85.5781 33.2812 85.5781C32.7552 85.5781 32.3438 85.6927 32.0469 85.9219C31.75 86.151 31.6016 86.4505 31.6016 86.8203C31.6016 87.1693 31.7396 87.4323 32.0156 87.6094C32.2917 87.7865 32.7891 87.9557 33.5078 88.1172C34.2318 88.2786 34.8177 88.4714 35.2656 88.6953C35.7135 88.9193 36.0443 89.1901 36.2578 89.5078C36.4766 89.8203 36.5859 90.2031 36.5859 90.6562C36.5859 91.4115 36.2839 92.0182 35.6797 92.4766C35.0755 92.9297 34.2917 93.1562 33.3281 93.1562C32.651 93.1562 32.0521 93.0365 31.5312 92.7969C31.0104 92.5573 30.6016 92.224 30.3047 91.7969C30.013 91.3646 29.8672 90.8984 29.8672 90.3984H31.3125C31.3385 90.8828 31.5312 91.2682 31.8906 91.5547C32.2552 91.8359 32.7344 91.9766 33.3281 91.9766C33.875 91.9766 34.3125 91.8672 34.6406 91.6484C34.974 91.4245 35.1406 91.1276 35.1406 90.7578ZM38.0859 88.6953C38.0859 87.8672 38.2474 87.1224 38.5703 86.4609C38.8984 85.7995 39.3516 85.2891 39.9297 84.9297C40.513 84.5703 41.1771 84.3906 41.9219 84.3906C43.0729 84.3906 44.0026 84.7891 44.7109 85.5859C45.4245 86.3828 45.7812 87.4427 45.7812 88.7656V88.8672C45.7812 89.6901 45.6224 90.4297 45.3047 91.0859C44.9922 91.737 44.5417 92.2448 43.9531 92.6094C43.3698 92.974 42.6979 93.1562 41.9375 93.1562C40.7917 93.1562 39.862 92.7578 39.1484 91.9609C38.4401 91.1641 38.0859 90.1094 38.0859 88.7969V88.6953ZM39.5391 88.8672C39.5391 89.8047 39.7552 90.5573 40.1875 91.125C40.625 91.6927 41.2083 91.9766 41.9375 91.9766C42.6719 91.9766 43.2552 91.6901 43.6875 91.1172C44.1198 90.5391 44.3359 89.7318 44.3359 88.6953C44.3359 87.7682 44.1146 87.0182 43.6719 86.4453C43.2344 85.8672 42.651 85.5781 41.9219 85.5781C41.2083 85.5781 40.6328 85.862 40.1953 86.4297C39.7578 86.9974 39.5391 87.8099 39.5391 88.8672ZM56.7812 93C56.6979 92.8333 56.6302 92.5365 56.5781 92.1094C55.9062 92.8073 55.1042 93.1562 54.1719 93.1562C53.3385 93.1562 52.6536 92.9219 52.1172 92.4531C51.5859 91.9792 51.3203 91.3802 51.3203 90.6562C51.3203 89.776 51.6536 89.0938 52.3203 88.6094C52.9922 88.1198 53.9349 87.875 55.1484 87.875H56.5547V87.2109C56.5547 86.7057 56.4036 86.3047 56.1016 86.0078C55.7995 85.7057 55.3542 85.5547 54.7656 85.5547C54.25 85.5547 53.8177 85.6849 53.4688 85.9453C53.1198 86.2057 52.9453 86.5208 52.9453 86.8906H51.4922C51.4922 86.4688 51.6406 86.0625 51.9375 85.6719C52.2396 85.276 52.6458 84.9635 53.1562 84.7344C53.6719 84.5052 54.237 84.3906 54.8516 84.3906C55.8255 84.3906 56.5885 84.6354 57.1406 85.125C57.6927 85.6094 57.9792 86.2786 58 87.1328V91.0234C58 91.7995 58.099 92.4167 58.2969 92.875V93H56.7812ZM54.3828 91.8984C54.8359 91.8984 55.2656 91.7812 55.6719 91.5469C56.0781 91.3125 56.3724 91.0078 56.5547 90.6328V88.8984H55.4219C53.651 88.8984 52.7656 89.4167 52.7656 90.4531C52.7656 90.9062 52.9167 91.2604 53.2188 91.5156C53.5208 91.7708 53.9089 91.8984 54.3828 91.8984ZM61.6328 84.5469L61.6797 85.6094C62.3255 84.7969 63.1693 84.3906 64.2109 84.3906C65.9974 84.3906 66.8984 85.3984 66.9141 87.4141V93H65.4688V87.4062C65.4635 86.7969 65.3229 86.3464 65.0469 86.0547C64.776 85.763 64.3516 85.6172 63.7734 85.6172C63.3047 85.6172 62.8932 85.7422 62.5391 85.9922C62.1849 86.2422 61.9089 86.5703 61.7109 86.9766V93H60.2656V84.5469H61.6328ZM71.0547 82.5V84.5469H72.6328V85.6641H71.0547V90.9062C71.0547 91.2448 71.125 91.5 71.2656 91.6719C71.4062 91.8385 71.6458 91.9219 71.9844 91.9219C72.151 91.9219 72.3802 91.8906 72.6719 91.8281V93C72.2917 93.1042 71.9219 93.1562 71.5625 93.1562C70.9167 93.1562 70.4297 92.9609 70.1016 92.5703C69.7734 92.1797 69.6094 91.625 69.6094 90.9062V85.6641H68.0703V84.5469H69.6094V82.5H71.0547ZM77.8359 93.1562C76.6901 93.1562 75.7578 92.7812 75.0391 92.0312C74.3203 91.276 73.9609 90.2682 73.9609 89.0078V88.7422C73.9609 87.9036 74.1198 87.1562 74.4375 86.5C74.7604 85.8385 75.2083 85.3229 75.7812 84.9531C76.3594 84.5781 76.9844 84.3906 77.6562 84.3906C78.7552 84.3906 79.6094 84.7526 80.2188 85.4766C80.8281 86.2005 81.1328 87.237 81.1328 88.5859V89.1875H75.4062C75.4271 90.0208 75.6693 90.6953 76.1328 91.2109C76.6016 91.7214 77.1953 91.9766 77.9141 91.9766C78.4245 91.9766 78.8568 91.8724 79.2109 91.6641C79.5651 91.4557 79.875 91.1797 80.1406 90.8359L81.0234 91.5234C80.3151 92.612 79.2526 93.1562 77.8359 93.1562ZM77.6562 85.5781C77.0729 85.5781 76.5833 85.7917 76.1875 86.2188C75.7917 86.6406 75.5469 87.2344 75.4531 88H79.6875V87.8906C79.6458 87.1562 79.4479 86.5885 79.0938 86.1875C78.7396 85.7812 78.2604 85.5781 77.6562 85.5781ZM86.8984 85.8438C86.6797 85.8073 86.4427 85.7891 86.1875 85.7891C85.2396 85.7891 84.5964 86.1927 84.2578 87V93H82.8125V84.5469H84.2188L84.2422 85.5234C84.7161 84.7682 85.388 84.3906 86.2578 84.3906C86.5391 84.3906 86.7526 84.4271 86.8984 84.5V85.8438ZM89.8047 93H88.3594V84.5469H89.8047V93ZM88.2422 82.3047C88.2422 82.0703 88.3125 81.8724 88.4531 81.7109C88.599 81.5495 88.8125 81.4688 89.0938 81.4688C89.375 81.4688 89.5885 81.5495 89.7344 81.7109C89.8802 81.8724 89.9531 82.0703 89.9531 82.3047C89.9531 82.5391 89.8802 82.7344 89.7344 82.8906C89.5885 83.0469 89.375 83.125 89.0938 83.125C88.8125 83.125 88.599 83.0469 88.4531 82.8906C88.3125 82.7344 88.2422 82.5391 88.2422 82.3047ZM91.7422 88.6953C91.7422 87.8672 91.9036 87.1224 92.2266 86.4609C92.5547 85.7995 93.0078 85.2891 93.5859 84.9297C94.1693 84.5703 94.8333 84.3906 95.5781 84.3906C96.7292 84.3906 97.6589 84.7891 98.3672 85.5859C99.0807 86.3828 99.4375 87.4427 99.4375 88.7656V88.8672C99.4375 89.6901 99.2786 90.4297 98.9609 91.0859C98.6484 91.737 98.1979 92.2448 97.6094 92.6094C97.026 92.974 96.3542 93.1562 95.5938 93.1562C94.4479 93.1562 93.5182 92.7578 92.8047 91.9609C92.0964 91.1641 91.7422 90.1094 91.7422 88.7969V88.6953ZM93.1953 88.8672C93.1953 89.8047 93.4115 90.5573 93.8438 91.125C94.2812 91.6927 94.8646 91.9766 95.5938 91.9766C96.3281 91.9766 96.9115 91.6901 97.3438 91.1172C97.776 90.5391 97.9922 89.7318 97.9922 88.6953C97.9922 87.7682 97.7708 87.0182 97.3281 86.4453C96.8906 85.8672 96.3073 85.5781 95.5781 85.5781C94.8646 85.5781 94.2891 85.862 93.8516 86.4297C93.4141 86.9974 93.1953 87.8099 93.1953 88.8672ZM105.336 85.8438C105.117 85.8073 104.88 85.7891 104.625 85.7891C103.677 85.7891 103.034 86.1927 102.695 87V93H101.25V84.5469H102.656L102.68 85.5234C103.154 84.7682 103.826 84.3906 104.695 84.3906C104.977 84.3906 105.19 84.4271 105.336 84.5V85.8438Z" fill="black"/>
</svg>
