<svg width="116" height="117" viewBox="0 0 116 117" fill="none" xmlns="http://www.w3.org/2000/svg">
<path d="M52 2L79.3885 35.5965C80.9041 37.4557 80.8859 40.1292 79.3451 41.9676L54.1739 72" stroke="#404145" stroke-width="6"/>
<path d="M9.58594 87.9297C8.29948 87.5599 7.36198 87.1068 6.77344 86.5703C6.1901 86.0286 5.89844 85.362 5.89844 84.5703C5.89844 83.6745 6.25521 82.9349 6.96875 82.3516C7.6875 81.763 8.61979 81.4688 9.76562 81.4688C10.5469 81.4688 11.2422 81.6198 11.8516 81.9219C12.4661 82.224 12.9401 82.6406 13.2734 83.1719C13.612 83.7031 13.7812 84.2839 13.7812 84.9141H12.2734C12.2734 84.2266 12.0547 83.6875 11.6172 83.2969C11.1797 82.901 10.5625 82.7031 9.76562 82.7031C9.02604 82.7031 8.44792 82.8672 8.03125 83.1953C7.61979 83.5182 7.41406 83.9688 7.41406 84.5469C7.41406 85.0104 7.60938 85.4036 8 85.7266C8.39583 86.0443 9.0651 86.3359 10.0078 86.6016C10.9557 86.8672 11.6953 87.1615 12.2266 87.4844C12.763 87.8021 13.1589 88.1745 13.4141 88.6016C13.6745 89.0286 13.8047 89.5312 13.8047 90.1094C13.8047 91.0312 13.4453 91.7708 12.7266 92.3281C12.0078 92.8802 11.0469 93.1562 9.84375 93.1562C9.0625 93.1562 8.33333 93.0078 7.65625 92.7109C6.97917 92.4089 6.45573 91.9974 6.08594 91.4766C5.72135 90.9557 5.53906 90.3646 5.53906 89.7031H7.04688C7.04688 90.3906 7.29948 90.9349 7.80469 91.3359C8.3151 91.7318 8.99479 91.9297 9.84375 91.9297C10.6354 91.9297 11.2422 91.7682 11.6641 91.4453C12.0859 91.1224 12.2969 90.6823 12.2969 90.125C12.2969 89.5677 12.1016 89.138 11.7109 88.8359C11.3203 88.5286 10.612 88.2266 9.58594 87.9297ZM17.0781 93H15.6328V84.5469H17.0781V93ZM15.5156 82.3047C15.5156 82.0703 15.5859 81.8724 15.7266 81.7109C15.8724 81.5495 16.0859 81.4688 16.3672 81.4688C16.6484 81.4688 16.862 81.5495 17.0078 81.7109C17.1536 81.8724 17.2266 82.0703 17.2266 82.3047C17.2266 82.5391 17.1536 82.7344 17.0078 82.8906C16.862 83.0469 16.6484 83.125 16.3672 83.125C16.0859 83.125 15.8724 83.0469 15.7266 82.8906C15.5859 82.7344 15.5156 82.5391 15.5156 82.3047ZM19.0547 88.7031C19.0547 87.3854 19.3594 86.3385 19.9688 85.5625C20.5781 84.7812 21.3854 84.3906 22.3906 84.3906C23.4219 84.3906 24.2266 84.7552 24.8047 85.4844L24.875 84.5469H26.1953V92.7969C26.1953 93.8906 25.8698 94.7526 25.2188 95.3828C24.5729 96.013 23.7031 96.3281 22.6094 96.3281C22 96.3281 21.4036 96.1979 20.8203 95.9375C20.237 95.6771 19.7917 95.3203 19.4844 94.8672L20.2344 94C20.8542 94.7656 21.612 95.1484 22.5078 95.1484C23.2109 95.1484 23.7578 94.9505 24.1484 94.5547C24.5443 94.1589 24.7422 93.6016 24.7422 92.8828V92.1562C24.1641 92.8229 23.375 93.1562 22.375 93.1562C21.3854 93.1562 20.5833 92.7578 19.9688 91.9609C19.3594 91.1641 19.0547 90.0781 19.0547 88.7031ZM20.5078 88.8672C20.5078 89.8203 20.7031 90.5703 21.0938 91.1172C21.4844 91.6589 22.0312 91.9297 22.7344 91.9297C23.6458 91.9297 24.3151 91.5156 24.7422 90.6875V86.8281C24.2995 86.0208 23.6354 85.6172 22.75 85.6172C22.0469 85.6172 21.4974 85.8906 21.1016 86.4375C20.7057 86.9844 20.5078 87.7943 20.5078 88.8672ZM33.6016 92.1641C33.0391 92.8255 32.2135 93.1562 31.125 93.1562C30.224 93.1562 29.5365 92.8958 29.0625 92.375C28.5938 91.849 28.3568 91.0729 28.3516 90.0469V84.5469H29.7969V90.0078C29.7969 91.2891 30.3177 91.9297 31.3594 91.9297C32.4635 91.9297 33.1979 91.5182 33.5625 90.6953V84.5469H35.0078V93H33.6328L33.6016 92.1641ZM38.7812 93H37.3359V84.5469H38.7812V93ZM37.2188 82.3047C37.2188 82.0703 37.2891 81.8724 37.4297 81.7109C37.5755 81.5495 37.7891 81.4688 38.0703 81.4688C38.3516 81.4688 38.5651 81.5495 38.7109 81.7109C38.8568 81.8724 38.9297 82.0703 38.9297 82.3047C38.9297 82.5391 38.8568 82.7344 38.7109 82.8906C38.5651 83.0469 38.3516 83.125 38.0703 83.125C37.7891 83.125 37.5755 83.0469 37.4297 82.8906C37.2891 82.7344 37.2188 82.5391 37.2188 82.3047ZM44.6094 93.1562C43.4635 93.1562 42.5312 92.7812 41.8125 92.0312C41.0938 91.276 40.7344 90.2682 40.7344 89.0078V88.7422C40.7344 87.9036 40.8932 87.1562 41.2109 86.5C41.5339 85.8385 41.9818 85.3229 42.5547 84.9531C43.1328 84.5781 43.7578 84.3906 44.4297 84.3906C45.5286 84.3906 46.3828 84.7526 46.9922 85.4766C47.6016 86.2005 47.9062 87.237 47.9062 88.5859V89.1875H42.1797C42.2005 90.0208 42.4427 90.6953 42.9062 91.2109C43.375 91.7214 43.9688 91.9766 44.6875 91.9766C45.1979 91.9766 45.6302 91.8724 45.9844 91.6641C46.3385 91.4557 46.6484 91.1797 46.9141 90.8359L47.7969 91.5234C47.0885 92.612 46.026 93.1562 44.6094 93.1562ZM44.4297 85.5781C43.8464 85.5781 43.3568 85.7917 42.9609 86.2188C42.5651 86.6406 42.3203 87.2344 42.2266 88H46.4609V87.8906C46.4193 87.1562 46.2214 86.5885 45.8672 86.1875C45.513 85.7812 45.0339 85.5781 44.4297 85.5781ZM50.9531 84.5469L51 85.6094C51.6458 84.7969 52.4896 84.3906 53.5312 84.3906C55.3177 84.3906 56.2188 85.3984 56.2344 87.4141V93H54.7891V87.4062C54.7839 86.7969 54.6432 86.3464 54.3672 86.0547C54.0964 85.763 53.6719 85.6172 53.0938 85.6172C52.625 85.6172 52.2135 85.7422 51.8594 85.9922C51.5052 86.2422 51.2292 86.5703 51.0312 86.9766V93H49.5859V84.5469H50.9531ZM60.375 82.5V84.5469H61.9531V85.6641H60.375V90.9062C60.375 91.2448 60.4453 91.5 60.5859 91.6719C60.7266 91.8385 60.9661 91.9219 61.3047 91.9219C61.4714 91.9219 61.7005 91.8906 61.9922 91.8281V93C61.612 93.1042 61.2422 93.1562 60.8828 93.1562C60.237 93.1562 59.75 92.9609 59.4219 92.5703C59.0938 92.1797 58.9297 91.625 58.9297 90.9062V85.6641H57.3906V84.5469H58.9297V82.5H60.375ZM67.1562 93.1562C66.0104 93.1562 65.0781 92.7812 64.3594 92.0312C63.6406 91.276 63.2812 90.2682 63.2812 89.0078V88.7422C63.2812 87.9036 63.4401 87.1562 63.7578 86.5C64.0807 85.8385 64.5286 85.3229 65.1016 84.9531C65.6797 84.5781 66.3047 84.3906 66.9766 84.3906C68.0755 84.3906 68.9297 84.7526 69.5391 85.4766C70.1484 86.2005 70.4531 87.237 70.4531 88.5859V89.1875H64.7266C64.7474 90.0208 64.9896 90.6953 65.4531 91.2109C65.9219 91.7214 66.5156 91.9766 67.2344 91.9766C67.7448 91.9766 68.1771 91.8724 68.5312 91.6641C68.8854 91.4557 69.1953 91.1797 69.4609 90.8359L70.3438 91.5234C69.6354 92.612 68.5729 93.1562 67.1562 93.1562ZM66.9766 85.5781C66.3932 85.5781 65.9036 85.7917 65.5078 86.2188C65.112 86.6406 64.8672 87.2344 64.7734 88H69.0078V87.8906C68.9661 87.1562 68.7682 86.5885 68.4141 86.1875C68.0599 85.7812 67.5807 85.5781 66.9766 85.5781ZM77.8281 88.5469V93H76.3281V81.625H80.5234C81.7682 81.625 82.7422 81.9427 83.4453 82.5781C84.1536 83.2135 84.5078 84.0547 84.5078 85.1016C84.5078 86.2057 84.1615 87.0573 83.4688 87.6562C82.7812 88.25 81.7943 88.5469 80.5078 88.5469H77.8281ZM77.8281 87.3203H80.5234C81.3255 87.3203 81.9401 87.1328 82.3672 86.7578C82.7943 86.3776 83.0078 85.8307 83.0078 85.1172C83.0078 84.4401 82.7943 83.8984 82.3672 83.4922C81.9401 83.0859 81.3542 82.875 80.6094 82.8594H77.8281V87.3203ZM91.3203 93C91.237 92.8333 91.1693 92.5365 91.1172 92.1094C90.4453 92.8073 89.6432 93.1562 88.7109 93.1562C87.8776 93.1562 87.1927 92.9219 86.6562 92.4531C86.125 91.9792 85.8594 91.3802 85.8594 90.6562C85.8594 89.776 86.1927 89.0938 86.8594 88.6094C87.5312 88.1198 88.474 87.875 89.6875 87.875H91.0938V87.2109C91.0938 86.7057 90.9427 86.3047 90.6406 86.0078C90.3385 85.7057 89.8932 85.5547 89.3047 85.5547C88.7891 85.5547 88.3568 85.6849 88.0078 85.9453C87.6589 86.2057 87.4844 86.5208 87.4844 86.8906H86.0312C86.0312 86.4688 86.1797 86.0625 86.4766 85.6719C86.7786 85.276 87.1849 84.9635 87.6953 84.7344C88.2109 84.5052 88.776 84.3906 89.3906 84.3906C90.3646 84.3906 91.1276 84.6354 91.6797 85.125C92.2318 85.6094 92.5182 86.2786 92.5391 87.1328V91.0234C92.5391 91.7995 92.638 92.4167 92.8359 92.875V93H91.3203ZM88.9219 91.8984C89.375 91.8984 89.8047 91.7812 90.2109 91.5469C90.6172 91.3125 90.9115 91.0078 91.0938 90.6328V88.8984H89.9609C88.1901 88.8984 87.3047 89.4167 87.3047 90.4531C87.3047 90.9062 87.4557 91.2604 87.7578 91.5156C88.0599 91.7708 88.4479 91.8984 88.9219 91.8984ZM99.7266 90.7578C99.7266 90.3672 99.5781 90.0651 99.2812 89.8516C98.9896 89.6328 98.4766 89.4453 97.7422 89.2891C97.013 89.1328 96.4323 88.9453 96 88.7266C95.5729 88.5078 95.2552 88.2474 95.0469 87.9453C94.8438 87.6432 94.7422 87.2839 94.7422 86.8672C94.7422 86.1745 95.0339 85.5885 95.6172 85.1094C96.2057 84.6302 96.9557 84.3906 97.8672 84.3906C98.8255 84.3906 99.6016 84.638 100.195 85.1328C100.794 85.6276 101.094 86.2604 101.094 87.0312H99.6406C99.6406 86.6354 99.4714 86.2943 99.1328 86.0078C98.7995 85.7214 98.3776 85.5781 97.8672 85.5781C97.3411 85.5781 96.9297 85.6927 96.6328 85.9219C96.3359 86.151 96.1875 86.4505 96.1875 86.8203C96.1875 87.1693 96.3255 87.4323 96.6016 87.6094C96.8776 87.7865 97.375 87.9557 98.0938 88.1172C98.8177 88.2786 99.4036 88.4714 99.8516 88.6953C100.299 88.9193 100.63 89.1901 100.844 89.5078C101.062 89.8203 101.172 90.2031 101.172 90.6562C101.172 91.4115 100.87 92.0182 100.266 92.4766C99.6615 92.9297 98.8776 93.1562 97.9141 93.1562C97.237 93.1562 96.638 93.0365 96.1172 92.7969C95.5964 92.5573 95.1875 92.224 94.8906 91.7969C94.599 91.3646 94.4531 90.8984 94.4531 90.3984H95.8984C95.9245 90.8828 96.1172 91.2682 96.4766 91.5547C96.8411 91.8359 97.3203 91.9766 97.9141 91.9766C98.4609 91.9766 98.8984 91.8672 99.2266 91.6484C99.5599 91.4245 99.7266 91.1276 99.7266 90.7578ZM102.672 88.6953C102.672 87.8672 102.833 87.1224 103.156 86.4609C103.484 85.7995 103.938 85.2891 104.516 84.9297C105.099 84.5703 105.763 84.3906 106.508 84.3906C107.659 84.3906 108.589 84.7891 109.297 85.5859C110.01 86.3828 110.367 87.4427 110.367 88.7656V88.8672C110.367 89.6901 110.208 90.4297 109.891 91.0859C109.578 91.737 109.128 92.2448 108.539 92.6094C107.956 92.974 107.284 93.1562 106.523 93.1562C105.378 93.1562 104.448 92.7578 103.734 91.9609C103.026 91.1641 102.672 90.1094 102.672 88.7969V88.6953ZM104.125 88.8672C104.125 89.8047 104.341 90.5573 104.773 91.125C105.211 91.6927 105.794 91.9766 106.523 91.9766C107.258 91.9766 107.841 91.6901 108.273 91.1172C108.706 90.5391 108.922 89.7318 108.922 88.6953C108.922 87.7682 108.701 87.0182 108.258 86.4453C107.82 85.8672 107.237 85.5781 106.508 85.5781C105.794 85.5781 105.219 85.862 104.781 86.4297C104.344 86.9974 104.125 87.8099 104.125 88.8672Z" fill="black"/>
</svg>
