<svg width="98" height="58" viewBox="0 0 98 58" fill="none" xmlns="http://www.w3.org/2000/svg">
<path d="M1 57.0667V11.6872C10.5 11.6872 32.5 4.28836 32.5 4.28836C32.5 4.28836 48 -3.11046 67 4.28838C86 11.6872 97.5 11.6872 97.5 11.6872V57.0667H1Z" stroke="#404145" stroke-width="0.5"/>
<path d="M15.8676 24.0142H14.9433V24.77H16.017V25H14.662V22.8672H16.0023V23.0986H14.9433V23.7842H15.8676V24.0142ZM17.219 25H16.948V22.75H17.219V25ZM19.8531 23.415L19.8604 23.5908C19.9767 23.4541 20.1334 23.3857 20.3307 23.3857C20.5523 23.3857 20.7032 23.4707 20.7833 23.6406C20.836 23.5645 20.9044 23.5029 20.9884 23.4561C21.0733 23.4092 21.1734 23.3857 21.2887 23.3857C21.6363 23.3857 21.8131 23.5698 21.8189 23.938V25H21.5479V23.9541C21.5479 23.8408 21.5221 23.7563 21.4703 23.7007C21.4186 23.644 21.3316 23.6157 21.2096 23.6157C21.109 23.6157 21.0255 23.646 20.9591 23.7065C20.8927 23.7661 20.8541 23.8467 20.8434 23.9482V25H20.5709V23.9614C20.5709 23.731 20.4581 23.6157 20.2325 23.6157C20.0548 23.6157 19.9332 23.6914 19.8678 23.8428V25H19.5968V23.415H19.8531ZM22.7573 24.1929C22.7573 24.0376 22.7876 23.8979 22.8481 23.7739C22.9097 23.6499 22.9946 23.5542 23.103 23.4868C23.2124 23.4194 23.3369 23.3857 23.4766 23.3857C23.6924 23.3857 23.8667 23.4604 23.9995 23.6099C24.1333 23.7593 24.2002 23.958 24.2002 24.2061V24.2251C24.2002 24.3794 24.1704 24.5181 24.1108 24.6411C24.0522 24.7632 23.9678 24.8584 23.8574 24.9268C23.748 24.9951 23.6221 25.0293 23.4795 25.0293C23.2646 25.0293 23.0903 24.9546 22.9565 24.8052C22.8237 24.6558 22.7573 24.458 22.7573 24.2119V24.1929ZM23.0298 24.2251C23.0298 24.4009 23.0703 24.542 23.1514 24.6484C23.2334 24.7549 23.3428 24.8081 23.4795 24.8081C23.6172 24.8081 23.7266 24.7544 23.8076 24.647C23.8887 24.5386 23.9292 24.3872 23.9292 24.1929C23.9292 24.019 23.8877 23.8784 23.8047 23.771C23.7227 23.6626 23.6133 23.6084 23.4766 23.6084C23.3428 23.6084 23.2349 23.6616 23.1528 23.7681C23.0708 23.8745 23.0298 24.0269 23.0298 24.2251ZM25.0741 24.1943C25.0741 23.9512 25.1317 23.7559 25.247 23.6084C25.3622 23.46 25.5131 23.3857 25.6996 23.3857C25.8852 23.3857 26.0321 23.4492 26.1405 23.5762V22.75H26.4115V25H26.1625L26.1493 24.8301C26.0409 24.9629 25.89 25.0293 25.6967 25.0293C25.5131 25.0293 25.3632 24.9541 25.247 24.8037C25.1317 24.6533 25.0741 24.457 25.0741 24.2148V24.1943ZM25.3451 24.2251C25.3451 24.4048 25.3822 24.5454 25.4564 24.647C25.5307 24.7485 25.6332 24.7993 25.7641 24.7993C25.9359 24.7993 26.0614 24.7222 26.1405 24.5679V23.8398C26.0595 23.6904 25.935 23.6157 25.767 23.6157C25.6342 23.6157 25.5307 23.667 25.4564 23.7695C25.3822 23.8721 25.3451 24.0239 25.3451 24.2251ZM28.0911 25.0293C27.8763 25.0293 27.7015 24.959 27.5667 24.8184C27.4319 24.6768 27.3645 24.4878 27.3645 24.2515V24.2017C27.3645 24.0444 27.3943 23.9043 27.4539 23.7812C27.5145 23.6572 27.5984 23.5605 27.7059 23.4912C27.8143 23.4209 27.9314 23.3857 28.0574 23.3857C28.2635 23.3857 28.4236 23.4536 28.5379 23.5894C28.6521 23.7251 28.7093 23.9194 28.7093 24.1724V24.2852H27.6355C27.6395 24.4414 27.6849 24.5679 27.7718 24.6646C27.8597 24.7603 27.971 24.8081 28.1058 24.8081C28.2015 24.8081 28.2825 24.7886 28.3489 24.7495C28.4153 24.7104 28.4734 24.6587 28.5232 24.5942L28.6888 24.7231C28.556 24.9272 28.3567 25.0293 28.0911 25.0293ZM28.0574 23.6084C27.948 23.6084 27.8562 23.6484 27.782 23.7285C27.7078 23.8076 27.6619 23.9189 27.6443 24.0625H28.4383V24.042C28.4305 23.9043 28.3934 23.7979 28.327 23.7227C28.2605 23.6465 28.1707 23.6084 28.0574 23.6084ZM29.9187 25H29.6477V22.75H29.9187V25ZM30.8819 24.1929C30.8819 24.0376 30.9122 23.8979 30.9728 23.7739C31.0343 23.6499 31.1192 23.5542 31.2276 23.4868C31.337 23.4194 31.4615 23.3857 31.6012 23.3857C31.817 23.3857 31.9913 23.4604 32.1241 23.6099C32.2579 23.7593 32.3248 23.958 32.3248 24.2061V24.2251C32.3248 24.3794 32.295 24.5181 32.2354 24.6411C32.1769 24.7632 32.0924 24.8584 31.982 24.9268C31.8727 24.9951 31.7467 25.0293 31.6041 25.0293C31.3893 25.0293 31.2149 24.9546 31.0812 24.8052C30.9483 24.6558 30.8819 24.458 30.8819 24.2119V24.1929ZM31.1544 24.2251C31.1544 24.4009 31.1949 24.542 31.276 24.6484C31.358 24.7549 31.4674 24.8081 31.6041 24.8081C31.7418 24.8081 31.8512 24.7544 31.9322 24.647C32.0133 24.5386 32.0538 24.3872 32.0538 24.1929C32.0538 24.019 32.0123 23.8784 31.9293 23.771C31.8473 23.6626 31.7379 23.6084 31.6012 23.6084C31.4674 23.6084 31.3595 23.6616 31.2774 23.7681C31.1954 23.8745 31.1544 24.0269 31.1544 24.2251ZM35.5316 24.5796C35.5316 24.5063 35.5038 24.4497 35.4481 24.4097C35.3935 24.3687 35.2973 24.3335 35.1596 24.3042C35.0229 24.2749 34.914 24.2397 34.8329 24.1987C34.7528 24.1577 34.6933 24.1089 34.6542 24.0522C34.6161 23.9956 34.5971 23.9282 34.5971 23.8501C34.5971 23.7202 34.6518 23.6104 34.7611 23.5205C34.8715 23.4307 35.0121 23.3857 35.183 23.3857C35.3627 23.3857 35.5082 23.4321 35.6195 23.5249C35.7318 23.6177 35.788 23.7363 35.788 23.8809H35.5155C35.5155 23.8066 35.4838 23.7427 35.4203 23.689C35.3578 23.6353 35.2787 23.6084 35.183 23.6084C35.0844 23.6084 35.0072 23.6299 34.9516 23.6729C34.8959 23.7158 34.8681 23.772 34.8681 23.8413C34.8681 23.9067 34.8939 23.9561 34.9457 23.9893C34.9975 24.0225 35.0907 24.0542 35.2255 24.0845C35.3612 24.1147 35.4711 24.1509 35.5551 24.1929C35.6391 24.2349 35.7011 24.2856 35.7411 24.3452C35.7821 24.4038 35.8026 24.4756 35.8026 24.5605C35.8026 24.7021 35.746 24.8159 35.6327 24.9019C35.5194 24.9868 35.3725 25.0293 35.1918 25.0293C35.0648 25.0293 34.9525 25.0068 34.8549 24.9619C34.7572 24.917 34.6806 24.8545 34.6249 24.7744C34.5702 24.6934 34.5429 24.606 34.5429 24.5122H34.8139C34.8187 24.603 34.8549 24.6753 34.9223 24.729C34.9906 24.7817 35.0805 24.8081 35.1918 24.8081C35.2943 24.8081 35.3764 24.7876 35.4379 24.7466C35.5004 24.7046 35.5316 24.6489 35.5316 24.5796ZM37.4134 25.0293C37.1985 25.0293 37.0237 24.959 36.889 24.8184C36.7542 24.6768 36.6868 24.4878 36.6868 24.2515V24.2017C36.6868 24.0444 36.7166 23.9043 36.7762 23.7812C36.8367 23.6572 36.9207 23.5605 37.0281 23.4912C37.1365 23.4209 37.2537 23.3857 37.3797 23.3857C37.5857 23.3857 37.7459 23.4536 37.8602 23.5894C37.9744 23.7251 38.0315 23.9194 38.0315 24.1724V24.2852H36.9578C36.9617 24.4414 37.0071 24.5679 37.094 24.6646C37.1819 24.7603 37.2933 24.8081 37.428 24.8081C37.5237 24.8081 37.6048 24.7886 37.6712 24.7495C37.7376 24.7104 37.7957 24.6587 37.8455 24.5942L38.011 24.7231C37.8782 24.9272 37.679 25.0293 37.4134 25.0293ZM37.3797 23.6084C37.2703 23.6084 37.1785 23.6484 37.1043 23.7285C37.0301 23.8076 36.9842 23.9189 36.9666 24.0625H37.7605V24.042C37.7527 23.9043 37.7156 23.7979 37.6492 23.7227C37.5828 23.6465 37.493 23.6084 37.3797 23.6084ZM39.2409 25H38.9699V22.75H39.2409V25ZM40.9337 25.0293C40.7188 25.0293 40.544 24.959 40.4093 24.8184C40.2745 24.6768 40.2071 24.4878 40.2071 24.2515V24.2017C40.2071 24.0444 40.2369 23.9043 40.2965 23.7812C40.357 23.6572 40.441 23.5605 40.5484 23.4912C40.6568 23.4209 40.774 23.3857 40.9 23.3857C41.1061 23.3857 41.2662 23.4536 41.3805 23.5894C41.4947 23.7251 41.5519 23.9194 41.5519 24.1724V24.2852H40.4781C40.482 24.4414 40.5274 24.5679 40.6144 24.6646C40.7022 24.7603 40.8136 24.8081 40.9483 24.8081C41.044 24.8081 41.1251 24.7886 41.1915 24.7495C41.2579 24.7104 41.316 24.6587 41.3658 24.5942L41.5313 24.7231C41.3985 24.9272 41.1993 25.0293 40.9337 25.0293ZM40.9 23.6084C40.7906 23.6084 40.6988 23.6484 40.6246 23.7285C40.5504 23.8076 40.5045 23.9189 40.4869 24.0625H41.2809V24.042C41.273 23.9043 41.2359 23.7979 41.1695 23.7227C41.1031 23.6465 41.0133 23.6084 40.9 23.6084ZM43.1025 24.8081C43.1992 24.8081 43.2837 24.7788 43.356 24.7202C43.4282 24.6616 43.4683 24.5884 43.4761 24.5005H43.7324C43.7275 24.5913 43.6963 24.6777 43.6387 24.7598C43.5811 24.8418 43.5039 24.9072 43.4072 24.9561C43.3115 25.0049 43.21 25.0293 43.1025 25.0293C42.8867 25.0293 42.7148 24.9575 42.5869 24.814C42.46 24.6694 42.3965 24.4722 42.3965 24.2222V24.1768C42.3965 24.0225 42.4248 23.8853 42.4814 23.7651C42.5381 23.645 42.6191 23.5518 42.7246 23.4854C42.8311 23.4189 42.9565 23.3857 43.1011 23.3857C43.2788 23.3857 43.4263 23.439 43.5435 23.5454C43.6616 23.6519 43.7246 23.79 43.7324 23.96H43.4761C43.4683 23.8574 43.4292 23.7734 43.3589 23.708C43.2895 23.6416 43.2036 23.6084 43.1011 23.6084C42.9634 23.6084 42.8564 23.6582 42.7803 23.7578C42.7051 23.8564 42.6675 23.9995 42.6675 24.187V24.2383C42.6675 24.4209 42.7051 24.5615 42.7803 24.6602C42.8555 24.7588 42.9629 24.8081 43.1025 24.8081ZM45.2729 24.8081C45.3695 24.8081 45.454 24.7788 45.5263 24.7202C45.5985 24.6616 45.6386 24.5884 45.6464 24.5005H45.9027C45.8979 24.5913 45.8666 24.6777 45.809 24.7598C45.7514 24.8418 45.6742 24.9072 45.5775 24.9561C45.4818 25.0049 45.3803 25.0293 45.2729 25.0293C45.057 25.0293 44.8852 24.9575 44.7572 24.814C44.6303 24.6694 44.5668 24.4722 44.5668 24.2222V24.1768C44.5668 24.0225 44.5951 23.8853 44.6518 23.7651C44.7084 23.645 44.7895 23.5518 44.8949 23.4854C45.0014 23.4189 45.1269 23.3857 45.2714 23.3857C45.4491 23.3857 45.5966 23.439 45.7138 23.5454C45.8319 23.6519 45.8949 23.79 45.9027 23.96H45.6464C45.6386 23.8574 45.5995 23.7734 45.5292 23.708C45.4599 23.6416 45.3739 23.6084 45.2714 23.6084C45.1337 23.6084 45.0268 23.6582 44.9506 23.7578C44.8754 23.8564 44.8378 23.9995 44.8378 24.187V24.2383C44.8378 24.4209 44.8754 24.5615 44.9506 24.6602C45.0258 24.7588 45.1332 24.8081 45.2729 24.8081ZM47.1019 25H46.8309V23.415H47.1019V25ZM46.8089 22.9946C46.8089 22.9507 46.8221 22.9136 46.8484 22.8833C46.8758 22.853 46.9158 22.8379 46.9686 22.8379C47.0213 22.8379 47.0613 22.853 47.0887 22.8833C47.116 22.9136 47.1297 22.9507 47.1297 22.9946C47.1297 23.0386 47.116 23.0752 47.0887 23.1045C47.0613 23.1338 47.0213 23.1484 46.9686 23.1484C46.9158 23.1484 46.8758 23.1338 46.8484 23.1045C46.8221 23.0752 46.8089 23.0386 46.8089 22.9946ZM48.0651 24.1929C48.0651 24.0376 48.0954 23.8979 48.156 23.7739C48.2175 23.6499 48.3024 23.5542 48.4108 23.4868C48.5202 23.4194 48.6447 23.3857 48.7844 23.3857C49.0002 23.3857 49.1745 23.4604 49.3073 23.6099C49.4411 23.7593 49.508 23.958 49.508 24.2061V24.2251C49.508 24.3794 49.4782 24.5181 49.4187 24.6411C49.3601 24.7632 49.2756 24.8584 49.1652 24.9268C49.0559 24.9951 48.9299 25.0293 48.7873 25.0293C48.5725 25.0293 48.3981 24.9546 48.2644 24.8052C48.1315 24.6558 48.0651 24.458 48.0651 24.2119V24.1929ZM48.3376 24.2251C48.3376 24.4009 48.3781 24.542 48.4592 24.6484C48.5412 24.7549 48.6506 24.8081 48.7873 24.8081C48.925 24.8081 49.0344 24.7544 49.1154 24.647C49.1965 24.5386 49.237 24.3872 49.237 24.1929C49.237 24.019 49.1955 23.8784 49.1125 23.771C49.0305 23.6626 48.9211 23.6084 48.7844 23.6084C48.6506 23.6084 48.5427 23.6616 48.4606 23.7681C48.3786 23.8745 48.3376 24.0269 48.3376 24.2251ZM50.7042 23.415L50.713 23.6143C50.8341 23.4619 50.9923 23.3857 51.1876 23.3857C51.5226 23.3857 51.6915 23.5747 51.6944 23.9526V25H51.4234V23.9512C51.4225 23.8369 51.3961 23.7524 51.3443 23.6978C51.2936 23.6431 51.214 23.6157 51.1056 23.6157C51.0177 23.6157 50.9405 23.6392 50.8741 23.686C50.8077 23.7329 50.756 23.7944 50.7188 23.8706V25H50.4478V23.415H50.7042ZM53.6816 25C53.666 24.9688 53.6533 24.9131 53.6436 24.833C53.5176 24.9639 53.3672 25.0293 53.1924 25.0293C53.0361 25.0293 52.9077 24.9854 52.8071 24.8975C52.7075 24.8086 52.6577 24.6963 52.6577 24.5605C52.6577 24.3955 52.7202 24.2676 52.8452 24.1768C52.9712 24.085 53.1479 24.0391 53.3755 24.0391H53.6392V23.9146C53.6392 23.8198 53.6108 23.7446 53.5542 23.689C53.4976 23.6323 53.4141 23.604 53.3037 23.604C53.207 23.604 53.126 23.6284 53.0605 23.6772C52.9951 23.7261 52.9624 23.7852 52.9624 23.8545H52.6899C52.6899 23.7754 52.7178 23.6992 52.7734 23.626C52.8301 23.5518 52.9062 23.4932 53.002 23.4502C53.0986 23.4072 53.2046 23.3857 53.3198 23.3857C53.5024 23.3857 53.6455 23.4316 53.749 23.5234C53.8525 23.6143 53.9062 23.7397 53.9102 23.8999V24.6294C53.9102 24.7749 53.9287 24.8906 53.9658 24.9766V25H53.6816ZM53.2319 24.7935C53.3169 24.7935 53.3975 24.7715 53.4736 24.7275C53.5498 24.6836 53.605 24.6265 53.6392 24.5562V24.231H53.4268C53.0947 24.231 52.9287 24.3281 52.9287 24.5225C52.9287 24.6074 52.957 24.6738 53.0137 24.7217C53.0703 24.7695 53.1431 24.7935 53.2319 24.7935ZM54.869 24.1943C54.869 23.9512 54.9267 23.7559 55.0419 23.6084C55.1571 23.46 55.308 23.3857 55.4945 23.3857C55.6801 23.3857 55.827 23.4492 55.9354 23.5762V22.75H56.2064V25H55.9574L55.9442 24.8301C55.8358 24.9629 55.685 25.0293 55.4916 25.0293C55.308 25.0293 55.1581 24.9541 55.0419 24.8037C54.9267 24.6533 54.869 24.457 54.869 24.2148V24.1943ZM55.14 24.2251C55.14 24.4048 55.1771 24.5454 55.2514 24.647C55.3256 24.7485 55.4281 24.7993 55.559 24.7993C55.7309 24.7993 55.8563 24.7222 55.9354 24.5679V23.8398C55.8544 23.6904 55.7299 23.6157 55.5619 23.6157C55.4291 23.6157 55.3256 23.667 55.2514 23.7695C55.1771 23.8721 55.14 24.0239 55.14 24.2251ZM57.1565 24.1929C57.1565 24.0376 57.1868 23.8979 57.2474 23.7739C57.3089 23.6499 57.3938 23.5542 57.5022 23.4868C57.6116 23.4194 57.7361 23.3857 57.8758 23.3857C58.0916 23.3857 58.2659 23.4604 58.3987 23.6099C58.5325 23.7593 58.5994 23.958 58.5994 24.2061V24.2251C58.5994 24.3794 58.5696 24.5181 58.5101 24.6411C58.4515 24.7632 58.367 24.8584 58.2566 24.9268C58.1473 24.9951 58.0213 25.0293 57.8787 25.0293C57.6639 25.0293 57.4896 24.9546 57.3558 24.8052C57.2229 24.6558 57.1565 24.458 57.1565 24.2119V24.1929ZM57.429 24.2251C57.429 24.4009 57.4695 24.542 57.5506 24.6484C57.6326 24.7549 57.742 24.8081 57.8787 24.8081C58.0164 24.8081 58.1258 24.7544 58.2068 24.647C58.2879 24.5386 58.3284 24.3872 58.3284 24.1929C58.3284 24.019 58.2869 23.8784 58.2039 23.771C58.1219 23.6626 58.0125 23.6084 57.8758 23.6084C57.742 23.6084 57.6341 23.6616 57.5521 23.7681C57.47 23.8745 57.429 24.0269 57.429 24.2251ZM61.1397 23.415L61.1485 23.6143C61.2696 23.4619 61.4278 23.3857 61.6231 23.3857C61.9581 23.3857 62.127 23.5747 62.13 23.9526V25H61.859V23.9512C61.858 23.8369 61.8316 23.7524 61.7799 23.6978C61.7291 23.6431 61.6495 23.6157 61.5411 23.6157C61.4532 23.6157 61.3761 23.6392 61.3097 23.686C61.2433 23.7329 61.1915 23.7944 61.1544 23.8706V25H60.8834V23.415H61.1397ZM63.0669 24.1929C63.0669 24.0376 63.0972 23.8979 63.1577 23.7739C63.2192 23.6499 63.3042 23.5542 63.4126 23.4868C63.522 23.4194 63.6465 23.3857 63.7861 23.3857C64.002 23.3857 64.1763 23.4604 64.3091 23.6099C64.4429 23.7593 64.5098 23.958 64.5098 24.2061V24.2251C64.5098 24.3794 64.48 24.5181 64.4204 24.6411C64.3618 24.7632 64.2773 24.8584 64.167 24.9268C64.0576 24.9951 63.9316 25.0293 63.7891 25.0293C63.5742 25.0293 63.3999 24.9546 63.2661 24.8052C63.1333 24.6558 63.0669 24.458 63.0669 24.2119V24.1929ZM63.3394 24.2251C63.3394 24.4009 63.3799 24.542 63.4609 24.6484C63.543 24.7549 63.6523 24.8081 63.7891 24.8081C63.9268 24.8081 64.0361 24.7544 64.1172 24.647C64.1982 24.5386 64.2388 24.3872 64.2388 24.1929C64.2388 24.019 64.1973 23.8784 64.1143 23.771C64.0322 23.6626 63.9229 23.6084 63.7861 23.6084C63.6523 23.6084 63.5444 23.6616 63.4624 23.7681C63.3804 23.8745 63.3394 24.0269 63.3394 24.2251ZM67.4515 25.0293C67.2366 25.0293 67.0618 24.959 66.9271 24.8184C66.7923 24.6768 66.7249 24.4878 66.7249 24.2515V24.2017C66.7249 24.0444 66.7547 23.9043 66.8143 23.7812C66.8748 23.6572 66.9588 23.5605 67.0662 23.4912C67.1746 23.4209 67.2918 23.3857 67.4178 23.3857C67.6238 23.3857 67.784 23.4536 67.8982 23.5894C68.0125 23.7251 68.0696 23.9194 68.0696 24.1724V24.2852H66.9959C66.9998 24.4414 67.0452 24.5679 67.1321 24.6646C67.22 24.7603 67.3313 24.8081 67.4661 24.8081C67.5618 24.8081 67.6429 24.7886 67.7093 24.7495C67.7757 24.7104 67.8338 24.6587 67.8836 24.5942L68.0491 24.7231C67.9163 24.9272 67.7171 25.0293 67.4515 25.0293ZM67.4178 23.6084C67.3084 23.6084 67.2166 23.6484 67.1424 23.7285C67.0682 23.8076 67.0223 23.9189 67.0047 24.0625H67.7986V24.042C67.7908 23.9043 67.7537 23.7979 67.6873 23.7227C67.6209 23.6465 67.5311 23.6084 67.4178 23.6084ZM69.9074 24.5796C69.9074 24.5063 69.8796 24.4497 69.8239 24.4097C69.7692 24.3687 69.673 24.3335 69.5354 24.3042C69.3986 24.2749 69.2897 24.2397 69.2087 24.1987C69.1286 24.1577 69.069 24.1089 69.03 24.0522C68.9919 23.9956 68.9729 23.9282 68.9729 23.8501C68.9729 23.7202 69.0275 23.6104 69.1369 23.5205C69.2473 23.4307 69.3879 23.3857 69.5588 23.3857C69.7385 23.3857 69.884 23.4321 69.9953 23.5249C70.1076 23.6177 70.1638 23.7363 70.1638 23.8809H69.8913C69.8913 23.8066 69.8596 23.7427 69.7961 23.689C69.7336 23.6353 69.6545 23.6084 69.5588 23.6084C69.4602 23.6084 69.383 23.6299 69.3273 23.6729C69.2717 23.7158 69.2438 23.772 69.2438 23.8413C69.2438 23.9067 69.2697 23.9561 69.3215 23.9893C69.3732 24.0225 69.4665 24.0542 69.6013 24.0845C69.737 24.1147 69.8469 24.1509 69.9309 24.1929C70.0148 24.2349 70.0769 24.2856 70.1169 24.3452C70.1579 24.4038 70.1784 24.4756 70.1784 24.5605C70.1784 24.7021 70.1218 24.8159 70.0085 24.9019C69.8952 24.9868 69.7482 25.0293 69.5676 25.0293C69.4406 25.0293 69.3283 25.0068 69.2307 24.9619C69.133 24.917 69.0563 24.8545 69.0007 24.7744C68.946 24.6934 68.9187 24.606 68.9187 24.5122H69.1896C69.1945 24.603 69.2307 24.6753 69.298 24.729C69.3664 24.7817 69.4562 24.8081 69.5676 24.8081C69.6701 24.8081 69.7521 24.7876 69.8137 24.7466C69.8762 24.7046 69.9074 24.6489 69.9074 24.5796ZM72.9985 24.6323L73.3911 23.415H73.668L73.0996 25H72.8931L72.3188 23.415H72.5957L72.9985 24.6323ZM75.4838 25C75.4682 24.9688 75.4555 24.9131 75.4457 24.833C75.3197 24.9639 75.1693 25.0293 74.9945 25.0293C74.8383 25.0293 74.7099 24.9854 74.6093 24.8975C74.5097 24.8086 74.4599 24.6963 74.4599 24.5605C74.4599 24.3955 74.5224 24.2676 74.6474 24.1768C74.7733 24.085 74.9501 24.0391 75.1776 24.0391H75.4413V23.9146C75.4413 23.8198 75.413 23.7446 75.3563 23.689C75.2997 23.6323 75.2162 23.604 75.1059 23.604C75.0092 23.604 74.9281 23.6284 74.8627 23.6772C74.7973 23.7261 74.7645 23.7852 74.7645 23.8545H74.4921C74.4921 23.7754 74.5199 23.6992 74.5756 23.626C74.6322 23.5518 74.7084 23.4932 74.8041 23.4502C74.9008 23.4072 75.0067 23.3857 75.122 23.3857C75.3046 23.3857 75.4477 23.4316 75.5512 23.5234C75.6547 23.6143 75.7084 23.7397 75.7123 23.8999V24.6294C75.7123 24.7749 75.7309 24.8906 75.768 24.9766V25H75.4838ZM75.0341 24.7935C75.119 24.7935 75.1996 24.7715 75.2758 24.7275C75.352 24.6836 75.4071 24.6265 75.4413 24.5562V24.231H75.2289C74.8969 24.231 74.7309 24.3281 74.7309 24.5225C74.7309 24.6074 74.7592 24.6738 74.8158 24.7217C74.8725 24.7695 74.9452 24.7935 75.0341 24.7935ZM75.2846 22.75H75.6127L75.2201 23.1807H75.0019L75.2846 22.75ZM77.0315 25H76.7605V22.75H77.0315V25ZM78.361 25H78.09V23.415H78.361V25ZM78.0681 22.9946C78.0681 22.9507 78.0813 22.9136 78.1076 22.8833C78.135 22.853 78.175 22.8379 78.2277 22.8379C78.2805 22.8379 78.3205 22.853 78.3479 22.8833C78.3752 22.9136 78.3889 22.9507 78.3889 22.9946C78.3889 23.0386 78.3752 23.0752 78.3479 23.1045C78.3205 23.1338 78.2805 23.1484 78.2277 23.1484C78.175 23.1484 78.135 23.1338 78.1076 23.1045C78.0813 23.0752 78.0681 23.0386 78.0681 22.9946ZM79.3302 24.1943C79.3302 23.9512 79.3878 23.7559 79.503 23.6084C79.6183 23.46 79.7691 23.3857 79.9557 23.3857C80.1412 23.3857 80.2882 23.4492 80.3966 23.5762V22.75H80.6676V25H80.4186L80.4054 24.8301C80.297 24.9629 80.1461 25.0293 79.9527 25.0293C79.7691 25.0293 79.6192 24.9541 79.503 24.8037C79.3878 24.6533 79.3302 24.457 79.3302 24.2148V24.1943ZM79.6012 24.2251C79.6012 24.4048 79.6383 24.5454 79.7125 24.647C79.7867 24.7485 79.8893 24.7993 80.0201 24.7993C80.192 24.7993 80.3175 24.7222 80.3966 24.5679V23.8398C80.3155 23.6904 80.191 23.6157 80.023 23.6157C79.8902 23.6157 79.7867 23.667 79.7125 23.7695C79.6383 23.8721 79.6012 24.0239 79.6012 24.2251ZM81.6177 24.1929C81.6177 24.0376 81.6479 23.8979 81.7085 23.7739C81.77 23.6499 81.855 23.5542 81.9634 23.4868C82.0728 23.4194 82.1973 23.3857 82.3369 23.3857C82.5527 23.3857 82.7271 23.4604 82.8599 23.6099C82.9937 23.7593 83.0605 23.958 83.0605 24.2061V24.2251C83.0605 24.3794 83.0308 24.5181 82.9712 24.6411C82.9126 24.7632 82.8281 24.8584 82.7178 24.9268C82.6084 24.9951 82.4824 25.0293 82.3398 25.0293C82.125 25.0293 81.9507 24.9546 81.8169 24.8052C81.6841 24.6558 81.6177 24.458 81.6177 24.2119V24.1929ZM81.8901 24.2251C81.8901 24.4009 81.9307 24.542 82.0117 24.6484C82.0938 24.7549 82.2031 24.8081 82.3398 24.8081C82.4775 24.8081 82.5869 24.7544 82.668 24.647C82.749 24.5386 82.7896 24.3872 82.7896 24.1929C82.7896 24.019 82.748 23.8784 82.665 23.771C82.583 23.6626 82.4736 23.6084 82.3369 23.6084C82.2031 23.6084 82.0952 23.6616 82.0132 23.7681C81.9312 23.8745 81.8901 24.0269 81.8901 24.2251ZM86.0022 25.0293C85.7874 25.0293 85.6126 24.959 85.4778 24.8184C85.3431 24.6768 85.2757 24.4878 85.2757 24.2515V24.2017C85.2757 24.0444 85.3055 23.9043 85.365 23.7812C85.4256 23.6572 85.5096 23.5605 85.617 23.4912C85.7254 23.4209 85.8426 23.3857 85.9686 23.3857C86.1746 23.3857 86.3348 23.4536 86.449 23.5894C86.5633 23.7251 86.6204 23.9194 86.6204 24.1724V24.2852H85.5467C85.5506 24.4414 85.596 24.5679 85.6829 24.6646C85.7708 24.7603 85.8821 24.8081 86.0169 24.8081C86.1126 24.8081 86.1936 24.7886 86.2601 24.7495C86.3265 24.7104 86.3846 24.6587 86.4344 24.5942L86.5999 24.7231C86.4671 24.9272 86.2679 25.0293 86.0022 25.0293ZM85.9686 23.6084C85.8592 23.6084 85.7674 23.6484 85.6932 23.7285C85.6189 23.8076 85.573 23.9189 85.5555 24.0625H86.3494V24.042C86.3416 23.9043 86.3045 23.7979 86.2381 23.7227C86.1717 23.6465 86.0818 23.6084 85.9686 23.6084ZM87.7917 23.415L87.8005 23.6143C87.9216 23.4619 88.0798 23.3857 88.2751 23.3857C88.6101 23.3857 88.779 23.5747 88.7819 23.9526V25H88.5109V23.9512C88.51 23.8369 88.4836 23.7524 88.4318 23.6978C88.3811 23.6431 88.3015 23.6157 88.1931 23.6157C88.1052 23.6157 88.028 23.6392 87.9616 23.686C87.8952 23.7329 87.8435 23.7944 87.8064 23.8706V25H87.5354V23.415H87.7917ZM41.5311 29.0293C41.3162 29.0293 41.1414 28.959 41.0066 28.8184C40.8719 28.6768 40.8045 28.4878 40.8045 28.2515V28.2017C40.8045 28.0444 40.8343 27.9043 40.8938 27.7812C40.9544 27.6572 41.0384 27.5605 41.1458 27.4912C41.2542 27.4209 41.3714 27.3857 41.4974 27.3857C41.7034 27.3857 41.8636 27.4536 41.9778 27.5894C42.0921 27.7251 42.1492 27.9194 42.1492 28.1724V28.2852H41.0755C41.0794 28.4414 41.1248 28.5679 41.2117 28.6646C41.2996 28.7603 41.4109 28.8081 41.5457 28.8081C41.6414 28.8081 41.7225 28.7886 41.7889 28.7495C41.8553 28.7104 41.9134 28.6587 41.9632 28.5942L42.1287 28.7231C41.9959 28.9272 41.7967 29.0293 41.5311 29.0293ZM41.4974 27.6084C41.388 27.6084 41.2962 27.6484 41.222 27.7285C41.1478 27.8076 41.1019 27.9189 41.0843 28.0625H41.8782V28.042C41.8704 27.9043 41.8333 27.7979 41.7669 27.7227C41.7005 27.6465 41.6106 27.6084 41.4974 27.6084ZM43.987 28.5796C43.987 28.5063 43.9592 28.4497 43.9035 28.4097C43.8488 28.3687 43.7526 28.3335 43.6149 28.3042C43.4782 28.2749 43.3693 28.2397 43.2883 28.1987C43.2082 28.1577 43.1486 28.1089 43.1096 28.0522C43.0715 27.9956 43.0524 27.9282 43.0524 27.8501C43.0524 27.7202 43.1071 27.6104 43.2165 27.5205C43.3269 27.4307 43.4675 27.3857 43.6384 27.3857C43.8181 27.3857 43.9636 27.4321 44.0749 27.5249C44.1872 27.6177 44.2434 27.7363 44.2434 27.8809H43.9709C43.9709 27.8066 43.9392 27.7427 43.8757 27.689C43.8132 27.6353 43.7341 27.6084 43.6384 27.6084C43.5397 27.6084 43.4626 27.6299 43.4069 27.6729C43.3513 27.7158 43.3234 27.772 43.3234 27.8413C43.3234 27.9067 43.3493 27.9561 43.4011 27.9893C43.4528 28.0225 43.5461 28.0542 43.6809 28.0845C43.8166 28.1147 43.9265 28.1509 44.0105 28.1929C44.0944 28.2349 44.1564 28.2856 44.1965 28.3452C44.2375 28.4038 44.258 28.4756 44.258 28.5605C44.258 28.7021 44.2014 28.8159 44.0881 28.9019C43.9748 28.9868 43.8278 29.0293 43.6472 29.0293C43.5202 29.0293 43.4079 29.0068 43.3103 28.9619C43.2126 28.917 43.1359 28.8545 43.0803 28.7744C43.0256 28.6934 42.9982 28.606 42.9982 28.5122H43.2692C43.2741 28.603 43.3103 28.6753 43.3776 28.729C43.446 28.7817 43.5358 28.8081 43.6472 28.8081C43.7497 28.8081 43.8317 28.7876 43.8933 28.7466C43.9558 28.7046 43.987 28.6489 43.987 28.5796ZM45.5787 27.0312V27.415H45.8746V27.6245H45.5787V28.6074C45.5787 28.6709 45.5919 28.7188 45.6183 28.751C45.6446 28.7822 45.6896 28.7979 45.753 28.7979C45.7843 28.7979 45.8272 28.792 45.8819 28.7803V29C45.8106 29.0195 45.7413 29.0293 45.6739 29.0293C45.5528 29.0293 45.4615 28.9927 45.4 28.9194C45.3385 28.8462 45.3077 28.7422 45.3077 28.6074V27.6245H45.0191V27.415H45.3077V27.0312H45.5787ZM47.771 29C47.7554 28.9688 47.7427 28.9131 47.7329 28.833C47.6069 28.9639 47.4565 29.0293 47.2817 29.0293C47.1255 29.0293 46.9971 28.9854 46.8965 28.8975C46.7969 28.8086 46.7471 28.6963 46.7471 28.5605C46.7471 28.3955 46.8096 28.2676 46.9346 28.1768C47.0605 28.085 47.2373 28.0391 47.4648 28.0391H47.7285V27.9146C47.7285 27.8198 47.7002 27.7446 47.6436 27.689C47.5869 27.6323 47.5034 27.604 47.3931 27.604C47.2964 27.604 47.2153 27.6284 47.1499 27.6772C47.0845 27.7261 47.0518 27.7852 47.0518 27.8545H46.7793C46.7793 27.7754 46.8071 27.6992 46.8628 27.626C46.9194 27.5518 46.9956 27.4932 47.0913 27.4502C47.188 27.4072 47.2939 27.3857 47.4092 27.3857C47.5918 27.3857 47.7349 27.4316 47.8384 27.5234C47.9419 27.6143 47.9956 27.7397 47.9995 27.8999V28.6294C47.9995 28.7749 48.0181 28.8906 48.0552 28.9766V29H47.771ZM47.3213 28.7935C47.4062 28.7935 47.4868 28.7715 47.563 28.7275C47.6392 28.6836 47.6943 28.6265 47.7285 28.5562V28.231H47.5161C47.1841 28.231 47.0181 28.3281 47.0181 28.5225C47.0181 28.6074 47.0464 28.6738 47.103 28.7217C47.1597 28.7695 47.2324 28.7935 47.3213 28.7935ZM50.5018 29V27.6245H50.2513V27.415H50.5018V27.2524C50.5018 27.0825 50.5472 26.9512 50.638 26.8584C50.7288 26.7656 50.8572 26.7192 51.0232 26.7192C51.0857 26.7192 51.1478 26.7275 51.2093 26.7441L51.1946 26.9639C51.1487 26.9551 51.0999 26.9507 51.0481 26.9507C50.9603 26.9507 50.8924 26.9766 50.8445 27.0283C50.7967 27.0791 50.7728 27.1523 50.7728 27.248V27.415H51.1111V27.6245H50.7728V29H50.5018ZM51.9397 28.1929C51.9397 28.0376 51.9699 27.8979 52.0305 27.7739C52.092 27.6499 52.177 27.5542 52.2854 27.4868C52.3947 27.4194 52.5192 27.3857 52.6589 27.3857C52.8747 27.3857 53.049 27.4604 53.1818 27.6099C53.3156 27.7593 53.3825 27.958 53.3825 28.2061V28.2251C53.3825 28.3794 53.3527 28.5181 53.2932 28.6411C53.2346 28.7632 53.1501 28.8584 53.0397 28.9268C52.9304 28.9951 52.8044 29.0293 52.6618 29.0293C52.447 29.0293 52.2727 28.9546 52.1389 28.8052C52.0061 28.6558 51.9397 28.458 51.9397 28.2119V28.1929ZM52.2121 28.2251C52.2121 28.4009 52.2526 28.542 52.3337 28.6484C52.4157 28.7549 52.5251 28.8081 52.6618 28.8081C52.7995 28.8081 52.9089 28.7544 52.9899 28.647C53.071 28.5386 53.1115 28.3872 53.1115 28.1929C53.1115 28.019 53.07 27.8784 52.987 27.771C52.905 27.6626 52.7956 27.6084 52.6589 27.6084C52.5251 27.6084 52.4172 27.6616 52.3352 27.7681C52.2531 27.8745 52.2121 28.0269 52.2121 28.2251ZM55.0885 27.6582C55.0475 27.6514 55.003 27.6479 54.9552 27.6479C54.7774 27.6479 54.6568 27.7236 54.5934 27.875V29H54.3224V27.415H54.586L54.5904 27.5981C54.6793 27.4565 54.8053 27.3857 54.9684 27.3857C55.0211 27.3857 55.0611 27.3926 55.0885 27.4062V27.6582ZM56.1938 27.415L56.2012 27.5908C56.3174 27.4541 56.4741 27.3857 56.6714 27.3857C56.8931 27.3857 57.0439 27.4707 57.124 27.6406C57.1768 27.5645 57.2451 27.5029 57.3291 27.4561C57.4141 27.4092 57.5142 27.3857 57.6294 27.3857C57.9771 27.3857 58.1538 27.5698 58.1597 27.938V29H57.8887V27.9541C57.8887 27.8408 57.8628 27.7563 57.811 27.7007C57.7593 27.644 57.6724 27.6157 57.5503 27.6157C57.4497 27.6157 57.3662 27.646 57.2998 27.7065C57.2334 27.7661 57.1948 27.8467 57.1841 27.9482V29H56.9116V27.9614C56.9116 27.731 56.7988 27.6157 56.5732 27.6157C56.3955 27.6157 56.2739 27.6914 56.2085 27.8428V29H55.9375V27.415H56.1938ZM60.1483 29C60.1327 28.9688 60.12 28.9131 60.1103 28.833C59.9843 28.9639 59.8339 29.0293 59.6591 29.0293C59.5028 29.0293 59.3744 28.9854 59.2738 28.8975C59.1742 28.8086 59.1244 28.6963 59.1244 28.5605C59.1244 28.3955 59.1869 28.2676 59.3119 28.1768C59.4379 28.085 59.6146 28.0391 59.8422 28.0391H60.1059V27.9146C60.1059 27.8198 60.0775 27.7446 60.0209 27.689C59.9643 27.6323 59.8808 27.604 59.7704 27.604C59.6737 27.604 59.5927 27.6284 59.5272 27.6772C59.4618 27.7261 59.4291 27.7852 59.4291 27.8545H59.1566C59.1566 27.7754 59.1845 27.6992 59.2401 27.626C59.2968 27.5518 59.3729 27.4932 59.4687 27.4502C59.5653 27.4072 59.6713 27.3857 59.7865 27.3857C59.9691 27.3857 60.1122 27.4316 60.2157 27.5234C60.3192 27.6143 60.3729 27.7397 60.3769 27.8999V28.6294C60.3769 28.7749 60.3954 28.8906 60.4325 28.9766V29H60.1483ZM59.6986 28.7935C59.7836 28.7935 59.8642 28.7715 59.9403 28.7275C60.0165 28.6836 60.0717 28.6265 60.1059 28.5562V28.231H59.8935C59.5614 28.231 59.3954 28.3281 59.3954 28.5225C59.3954 28.6074 59.4237 28.6738 59.4804 28.7217C59.537 28.7695 59.6098 28.7935 59.6986 28.7935ZM61.4075 28.8579C61.4075 28.811 61.4212 28.772 61.4485 28.7407C61.4769 28.7095 61.5188 28.6938 61.5745 28.6938C61.6302 28.6938 61.6722 28.7095 61.7005 28.7407C61.7298 28.772 61.7444 28.811 61.7444 28.8579C61.7444 28.9028 61.7298 28.9404 61.7005 28.9707C61.6722 29.001 61.6302 29.0161 61.5745 29.0161C61.5188 29.0161 61.4769 29.001 61.4485 28.9707C61.4212 28.9404 61.4075 28.9028 61.4075 28.8579ZM19.0378 36.165V37H18.7565V34.8672H19.5432C19.7766 34.8672 19.9592 34.9268 20.091 35.0459C20.2238 35.165 20.2902 35.3228 20.2902 35.519C20.2902 35.7261 20.2253 35.8857 20.0954 35.998C19.9665 36.1094 19.7814 36.165 19.5402 36.165H19.0378ZM19.0378 35.9351H19.5432C19.6936 35.9351 19.8088 35.8999 19.8889 35.8296C19.9689 35.7583 20.009 35.6558 20.009 35.522C20.009 35.395 19.9689 35.2935 19.8889 35.2173C19.8088 35.1411 19.6989 35.1016 19.5593 35.0986H19.0378V35.9351ZM21.1144 36.1929C21.1144 36.0376 21.1446 35.8979 21.2052 35.7739C21.2667 35.6499 21.3517 35.5542 21.4601 35.4868C21.5694 35.4194 21.6939 35.3857 21.8336 35.3857C22.0494 35.3857 22.2237 35.4604 22.3565 35.6099C22.4903 35.7593 22.5572 35.958 22.5572 36.2061V36.2251C22.5572 36.3794 22.5274 36.5181 22.4679 36.6411C22.4093 36.7632 22.3248 36.8584 22.2145 36.9268C22.1051 36.9951 21.9791 37.0293 21.8365 37.0293C21.6217 37.0293 21.4474 36.9546 21.3136 36.8052C21.1808 36.6558 21.1144 36.458 21.1144 36.2119V36.1929ZM21.3868 36.2251C21.3868 36.4009 21.4273 36.542 21.5084 36.6484C21.5904 36.7549 21.6998 36.8081 21.8365 36.8081C21.9742 36.8081 22.0836 36.7544 22.1646 36.647C22.2457 36.5386 22.2862 36.3872 22.2862 36.1929C22.2862 36.019 22.2447 35.8784 22.1617 35.771C22.0797 35.6626 21.9703 35.6084 21.8336 35.6084C21.6998 35.6084 21.5919 35.6616 21.5099 35.7681C21.4278 35.8745 21.3868 36.0269 21.3868 36.2251ZM24.2632 35.6582C24.2222 35.6514 24.1777 35.6479 24.1299 35.6479C23.9521 35.6479 23.8315 35.7236 23.7681 35.875V37H23.4971V35.415H23.7607L23.7651 35.5981C23.854 35.4565 23.98 35.3857 24.1431 35.3857C24.1958 35.3857 24.2358 35.3926 24.2632 35.4062V35.6582ZM26.5911 37V35.6245H26.3406V35.415H26.5911V35.2524C26.5911 35.0825 26.6365 34.9512 26.7273 34.8584C26.8182 34.7656 26.9466 34.7192 27.1126 34.7192C27.1751 34.7192 27.2371 34.7275 27.2986 34.7441L27.284 34.9639C27.2381 34.9551 27.1893 34.9507 27.1375 34.9507C27.0496 34.9507 26.9817 34.9766 26.9339 35.0283C26.886 35.0791 26.8621 35.1523 26.8621 35.248V35.415H27.2005V35.6245H26.8621V37H26.5911ZM29.0793 37C29.0637 36.9688 29.051 36.9131 29.0412 36.833C28.9152 36.9639 28.7648 37.0293 28.59 37.0293C28.4338 37.0293 28.3054 36.9854 28.2048 36.8975C28.1052 36.8086 28.0554 36.6963 28.0554 36.5605C28.0554 36.3955 28.1179 36.2676 28.2429 36.1768C28.3688 36.085 28.5456 36.0391 28.7731 36.0391H29.0368V35.9146C29.0368 35.8198 29.0085 35.7446 28.9519 35.689C28.8952 35.6323 28.8117 35.604 28.7014 35.604C28.6047 35.604 28.5236 35.6284 28.4582 35.6772C28.3928 35.7261 28.3601 35.7852 28.3601 35.8545H28.0876C28.0876 35.7754 28.1154 35.6992 28.1711 35.626C28.2277 35.5518 28.3039 35.4932 28.3996 35.4502C28.4963 35.4072 28.6022 35.3857 28.7175 35.3857C28.9001 35.3857 29.0432 35.4316 29.1467 35.5234C29.2502 35.6143 29.3039 35.7397 29.3078 35.8999V36.6294C29.3078 36.7749 29.3264 36.8906 29.3635 36.9766V37H29.0793ZM28.6296 36.7935C28.7146 36.7935 28.7951 36.7715 28.8713 36.7275C28.9475 36.6836 29.0026 36.6265 29.0368 36.5562V36.231H28.8244C28.4924 36.231 28.3264 36.3281 28.3264 36.5225C28.3264 36.6074 28.3547 36.6738 28.4113 36.7217C28.468 36.7695 28.5407 36.7935 28.6296 36.7935ZM30.8321 36.6323L31.2247 35.415H31.5016L30.9332 37H30.7267L30.1524 35.415H30.4293L30.8321 36.6323ZM32.2671 36.1929C32.2671 36.0376 32.2974 35.8979 32.3579 35.7739C32.4194 35.6499 32.5044 35.5542 32.6128 35.4868C32.7222 35.4194 32.8467 35.3857 32.9863 35.3857C33.2021 35.3857 33.3765 35.4604 33.5093 35.6099C33.6431 35.7593 33.71 35.958 33.71 36.2061V36.2251C33.71 36.3794 33.6802 36.5181 33.6206 36.6411C33.562 36.7632 33.4775 36.8584 33.3672 36.9268C33.2578 36.9951 33.1318 37.0293 32.9893 37.0293C32.7744 37.0293 32.6001 36.9546 32.4663 36.8052C32.3335 36.6558 32.2671 36.458 32.2671 36.2119V36.1929ZM32.5396 36.2251C32.5396 36.4009 32.5801 36.542 32.6611 36.6484C32.7432 36.7549 32.8525 36.8081 32.9893 36.8081C33.127 36.8081 33.2363 36.7544 33.3174 36.647C33.3984 36.5386 33.439 36.3872 33.439 36.1929C33.439 36.019 33.3975 35.8784 33.3145 35.771C33.2324 35.6626 33.123 35.6084 32.9863 35.6084C32.8525 35.6084 32.7446 35.6616 32.6626 35.7681C32.5806 35.8745 32.5396 36.0269 32.5396 36.2251ZM35.4159 35.6582C35.3749 35.6514 35.3305 35.6479 35.2826 35.6479C35.1049 35.6479 34.9843 35.7236 34.9208 35.875V37H34.6498V35.415H34.9135L34.9179 35.5981C35.0067 35.4565 35.1327 35.3857 35.2958 35.3857C35.3485 35.3857 35.3886 35.3926 35.4159 35.4062V35.6582ZM38.5334 36.5796C38.5334 36.5063 38.5056 36.4497 38.4499 36.4097C38.3952 36.3687 38.299 36.3335 38.1613 36.3042C38.0246 36.2749 37.9157 36.2397 37.8347 36.1987C37.7546 36.1577 37.695 36.1089 37.656 36.0522C37.6179 35.9956 37.5988 35.9282 37.5988 35.8501C37.5988 35.7202 37.6535 35.6104 37.7629 35.5205C37.8732 35.4307 38.0139 35.3857 38.1848 35.3857C38.3645 35.3857 38.51 35.4321 38.6213 35.5249C38.7336 35.6177 38.7897 35.7363 38.7897 35.8809H38.5173C38.5173 35.8066 38.4855 35.7427 38.4221 35.689C38.3596 35.6353 38.2805 35.6084 38.1848 35.6084C38.0861 35.6084 38.009 35.6299 37.9533 35.6729C37.8977 35.7158 37.8698 35.772 37.8698 35.8413C37.8698 35.9067 37.8957 35.9561 37.9475 35.9893C37.9992 36.0225 38.0925 36.0542 38.2272 36.0845C38.363 36.1147 38.4729 36.1509 38.5568 36.1929C38.6408 36.2349 38.7028 36.2856 38.7429 36.3452C38.7839 36.4038 38.8044 36.4756 38.8044 36.5605C38.8044 36.7021 38.7478 36.8159 38.6345 36.9019C38.5212 36.9868 38.3742 37.0293 38.1936 37.0293C38.0666 37.0293 37.9543 37.0068 37.8566 36.9619C37.759 36.917 37.6823 36.8545 37.6267 36.7744C37.572 36.6934 37.5446 36.606 37.5446 36.5122H37.8156C37.8205 36.603 37.8566 36.6753 37.924 36.729C37.9924 36.7817 38.0822 36.8081 38.1936 36.8081C38.2961 36.8081 38.3781 36.7876 38.4396 36.7466C38.5021 36.7046 38.5334 36.6489 38.5334 36.5796ZM40.4151 37.0293C40.2003 37.0293 40.0255 36.959 39.8907 36.8184C39.756 36.6768 39.6886 36.4878 39.6886 36.2515V36.2017C39.6886 36.0444 39.7184 35.9043 39.7779 35.7812C39.8385 35.6572 39.9225 35.5605 40.0299 35.4912C40.1383 35.4209 40.2555 35.3857 40.3814 35.3857C40.5875 35.3857 40.7477 35.4536 40.8619 35.5894C40.9762 35.7251 41.0333 35.9194 41.0333 36.1724V36.2852H39.9596C39.9635 36.4414 40.0089 36.5679 40.0958 36.6646C40.1837 36.7603 40.295 36.8081 40.4298 36.8081C40.5255 36.8081 40.6065 36.7886 40.6729 36.7495C40.7394 36.7104 40.7975 36.6587 40.8473 36.5942L41.0128 36.7231C40.88 36.9272 40.6808 37.0293 40.4151 37.0293ZM40.3814 35.6084C40.2721 35.6084 40.1803 35.6484 40.1061 35.7285C40.0318 35.8076 39.9859 35.9189 39.9684 36.0625H40.7623V36.042C40.7545 35.9043 40.7174 35.7979 40.651 35.7227C40.5846 35.6465 40.4947 35.6084 40.3814 35.6084ZM42.2427 37H41.9717V34.75H42.2427V37ZM43.9354 37.0293C43.7206 37.0293 43.5458 36.959 43.411 36.8184C43.2763 36.6768 43.2089 36.4878 43.2089 36.2515V36.2017C43.2089 36.0444 43.2387 35.9043 43.2982 35.7812C43.3588 35.6572 43.4428 35.5605 43.5502 35.4912C43.6586 35.4209 43.7758 35.3857 43.9018 35.3857C44.1078 35.3857 44.268 35.4536 44.3822 35.5894C44.4965 35.7251 44.5536 35.9194 44.5536 36.1724V36.2852H43.4799C43.4838 36.4414 43.5292 36.5679 43.6161 36.6646C43.704 36.7603 43.8153 36.8081 43.9501 36.8081C44.0458 36.8081 44.1269 36.7886 44.1933 36.7495C44.2597 36.7104 44.3178 36.6587 44.3676 36.5942L44.5331 36.7231C44.4003 36.9272 44.2011 37.0293 43.9354 37.0293ZM43.9018 35.6084C43.7924 35.6084 43.7006 35.6484 43.6264 35.7285C43.5521 35.8076 43.5063 35.9189 43.4887 36.0625H44.2826V36.042C44.2748 35.9043 44.2377 35.7979 44.1713 35.7227C44.1049 35.6465 44.015 35.6084 43.9018 35.6084ZM46.1043 36.8081C46.201 36.8081 46.2854 36.7788 46.3577 36.7202C46.43 36.6616 46.47 36.5884 46.4778 36.5005H46.7342C46.7293 36.5913 46.698 36.6777 46.6404 36.7598C46.5828 36.8418 46.5057 36.9072 46.409 36.9561C46.3133 37.0049 46.2117 37.0293 46.1043 37.0293C45.8885 37.0293 45.7166 36.9575 45.5887 36.814C45.4617 36.6694 45.3982 36.4722 45.3982 36.2222V36.1768C45.3982 36.0225 45.4266 35.8853 45.4832 35.7651C45.5398 35.645 45.6209 35.5518 45.7264 35.4854C45.8328 35.4189 45.9583 35.3857 46.1028 35.3857C46.2806 35.3857 46.428 35.439 46.5452 35.5454C46.6634 35.6519 46.7264 35.79 46.7342 35.96H46.4778C46.47 35.8574 46.431 35.7734 46.3606 35.708C46.2913 35.6416 46.2054 35.6084 46.1028 35.6084C45.9651 35.6084 45.8582 35.6582 45.782 35.7578C45.7068 35.8564 45.6692 35.9995 45.6692 36.187V36.2383C45.6692 36.4209 45.7068 36.5615 45.782 36.6602C45.8572 36.7588 45.9646 36.8081 46.1043 36.8081ZM48.2746 36.8081C48.3713 36.8081 48.4558 36.7788 48.528 36.7202C48.6003 36.6616 48.6403 36.5884 48.6481 36.5005H48.9045C48.8996 36.5913 48.8684 36.6777 48.8107 36.7598C48.7531 36.8418 48.676 36.9072 48.5793 36.9561C48.4836 37.0049 48.382 37.0293 48.2746 37.0293C48.0588 37.0293 47.8869 36.9575 47.759 36.814C47.632 36.6694 47.5686 36.4722 47.5686 36.2222V36.1768C47.5686 36.0225 47.5969 35.8853 47.6535 35.7651C47.7102 35.645 47.7912 35.5518 47.8967 35.4854C48.0031 35.4189 48.1286 35.3857 48.2731 35.3857C48.4509 35.3857 48.5983 35.439 48.7155 35.5454C48.8337 35.6519 48.8967 35.79 48.9045 35.96H48.6481C48.6403 35.8574 48.6013 35.7734 48.531 35.708C48.4616 35.6416 48.3757 35.6084 48.2731 35.6084C48.1354 35.6084 48.0285 35.6582 47.9523 35.7578C47.8771 35.8564 47.8396 35.9995 47.8396 36.187V36.2383C47.8396 36.4209 47.8771 36.5615 47.9523 36.6602C48.0275 36.7588 48.135 36.8081 48.2746 36.8081ZM50.1036 37H49.8326V35.415H50.1036V37ZM49.8106 34.9946C49.8106 34.9507 49.8238 34.9136 49.8502 34.8833C49.8775 34.853 49.9176 34.8379 49.9703 34.8379C50.023 34.8379 50.0631 34.853 50.0904 34.8833C50.1178 34.9136 50.1314 34.9507 50.1314 34.9946C50.1314 35.0386 50.1178 35.0752 50.0904 35.1045C50.0631 35.1338 50.023 35.1484 49.9703 35.1484C49.9176 35.1484 49.8775 35.1338 49.8502 35.1045C49.8238 35.0752 49.8106 35.0386 49.8106 34.9946ZM51.0669 36.1929C51.0669 36.0376 51.0972 35.8979 51.1577 35.7739C51.2192 35.6499 51.3042 35.5542 51.4126 35.4868C51.522 35.4194 51.6465 35.3857 51.7861 35.3857C52.002 35.3857 52.1763 35.4604 52.3091 35.6099C52.4429 35.7593 52.5098 35.958 52.5098 36.2061V36.2251C52.5098 36.3794 52.48 36.5181 52.4204 36.6411C52.3618 36.7632 52.2773 36.8584 52.167 36.9268C52.0576 36.9951 51.9316 37.0293 51.7891 37.0293C51.5742 37.0293 51.3999 36.9546 51.2661 36.8052C51.1333 36.6558 51.0669 36.458 51.0669 36.2119V36.1929ZM51.3394 36.2251C51.3394 36.4009 51.3799 36.542 51.4609 36.6484C51.543 36.7549 51.6523 36.8081 51.7891 36.8081C51.9268 36.8081 52.0361 36.7544 52.1172 36.647C52.1982 36.5386 52.2388 36.3872 52.2388 36.1929C52.2388 36.019 52.1973 35.8784 52.1143 35.771C52.0322 35.6626 51.9229 35.6084 51.7861 35.6084C51.6523 35.6084 51.5444 35.6616 51.4624 35.7681C51.3804 35.8745 51.3394 36.0269 51.3394 36.2251ZM53.706 35.415L53.7147 35.6143C53.8358 35.4619 53.994 35.3857 54.1894 35.3857C54.5243 35.3857 54.6933 35.5747 54.6962 35.9526V37H54.4252V35.9512C54.4242 35.8369 54.3979 35.7524 54.3461 35.6978C54.2953 35.6431 54.2157 35.6157 54.1073 35.6157C54.0194 35.6157 53.9423 35.6392 53.8759 35.686C53.8095 35.7329 53.7577 35.7944 53.7206 35.8706V37H53.4496V35.415H53.706ZM56.3626 37.0293C56.1478 37.0293 55.9729 36.959 55.8382 36.8184C55.7034 36.6768 55.636 36.4878 55.636 36.2515V36.2017C55.636 36.0444 55.6658 35.9043 55.7254 35.7812C55.7859 35.6572 55.8699 35.5605 55.9773 35.4912C56.0857 35.4209 56.2029 35.3857 56.3289 35.3857C56.535 35.3857 56.6951 35.4536 56.8094 35.5894C56.9236 35.7251 56.9808 35.9194 56.9808 36.1724V36.2852H55.907C55.9109 36.4414 55.9563 36.5679 56.0433 36.6646C56.1312 36.7603 56.2425 36.8081 56.3772 36.8081C56.4729 36.8081 56.554 36.7886 56.6204 36.7495C56.6868 36.7104 56.7449 36.6587 56.7947 36.5942L56.9603 36.7231C56.8274 36.9272 56.6282 37.0293 56.3626 37.0293ZM56.3289 35.6084C56.2195 35.6084 56.1277 35.6484 56.0535 35.7285C55.9793 35.8076 55.9334 35.9189 55.9158 36.0625H56.7098V36.042C56.702 35.9043 56.6648 35.7979 56.5984 35.7227C56.532 35.6465 56.4422 35.6084 56.3289 35.6084ZM59.1681 36.1929C59.1681 36.0376 59.1983 35.8979 59.2589 35.7739C59.3204 35.6499 59.4054 35.5542 59.5138 35.4868C59.6231 35.4194 59.7477 35.3857 59.8873 35.3857C60.1031 35.3857 60.2774 35.4604 60.4103 35.6099C60.544 35.7593 60.6109 35.958 60.6109 36.2061V36.2251C60.6109 36.3794 60.5812 36.5181 60.5216 36.6411C60.463 36.7632 60.3785 36.8584 60.2682 36.9268C60.1588 36.9951 60.0328 37.0293 59.8902 37.0293C59.6754 37.0293 59.5011 36.9546 59.3673 36.8052C59.2345 36.6558 59.1681 36.458 59.1681 36.2119V36.1929ZM59.4405 36.2251C59.4405 36.4009 59.4811 36.542 59.5621 36.6484C59.6441 36.7549 59.7535 36.8081 59.8902 36.8081C60.0279 36.8081 60.1373 36.7544 60.2184 36.647C60.2994 36.5386 60.3399 36.3872 60.3399 36.1929C60.3399 36.019 60.2984 35.8784 60.2154 35.771C60.1334 35.6626 60.024 35.6084 59.8873 35.6084C59.7535 35.6084 59.6456 35.6616 59.5636 35.7681C59.4815 35.8745 59.4405 36.0269 59.4405 36.2251ZM61.9185 35.0312V35.415H62.2144V35.6245H61.9185V36.6074C61.9185 36.6709 61.9316 36.7188 61.958 36.751C61.9844 36.7822 62.0293 36.7979 62.0928 36.7979C62.124 36.7979 62.167 36.792 62.2217 36.7803V37C62.1504 37.0195 62.0811 37.0293 62.0137 37.0293C61.8926 37.0293 61.8013 36.9927 61.7397 36.9194C61.6782 36.8462 61.6475 36.7422 61.6475 36.6074V35.6245H61.3589V35.415H61.6475V35.0312H61.9185ZM63.8983 35.6582C63.8573 35.6514 63.8129 35.6479 63.765 35.6479C63.5873 35.6479 63.4667 35.7236 63.4032 35.875V37H63.1322V35.415H63.3959L63.4003 35.5981C63.4892 35.4565 63.6151 35.3857 63.7782 35.3857C63.831 35.3857 63.871 35.3926 63.8983 35.4062V35.6582ZM64.6478 36.1929C64.6478 36.0376 64.678 35.8979 64.7386 35.7739C64.8001 35.6499 64.8851 35.5542 64.9935 35.4868C65.1028 35.4194 65.2273 35.3857 65.367 35.3857C65.5828 35.3857 65.7571 35.4604 65.8899 35.6099C66.0237 35.7593 66.0906 35.958 66.0906 36.2061V36.2251C66.0906 36.3794 66.0608 36.5181 66.0013 36.6411C65.9427 36.7632 65.8582 36.8584 65.7479 36.9268C65.6385 36.9951 65.5125 37.0293 65.3699 37.0293C65.1551 37.0293 64.9808 36.9546 64.847 36.8052C64.7142 36.6558 64.6478 36.458 64.6478 36.2119V36.1929ZM64.9202 36.2251C64.9202 36.4009 64.9607 36.542 65.0418 36.6484C65.1238 36.7549 65.2332 36.8081 65.3699 36.8081C65.5076 36.8081 65.617 36.7544 65.698 36.647C65.7791 36.5386 65.8196 36.3872 65.8196 36.1929C65.8196 36.019 65.7781 35.8784 65.6951 35.771C65.6131 35.6626 65.5037 35.6084 65.367 35.6084C65.2332 35.6084 65.1253 35.6616 65.0433 35.7681C64.9612 35.8745 64.9202 36.0269 64.9202 36.2251ZM68.6295 35.415L68.6368 35.5908C68.753 35.4541 68.9098 35.3857 69.107 35.3857C69.3287 35.3857 69.4796 35.4707 69.5597 35.6406C69.6124 35.5645 69.6808 35.5029 69.7647 35.4561C69.8497 35.4092 69.9498 35.3857 70.065 35.3857C70.4127 35.3857 70.5895 35.5698 70.5953 35.938V37H70.3243V35.9541C70.3243 35.8408 70.2984 35.7563 70.2467 35.7007C70.1949 35.644 70.108 35.6157 69.9859 35.6157C69.8854 35.6157 69.8019 35.646 69.7355 35.7065C69.669 35.7661 69.6305 35.8467 69.6197 35.9482V37H69.3473V35.9614C69.3473 35.731 69.2345 35.6157 69.0089 35.6157C68.8312 35.6157 68.7096 35.6914 68.6441 35.8428V37H68.3731V35.415H68.6295ZM71.5337 36.1929C71.5337 36.0376 71.564 35.8979 71.6245 35.7739C71.686 35.6499 71.771 35.5542 71.8794 35.4868C71.9888 35.4194 72.1133 35.3857 72.2529 35.3857C72.4688 35.3857 72.6431 35.4604 72.7759 35.6099C72.9097 35.7593 72.9766 35.958 72.9766 36.2061V36.2251C72.9766 36.3794 72.9468 36.5181 72.8872 36.6411C72.8286 36.7632 72.7441 36.8584 72.6338 36.9268C72.5244 36.9951 72.3984 37.0293 72.2559 37.0293C72.041 37.0293 71.8667 36.9546 71.7329 36.8052C71.6001 36.6558 71.5337 36.458 71.5337 36.2119V36.1929ZM71.8062 36.2251C71.8062 36.4009 71.8467 36.542 71.9277 36.6484C72.0098 36.7549 72.1191 36.8081 72.2559 36.8081C72.3936 36.8081 72.5029 36.7544 72.584 36.647C72.665 36.5386 72.7056 36.3872 72.7056 36.1929C72.7056 36.019 72.6641 35.8784 72.5811 35.771C72.499 35.6626 72.3896 35.6084 72.2529 35.6084C72.1191 35.6084 72.0112 35.6616 71.9292 35.7681C71.8472 35.8745 71.8062 36.0269 71.8062 36.2251ZM73.8505 36.1943C73.8505 35.9512 73.9081 35.7559 74.0233 35.6084C74.1386 35.46 74.2895 35.3857 74.476 35.3857C74.6615 35.3857 74.8085 35.4492 74.9169 35.5762V34.75H75.1879V37H74.9389L74.9257 36.8301C74.8173 36.9629 74.6664 37.0293 74.473 37.0293C74.2895 37.0293 74.1395 36.9541 74.0233 36.8037C73.9081 36.6533 73.8505 36.457 73.8505 36.2148V36.1943ZM74.1215 36.2251C74.1215 36.4048 74.1586 36.5454 74.2328 36.647C74.307 36.7485 74.4096 36.7993 74.5404 36.7993C74.7123 36.7993 74.8378 36.7222 74.9169 36.5679V35.8398C74.8358 35.6904 74.7113 35.6157 74.5434 35.6157C74.4105 35.6157 74.307 35.667 74.2328 35.7695C74.1586 35.8721 74.1215 36.0239 74.1215 36.2251ZM76.8675 37.0293C76.6526 37.0293 76.4778 36.959 76.3431 36.8184C76.2083 36.6768 76.1409 36.4878 76.1409 36.2515V36.2017C76.1409 36.0444 76.1707 35.9043 76.2303 35.7812C76.2908 35.6572 76.3748 35.5605 76.4822 35.4912C76.5906 35.4209 76.7078 35.3857 76.8338 35.3857C77.0398 35.3857 77.2 35.4536 77.3143 35.5894C77.4285 35.7251 77.4856 35.9194 77.4856 36.1724V36.2852H76.4119C76.4158 36.4414 76.4612 36.5679 76.5481 36.6646C76.636 36.7603 76.7474 36.8081 76.8821 36.8081C76.9778 36.8081 77.0589 36.7886 77.1253 36.7495C77.1917 36.7104 77.2498 36.6587 77.2996 36.5942L77.4651 36.7231C77.3323 36.9272 77.1331 37.0293 76.8675 37.0293ZM76.8338 35.6084C76.7244 35.6084 76.6326 35.6484 76.5584 35.7285C76.4842 35.8076 76.4383 35.9189 76.4207 36.0625H77.2146V36.042C77.2068 35.9043 77.1697 35.7979 77.1033 35.7227C77.0369 35.6465 76.9471 35.6084 76.8338 35.6084ZM78.695 37H78.424V34.75H78.695V37ZM79.6583 36.1929C79.6583 36.0376 79.6886 35.8979 79.7491 35.7739C79.8106 35.6499 79.8956 35.5542 80.004 35.4868C80.1134 35.4194 80.2379 35.3857 80.3775 35.3857C80.5934 35.3857 80.7677 35.4604 80.9005 35.6099C81.0343 35.7593 81.1012 35.958 81.1012 36.2061V36.2251C81.1012 36.3794 81.0714 36.5181 81.0118 36.6411C80.9532 36.7632 80.8688 36.8584 80.7584 36.9268C80.649 36.9951 80.523 37.0293 80.3805 37.0293C80.1656 37.0293 79.9913 36.9546 79.8575 36.8052C79.7247 36.6558 79.6583 36.458 79.6583 36.2119V36.1929ZM79.9308 36.2251C79.9308 36.4009 79.9713 36.542 80.0523 36.6484C80.1344 36.7549 80.2438 36.8081 80.3805 36.8081C80.5182 36.8081 80.6275 36.7544 80.7086 36.647C80.7896 36.5386 80.8302 36.3872 80.8302 36.1929C80.8302 36.019 80.7887 35.8784 80.7057 35.771C80.6236 35.6626 80.5143 35.6084 80.3775 35.6084C80.2438 35.6084 80.1358 35.6616 80.0538 35.7681C79.9718 35.8745 79.9308 36.0269 79.9308 36.2251ZM83.3134 36.1929C83.3134 36.0376 83.3437 35.8979 83.4042 35.7739C83.4657 35.6499 83.5507 35.5542 83.6591 35.4868C83.7685 35.4194 83.893 35.3857 84.0326 35.3857C84.2484 35.3857 84.4228 35.4604 84.5556 35.6099C84.6894 35.7593 84.7563 35.958 84.7563 36.2061V36.2251C84.7563 36.3794 84.7265 36.5181 84.6669 36.6411C84.6083 36.7632 84.5238 36.8584 84.4135 36.9268C84.3041 36.9951 84.1781 37.0293 84.0356 37.0293C83.8207 37.0293 83.6464 36.9546 83.5126 36.8052C83.3798 36.6558 83.3134 36.458 83.3134 36.2119V36.1929ZM83.5858 36.2251C83.5858 36.4009 83.6264 36.542 83.7074 36.6484C83.7895 36.7549 83.8988 36.8081 84.0356 36.8081C84.1732 36.8081 84.2826 36.7544 84.3637 36.647C84.4447 36.5386 84.4853 36.3872 84.4853 36.1929C84.4853 36.019 84.4438 35.8784 84.3607 35.771C84.2787 35.6626 84.1693 35.6084 84.0326 35.6084C83.8988 35.6084 83.7909 35.6616 83.7089 35.7681C83.6269 35.8745 83.5858 36.0269 83.5858 36.2251ZM30.1747 40.2251C30.1747 40.4663 30.1195 40.6606 30.0092 40.8081C29.8988 40.9556 29.7494 41.0293 29.5609 41.0293C29.3686 41.0293 29.2172 40.9683 29.1068 40.8462V41.6094H28.8358V39.415H29.0834L29.0966 39.5908C29.2069 39.4541 29.3603 39.3857 29.5565 39.3857C29.747 39.3857 29.8974 39.4575 30.0077 39.6011C30.119 39.7446 30.1747 39.9443 30.1747 40.2002V40.2251ZM29.9037 40.1943C29.9037 40.0156 29.8656 39.8745 29.7895 39.771C29.7133 39.6675 29.6088 39.6157 29.476 39.6157C29.3119 39.6157 29.1889 39.6885 29.1068 39.834V40.5913C29.1879 40.7358 29.3119 40.8081 29.4789 40.8081C29.6088 40.8081 29.7118 40.7568 29.788 40.6543C29.8651 40.5508 29.9037 40.3975 29.9037 40.1943ZM31.8865 39.6582C31.8455 39.6514 31.8011 39.6479 31.7532 39.6479C31.5755 39.6479 31.4549 39.7236 31.3914 39.875V41H31.1204V39.415H31.3841L31.3885 39.5981C31.4773 39.4565 31.6033 39.3857 31.7664 39.3857C31.8191 39.3857 31.8592 39.3926 31.8865 39.4062V39.6582ZM33.7155 40.8433C33.6101 40.9673 33.4553 41.0293 33.2512 41.0293C33.0822 41.0293 32.9533 40.9805 32.8645 40.8828C32.7766 40.7842 32.7321 40.6387 32.7312 40.4463V39.415H33.0021V40.439C33.0021 40.6792 33.0998 40.7993 33.2951 40.7993C33.5021 40.7993 33.6398 40.7222 33.7082 40.5679V39.415H33.9792V41H33.7214L33.7155 40.8433ZM35.65 41.0293C35.4352 41.0293 35.2604 40.959 35.1256 40.8184C34.9908 40.6768 34.9234 40.4878 34.9234 40.2515V40.2017C34.9234 40.0444 34.9532 39.9043 35.0128 39.7812C35.0733 39.6572 35.1573 39.5605 35.2647 39.4912C35.3731 39.4209 35.4903 39.3857 35.6163 39.3857C35.8224 39.3857 35.9825 39.4536 36.0968 39.5894C36.211 39.7251 36.2682 39.9194 36.2682 40.1724V40.2852H35.1944C35.1983 40.4414 35.2438 40.5679 35.3307 40.6646C35.4186 40.7603 35.5299 40.8081 35.6646 40.8081C35.7604 40.8081 35.8414 40.7886 35.9078 40.7495C35.9742 40.7104 36.0323 40.6587 36.0821 40.5942L36.2477 40.7231C36.1148 40.9272 35.9156 41.0293 35.65 41.0293ZM35.6163 39.6084C35.5069 39.6084 35.4151 39.6484 35.3409 39.7285C35.2667 39.8076 35.2208 39.9189 35.2032 40.0625H35.9972V40.042C35.9894 39.9043 35.9522 39.7979 35.8858 39.7227C35.8194 39.6465 35.7296 39.6084 35.6163 39.6084ZM38.5249 40.2251C38.5249 40.4673 38.4692 40.6621 38.3579 40.8096C38.2466 40.9561 38.0972 41.0293 37.9097 41.0293C37.7095 41.0293 37.5547 40.9585 37.4453 40.8169L37.4321 41H37.1831V38.75H37.4541V39.5894C37.5635 39.4536 37.7144 39.3857 37.9067 39.3857C38.0991 39.3857 38.25 39.4585 38.3594 39.604C38.4697 39.7495 38.5249 39.9487 38.5249 40.2017V40.2251ZM38.2539 40.1943C38.2539 40.0098 38.2183 39.8672 38.147 39.7666C38.0757 39.666 37.9731 39.6157 37.8394 39.6157C37.6606 39.6157 37.5322 39.6987 37.4541 39.8647V40.5503C37.5371 40.7163 37.6665 40.7993 37.8423 40.7993C37.9722 40.7993 38.0732 40.749 38.1455 40.6484C38.2178 40.5479 38.2539 40.3965 38.2539 40.1943ZM40.1254 41.0293C39.9105 41.0293 39.7357 40.959 39.601 40.8184C39.4662 40.6768 39.3988 40.4878 39.3988 40.2515V40.2017C39.3988 40.0444 39.4286 39.9043 39.4882 39.7812C39.5487 39.6572 39.6327 39.5605 39.7401 39.4912C39.8485 39.4209 39.9657 39.3857 40.0917 39.3857C40.2978 39.3857 40.4579 39.4536 40.5722 39.5894C40.6864 39.7251 40.7436 39.9194 40.7436 40.1724V40.2852H39.6698C39.6737 40.4414 39.7191 40.5679 39.8061 40.6646C39.8939 40.7603 40.0053 40.8081 40.14 40.8081C40.2357 40.8081 40.3168 40.7886 40.3832 40.7495C40.4496 40.7104 40.5077 40.6587 40.5575 40.5942L40.723 40.7231C40.5902 40.9272 40.391 41.0293 40.1254 41.0293ZM40.0917 39.6084C39.9823 39.6084 39.8905 39.6484 39.8163 39.7285C39.7421 39.8076 39.6962 39.9189 39.6786 40.0625H40.4726V40.042C40.4647 39.9043 40.4276 39.7979 40.3612 39.7227C40.2948 39.6465 40.205 39.6084 40.0917 39.6084ZM41.9529 41H41.6819V38.75H41.9529V41ZM42.9162 40.1929C42.9162 40.0376 42.9465 39.8979 43.007 39.7739C43.0686 39.6499 43.1535 39.5542 43.2619 39.4868C43.3713 39.4194 43.4958 39.3857 43.6354 39.3857C43.8513 39.3857 44.0256 39.4604 44.1584 39.6099C44.2922 39.7593 44.3591 39.958 44.3591 40.2061V40.2251C44.3591 40.3794 44.3293 40.5181 44.2697 40.6411C44.2111 40.7632 44.1267 40.8584 44.0163 40.9268C43.9069 40.9951 43.781 41.0293 43.6384 41.0293C43.4235 41.0293 43.2492 40.9546 43.1154 40.8052C42.9826 40.6558 42.9162 40.458 42.9162 40.2119V40.1929ZM43.1887 40.2251C43.1887 40.4009 43.2292 40.542 43.3103 40.6484C43.3923 40.7549 43.5017 40.8081 43.6384 40.8081C43.7761 40.8081 43.8854 40.7544 43.9665 40.647C44.0476 40.5386 44.0881 40.3872 44.0881 40.1929C44.0881 40.019 44.0466 39.8784 43.9636 39.771C43.8815 39.6626 43.7722 39.6084 43.6354 39.6084C43.5017 39.6084 43.3937 39.6616 43.3117 39.7681C43.2297 39.8745 43.1887 40.0269 43.1887 40.2251ZM47.2788 40.8081C47.3755 40.8081 47.46 40.7788 47.5322 40.7202C47.6045 40.6616 47.6445 40.5884 47.6523 40.5005H47.9087C47.9038 40.5913 47.8726 40.6777 47.8149 40.7598C47.7573 40.8418 47.6802 40.9072 47.5835 40.9561C47.4878 41.0049 47.3862 41.0293 47.2788 41.0293C47.063 41.0293 46.8911 40.9575 46.7632 40.814C46.6362 40.6694 46.5728 40.4722 46.5728 40.2222V40.1768C46.5728 40.0225 46.6011 39.8853 46.6577 39.7651C46.7144 39.645 46.7954 39.5518 46.9009 39.4854C47.0073 39.4189 47.1328 39.3857 47.2773 39.3857C47.4551 39.3857 47.6025 39.439 47.7197 39.5454C47.8379 39.6519 47.9009 39.79 47.9087 39.96H47.6523C47.6445 39.8574 47.6055 39.7734 47.5352 39.708C47.4658 39.6416 47.3799 39.6084 47.2773 39.6084C47.1396 39.6084 47.0327 39.6582 46.9565 39.7578C46.8813 39.8564 46.8438 39.9995 46.8438 40.187V40.2383C46.8438 40.4209 46.8813 40.5615 46.9565 40.6602C47.0317 40.7588 47.1392 40.8081 47.2788 40.8081ZM48.7416 40.1929C48.7416 40.0376 48.7719 39.8979 48.8324 39.7739C48.8939 39.6499 48.9789 39.5542 49.0873 39.4868C49.1967 39.4194 49.3212 39.3857 49.4608 39.3857C49.6767 39.3857 49.851 39.4604 49.9838 39.6099C50.1176 39.7593 50.1845 39.958 50.1845 40.2061V40.2251C50.1845 40.3794 50.1547 40.5181 50.0951 40.6411C50.0365 40.7632 49.952 40.8584 49.8417 40.9268C49.7323 40.9951 49.6063 41.0293 49.4638 41.0293C49.2489 41.0293 49.0746 40.9546 48.9408 40.8052C48.808 40.6558 48.7416 40.458 48.7416 40.2119V40.1929ZM49.0141 40.2251C49.0141 40.4009 49.0546 40.542 49.1356 40.6484C49.2177 40.7549 49.327 40.8081 49.4638 40.8081C49.6015 40.8081 49.7108 40.7544 49.7919 40.647C49.8729 40.5386 49.9135 40.3872 49.9135 40.1929C49.9135 40.019 49.872 39.8784 49.789 39.771C49.7069 39.6626 49.5976 39.6084 49.4608 39.6084C49.327 39.6084 49.2191 39.6616 49.1371 39.7681C49.0551 39.8745 49.0141 40.0269 49.0141 40.2251ZM51.3807 39.415L51.3895 39.6143C51.5105 39.4619 51.6688 39.3857 51.8641 39.3857C52.199 39.3857 52.368 39.5747 52.3709 39.9526V41H52.0999V39.9512C52.0989 39.8369 52.0726 39.7524 52.0208 39.6978C51.97 39.6431 51.8904 39.6157 51.782 39.6157C51.6941 39.6157 51.617 39.6392 51.5506 39.686C51.4842 39.7329 51.4324 39.7944 51.3953 39.8706V41H51.1243V39.415H51.3807ZM54.652 40.1929C54.652 40.0376 54.6822 39.8979 54.7428 39.7739C54.8043 39.6499 54.8893 39.5542 54.9977 39.4868C55.107 39.4194 55.2315 39.3857 55.3712 39.3857C55.587 39.3857 55.7613 39.4604 55.8941 39.6099C56.0279 39.7593 56.0948 39.958 56.0948 40.2061V40.2251C56.0948 40.3794 56.065 40.5181 56.0055 40.6411C55.9469 40.7632 55.8624 40.8584 55.7521 40.9268C55.6427 40.9951 55.5167 41.0293 55.3741 41.0293C55.1593 41.0293 54.985 40.9546 54.8512 40.8052C54.7184 40.6558 54.652 40.458 54.652 40.2119V40.1929ZM54.9244 40.2251C54.9244 40.4009 54.9649 40.542 55.046 40.6484C55.128 40.7549 55.2374 40.8081 55.3741 40.8081C55.5118 40.8081 55.6212 40.7544 55.7022 40.647C55.7833 40.5386 55.8238 40.3872 55.8238 40.1929C55.8238 40.019 55.7823 39.8784 55.6993 39.771C55.6173 39.6626 55.5079 39.6084 55.3712 39.6084C55.2374 39.6084 55.1295 39.6616 55.0475 39.7681C54.9654 39.8745 54.9244 40.0269 54.9244 40.2251ZM57.4023 39.0312V39.415H57.6982V39.6245H57.4023V40.6074C57.4023 40.6709 57.4155 40.7188 57.4419 40.751C57.4683 40.7822 57.5132 40.7979 57.5767 40.7979C57.6079 40.7979 57.6509 40.792 57.7056 40.7803V41C57.6343 41.0195 57.5649 41.0293 57.4976 41.0293C57.3765 41.0293 57.2852 40.9927 57.2236 40.9194C57.1621 40.8462 57.1313 40.7422 57.1313 40.6074V39.6245H56.8428V39.415H57.1313V39.0312H57.4023ZM59.3822 39.6582C59.3412 39.6514 59.2968 39.6479 59.2489 39.6479C59.0712 39.6479 58.9506 39.7236 58.8871 39.875V41H58.6161V39.415H58.8798L58.8842 39.5981C58.973 39.4565 59.099 39.3857 59.2621 39.3857C59.3148 39.3857 59.3549 39.3926 59.3822 39.4062V39.6582ZM61.1526 41C61.137 40.9688 61.1243 40.9131 61.1146 40.833C60.9886 40.9639 60.8382 41.0293 60.6634 41.0293C60.5071 41.0293 60.3787 40.9854 60.2781 40.8975C60.1785 40.8086 60.1287 40.6963 60.1287 40.5605C60.1287 40.3955 60.1912 40.2676 60.3162 40.1768C60.4422 40.085 60.6189 40.0391 60.8465 40.0391H61.1102V39.9146C61.1102 39.8198 61.0818 39.7446 61.0252 39.689C60.9686 39.6323 60.8851 39.604 60.7747 39.604C60.678 39.604 60.597 39.6284 60.5315 39.6772C60.4661 39.7261 60.4334 39.7852 60.4334 39.8545H60.1609C60.1609 39.7754 60.1888 39.6992 60.2444 39.626C60.3011 39.5518 60.3772 39.4932 60.4729 39.4502C60.5696 39.4072 60.6756 39.3857 60.7908 39.3857C60.9734 39.3857 61.1165 39.4316 61.22 39.5234C61.3235 39.6143 61.3772 39.7397 61.3812 39.8999V40.6294C61.3812 40.7749 61.3997 40.8906 61.4368 40.9766V41H61.1526ZM60.7029 40.7935C60.7879 40.7935 60.8685 40.7715 60.9446 40.7275C61.0208 40.6836 61.076 40.6265 61.1102 40.5562V40.231H60.8978C60.5657 40.231 60.3997 40.3281 60.3997 40.5225C60.3997 40.6074 60.428 40.6738 60.4847 40.7217C60.5413 40.7695 60.6141 40.7935 60.7029 40.7935ZM63.8834 41V39.6245H63.6329V39.415H63.8834V39.2524C63.8834 39.0825 63.9288 38.9512 64.0196 38.8584C64.1105 38.7656 64.2389 38.7192 64.4049 38.7192C64.4674 38.7192 64.5294 38.7275 64.5909 38.7441L64.5763 38.9639C64.5304 38.9551 64.4815 38.9507 64.4298 38.9507C64.3419 38.9507 64.274 38.9766 64.2262 39.0283C64.1783 39.0791 64.1544 39.1523 64.1544 39.248V39.415H64.4928V39.6245H64.1544V41H63.8834ZM65.3213 40.1929C65.3213 40.0376 65.3516 39.8979 65.4121 39.7739C65.4736 39.6499 65.5586 39.5542 65.667 39.4868C65.7764 39.4194 65.9009 39.3857 66.0405 39.3857C66.2563 39.3857 66.4307 39.4604 66.5635 39.6099C66.6973 39.7593 66.7642 39.958 66.7642 40.2061V40.2251C66.7642 40.3794 66.7344 40.5181 66.6748 40.6411C66.6162 40.7632 66.5317 40.8584 66.4214 40.9268C66.312 40.9951 66.186 41.0293 66.0435 41.0293C65.8286 41.0293 65.6543 40.9546 65.5205 40.8052C65.3877 40.6558 65.3213 40.458 65.3213 40.2119V40.1929ZM65.5938 40.2251C65.5938 40.4009 65.6343 40.542 65.7153 40.6484C65.7974 40.7549 65.9067 40.8081 66.0435 40.8081C66.1812 40.8081 66.2905 40.7544 66.3716 40.647C66.4526 40.5386 66.4932 40.3872 66.4932 40.1929C66.4932 40.019 66.4517 39.8784 66.3687 39.771C66.2866 39.6626 66.1772 39.6084 66.0405 39.6084C65.9067 39.6084 65.7988 39.6616 65.7168 39.7681C65.6348 39.8745 65.5938 40.0269 65.5938 40.2251ZM68.4701 39.6582C68.4291 39.6514 68.3847 39.6479 68.3368 39.6479C68.1591 39.6479 68.0385 39.7236 67.975 39.875V41H67.704V39.415H67.9677L67.9721 39.5981C68.0609 39.4565 68.1869 39.3857 68.35 39.3857C68.4027 39.3857 68.4428 39.3926 68.4701 39.4062V39.6582ZM69.5755 39.415L69.5828 39.5908C69.699 39.4541 69.8558 39.3857 70.053 39.3857C70.2747 39.3857 70.4256 39.4707 70.5057 39.6406C70.5584 39.5645 70.6268 39.5029 70.7107 39.4561C70.7957 39.4092 70.8958 39.3857 71.011 39.3857C71.3587 39.3857 71.5355 39.5698 71.5413 39.938V41H71.2703V39.9541C71.2703 39.8408 71.2444 39.7563 71.1927 39.7007C71.1409 39.644 71.054 39.6157 70.9319 39.6157C70.8314 39.6157 70.7479 39.646 70.6814 39.7065C70.615 39.7661 70.5765 39.8467 70.5657 39.9482V41H70.2933V39.9614C70.2933 39.731 70.1805 39.6157 69.9549 39.6157C69.7772 39.6157 69.6556 39.6914 69.5901 39.8428V41H69.3191V39.415H69.5755ZM73.53 41C73.5144 40.9688 73.5017 40.9131 73.4919 40.833C73.3659 40.9639 73.2155 41.0293 73.0407 41.0293C72.8845 41.0293 72.7561 40.9854 72.6555 40.8975C72.5559 40.8086 72.5061 40.6963 72.5061 40.5605C72.5061 40.3955 72.5686 40.2676 72.6936 40.1768C72.8195 40.085 72.9963 40.0391 73.2238 40.0391H73.4875V39.9146C73.4875 39.8198 73.4592 39.7446 73.4025 39.689C73.3459 39.6323 73.2624 39.604 73.1521 39.604C73.0554 39.604 72.9743 39.6284 72.9089 39.6772C72.8435 39.7261 72.8107 39.7852 72.8107 39.8545H72.5383C72.5383 39.7754 72.5661 39.6992 72.6218 39.626C72.6784 39.5518 72.7546 39.4932 72.8503 39.4502C72.947 39.4072 73.0529 39.3857 73.1682 39.3857C73.3508 39.3857 73.4939 39.4316 73.5974 39.5234C73.7009 39.6143 73.7546 39.7397 73.7585 39.8999V40.6294C73.7585 40.7749 73.7771 40.8906 73.8142 40.9766V41H73.53ZM73.0803 40.7935C73.1652 40.7935 73.2458 40.7715 73.322 40.7275C73.3981 40.6836 73.4533 40.6265 73.4875 40.5562V40.231H73.2751C72.9431 40.231 72.7771 40.3281 72.7771 40.5225C72.7771 40.6074 72.8054 40.6738 72.862 40.7217C72.9187 40.7695 72.9914 40.7935 73.0803 40.7935ZM74.7892 40.8579C74.7892 40.811 74.8028 40.772 74.8302 40.7407C74.8585 40.7095 74.9005 40.6938 74.9562 40.6938C75.0118 40.6938 75.0538 40.7095 75.0821 40.7407C75.1114 40.772 75.1261 40.811 75.1261 40.8579C75.1261 40.9028 75.1114 40.9404 75.0821 40.9707C75.0538 41.001 75.0118 41.0161 74.9562 41.0161C74.9005 41.0161 74.8585 41.001 74.8302 40.9707C74.8028 40.9404 74.7892 40.9028 74.7892 40.8579Z" fill="#404145"/>
</svg>
