<svg width="105" height="64" viewBox="0 0 105 64" fill="none" xmlns="http://www.w3.org/2000/svg">
<ellipse cx="10.3636" cy="14" rx="0.936364" ry="1" fill="#404145"/>
<ellipse cx="4.74546" cy="15" rx="0.936364" ry="1" fill="#404145"/>
<ellipse cx="4.74546" cy="45" rx="0.936364" ry="1" fill="#404145"/>
<ellipse cx="4.74546" cy="55" rx="0.936364" ry="1" fill="#404145"/>
<ellipse cx="4.74546" cy="20" rx="0.936364" ry="1" fill="#404145"/>
<ellipse cx="4.74546" cy="30" rx="0.936364" ry="1" fill="#404145"/>
<ellipse cx="4.74546" cy="25" rx="0.936364" ry="1" fill="#404145"/>
<ellipse cx="4.74546" cy="35" rx="0.936364" ry="1" fill="#404145"/>
<ellipse cx="4.74546" cy="40" rx="0.936364" ry="1" fill="#404145"/>
<ellipse cx="4.74546" cy="50" rx="0.936364" ry="1" fill="#404145"/>
<ellipse cx="95.5727" cy="15" rx="0.936364" ry="1" fill="#404145"/>
<ellipse cx="89.9545" cy="14" rx="0.936364" ry="1" fill="#404145"/>
<ellipse cx="84.3364" cy="12" rx="0.936364" ry="1" fill="#404145"/>
<ellipse cx="78.7182" cy="10" rx="0.936364" ry="1" fill="#404145"/>
<ellipse cx="73.1" cy="8" rx="0.936364" ry="1" fill="#404145"/>
<ellipse cx="67.4818" cy="6" rx="0.936364" ry="1" fill="#404145"/>
<ellipse cx="61.8636" cy="4" rx="0.936364" ry="1" fill="#404145"/>
<ellipse cx="56.2455" cy="3" rx="0.936364" ry="1" fill="#404145"/>
<ellipse cx="49.6909" cy="3" rx="0.936364" ry="1" fill="#404145"/>
<ellipse cx="44.0727" cy="4" rx="0.936364" ry="1" fill="#404145"/>
<ellipse cx="37.5182" cy="6" rx="0.936364" ry="1" fill="#404145"/>
<ellipse cx="31.9" cy="8" rx="0.936364" ry="1" fill="#404145"/>
<ellipse cx="26.2818" cy="10" rx="0.936364" ry="1" fill="#404145"/>
<ellipse cx="20.6636" cy="12" rx="0.936364" ry="1" fill="#404145"/>
<ellipse cx="15.0454" cy="13" rx="0.936364" ry="1" fill="#404145"/>
<ellipse cx="100.255" cy="16" rx="0.936364" ry="1" fill="#404145"/>
<ellipse cx="100.255" cy="26" rx="0.936364" ry="1" fill="#404145"/>
<ellipse cx="100.255" cy="36" rx="0.936364" ry="1" fill="#404145"/>
<ellipse cx="100.255" cy="46" rx="0.936364" ry="1" fill="#404145"/>
<ellipse cx="100.255" cy="56" rx="0.936364" ry="1" fill="#404145"/>
<ellipse cx="100.255" cy="21" rx="0.936364" ry="1" fill="#404145"/>
<ellipse cx="100.255" cy="31" rx="0.936364" ry="1" fill="#404145"/>
<ellipse cx="100.255" cy="41" rx="0.936364" ry="1" fill="#404145"/>
<ellipse cx="100.255" cy="51" rx="0.936364" ry="1" fill="#404145"/>
<ellipse cx="100.255" cy="61" rx="0.936364" ry="1" fill="#404145"/>
<ellipse cx="4.74546" cy="60" rx="0.936364" ry="1" fill="#404145"/>
<path d="M1 63V12.8182C11.1399 12.8182 34.6218 4.63636 34.6218 4.63636C34.6218 4.63636 51.1658 -3.54545 71.4456 4.63638C91.7254 12.8182 104 12.8182 104 12.8182V63H1Z" stroke="#404145" stroke-width="0.5"/>
</svg>
