<svg width="98" height="60" viewBox="0 0 98 60" fill="none" xmlns="http://www.w3.org/2000/svg">
<path d="M1 59V12.0557C10.5 12.0557 32.5 4.40176 32.5 4.40176C32.5 4.40176 48 -3.2522 67 4.40177C86 12.0557 97.5 12.0557 97.5 12.0557V59H1Z" stroke="#404145" stroke-width="0.5"/>
<ellipse cx="2.40534" cy="51.9839" rx="0.468447" ry="0.467742" fill="#404145"/>
<ellipse cx="96.0947" cy="51.9839" rx="0.468447" ry="0.467742" fill="#404145"/>
<ellipse cx="2.40534" cy="44.5" rx="0.468447" ry="0.467742" fill="#404145"/>
<ellipse cx="96.0947" cy="44.5" rx="0.468447" ry="0.467742" fill="#404145"/>
<ellipse cx="2.40534" cy="37.0161" rx="0.468447" ry="0.467742" fill="#404145"/>
<ellipse cx="96.0947" cy="37.0161" rx="0.468447" ry="0.467742" fill="#404145"/>
<ellipse cx="2.40534" cy="29.5323" rx="0.468447" ry="0.467742" fill="#404145"/>
<ellipse cx="96.0947" cy="29.5323" rx="0.468447" ry="0.467742" fill="#404145"/>
<ellipse cx="2.40534" cy="22.0484" rx="0.468447" ry="0.467742" fill="#404145"/>
<ellipse cx="96.0947" cy="22.0484" rx="0.468447" ry="0.467742" fill="#404145"/>
<ellipse cx="2.40534" cy="14.5645" rx="0.468447" ry="0.467742" fill="#404145"/>
<ellipse cx="96.0947" cy="14.5645" rx="0.468447" ry="0.467742" fill="#404145"/>
<ellipse cx="2.40534" cy="51.0484" rx="0.468447" ry="0.467742" fill="#404145"/>
<ellipse cx="96.0947" cy="51.0484" rx="0.468447" ry="0.467742" fill="#404145"/>
<ellipse cx="2.40534" cy="43.5645" rx="0.468447" ry="0.467742" fill="#404145"/>
<ellipse cx="96.0947" cy="43.5645" rx="0.468447" ry="0.467742" fill="#404145"/>
<ellipse cx="2.40534" cy="36.0806" rx="0.468447" ry="0.467742" fill="#404145"/>
<ellipse cx="96.0947" cy="36.0806" rx="0.468447" ry="0.467742" fill="#404145"/>
<ellipse cx="2.40534" cy="28.5968" rx="0.468447" ry="0.467742" fill="#404145"/>
<ellipse cx="96.0947" cy="28.5968" rx="0.468447" ry="0.467742" fill="#404145"/>
<ellipse cx="2.40534" cy="21.1129" rx="0.468447" ry="0.467742" fill="#404145"/>
<ellipse cx="96.0947" cy="21.1129" rx="0.468447" ry="0.467742" fill="#404145"/>
<ellipse cx="2.40534" cy="13.629" rx="0.468447" ry="0.467742" fill="#404145"/>
<ellipse cx="96.0947" cy="13.629" rx="0.468447" ry="0.467742" fill="#404145"/>
<ellipse cx="95.1578" cy="13.4887" rx="0.468447" ry="0.467742" fill="#404145"/>
<ellipse cx="94.2209" cy="13.3952" rx="0.468447" ry="0.467742" fill="#404145"/>
<ellipse cx="93.284" cy="13.1613" rx="0.468447" ry="0.467742" fill="#404145"/>
<ellipse cx="92.3471" cy="13.0677" rx="0.468447" ry="0.467742" fill="#404145"/>
<ellipse cx="91.4102" cy="12.9742" rx="0.468447" ry="0.467742" fill="#404145"/>
<ellipse cx="90.4733" cy="12.8806" rx="0.468447" ry="0.467742" fill="#404145"/>
<ellipse cx="89.5364" cy="12.7871" rx="0.468447" ry="0.467742" fill="#404145"/>
<ellipse cx="88.5995" cy="12.6" rx="0.468447" ry="0.467742" fill="#404145"/>
<ellipse cx="87.6626" cy="12.4129" rx="0.468447" ry="0.467742" fill="#404145"/>
<ellipse cx="86.7257" cy="12.2258" rx="0.468447" ry="0.467742" fill="#404145"/>
<ellipse cx="85.7888" cy="12.0387" rx="0.468447" ry="0.467742" fill="#404145"/>
<ellipse cx="84.8519" cy="11.8516" rx="0.468447" ry="0.467742" fill="#404145"/>
<ellipse cx="83.915" cy="11.6645" rx="0.468447" ry="0.467742" fill="#404145"/>
<ellipse cx="82.9782" cy="11.4774" rx="0.468447" ry="0.467742" fill="#404145"/>
<ellipse cx="82.0412" cy="11.1968" rx="0.468447" ry="0.467742" fill="#404145"/>
<ellipse cx="81.1044" cy="10.9161" rx="0.468447" ry="0.467742" fill="#404145"/>
<ellipse cx="80.1675" cy="10.6355" rx="0.468447" ry="0.467742" fill="#404145"/>
<ellipse cx="79.2306" cy="10.3548" rx="0.468447" ry="0.467742" fill="#404145"/>
<ellipse cx="78.2937" cy="10.0742" rx="0.468447" ry="0.467742" fill="#404145"/>
<ellipse cx="77.3568" cy="9.7" rx="0.468447" ry="0.467742" fill="#404145"/>
<ellipse cx="76.4199" cy="9.41936" rx="0.468447" ry="0.467742" fill="#404145"/>
<ellipse cx="75.483" cy="9.13871" rx="0.468447" ry="0.467742" fill="#404145"/>
<ellipse cx="74.5461" cy="8.76452" rx="0.468447" ry="0.467742" fill="#404145"/>
<ellipse cx="73.6092" cy="8.29677" rx="0.468447" ry="0.467742" fill="#404145"/>
<ellipse cx="72.6723" cy="8.01613" rx="0.468447" ry="0.467742" fill="#404145"/>
<ellipse cx="71.7354" cy="7.73548" rx="0.468447" ry="0.467742" fill="#404145"/>
<ellipse cx="70.7985" cy="7.26774" rx="0.468447" ry="0.467742" fill="#404145"/>
<ellipse cx="69.8616" cy="6.89355" rx="0.468447" ry="0.467742" fill="#404145"/>
<ellipse cx="68.9248" cy="6.51935" rx="0.468447" ry="0.467742" fill="#404145"/>
<ellipse cx="67.9879" cy="6.14516" rx="0.468447" ry="0.467742" fill="#404145"/>
<ellipse cx="67.051" cy="5.77097" rx="0.468447" ry="0.467742" fill="#404145"/>
<ellipse cx="66.1141" cy="5.39677" rx="0.468447" ry="0.467742" fill="#404145"/>
<ellipse cx="65.1772" cy="5.02258" rx="0.468447" ry="0.467742" fill="#404145"/>
<ellipse cx="64.2403" cy="4.64838" rx="0.468447" ry="0.467742" fill="#404145"/>
<ellipse cx="63.3034" cy="4.36775" rx="0.468447" ry="0.467742" fill="#404145"/>
<ellipse cx="62.3665" cy="4.18063" rx="0.468447" ry="0.467742" fill="#404145"/>
<ellipse cx="61.4296" cy="3.90001" rx="0.468447" ry="0.467742" fill="#404145"/>
<ellipse cx="60.4927" cy="3.61935" rx="0.468447" ry="0.467742" fill="#404145"/>
<ellipse cx="59.5558" cy="3.33871" rx="0.468447" ry="0.467742" fill="#404145"/>
<ellipse cx="58.6189" cy="3.15161" rx="0.468447" ry="0.467742" fill="#404145"/>
<ellipse cx="57.682" cy="3.05806" rx="0.468447" ry="0.467742" fill="#404145"/>
<ellipse cx="56.7451" cy="2.87097" rx="0.468447" ry="0.467742" fill="#404145"/>
<ellipse cx="55.8083" cy="2.77742" rx="0.468447" ry="0.467742" fill="#404145"/>
<ellipse cx="54.8714" cy="2.68387" rx="0.468447" ry="0.467742" fill="#404145"/>
<ellipse cx="53.9345" cy="2.59032" rx="0.468447" ry="0.467742" fill="#404145"/>
<ellipse cx="52.9976" cy="2.49678" rx="0.468447" ry="0.467742" fill="#404145"/>
<ellipse cx="52.0607" cy="2.40323" rx="0.468447" ry="0.467742" fill="#404145"/>
<ellipse cx="51.1238" cy="2.40323" rx="0.468447" ry="0.467742" fill="#404145"/>
<ellipse cx="50.1869" cy="2.40323" rx="0.468447" ry="0.467742" fill="#404145"/>
<ellipse cx="49.25" cy="2.40323" rx="0.468447" ry="0.467742" fill="#404145"/>
<ellipse cx="48.3131" cy="2.40323" rx="0.468447" ry="0.467742" fill="#404145"/>
<ellipse cx="47.3762" cy="2.40323" rx="0.468447" ry="0.467742" fill="#404145"/>
<ellipse cx="46.4393" cy="2.40323" rx="0.468447" ry="0.467742" fill="#404145"/>
<ellipse cx="45.5024" cy="2.40323" rx="0.468447" ry="0.467742" fill="#404145"/>
<ellipse cx="44.5655" cy="2.49678" rx="0.468447" ry="0.467742" fill="#404145"/>
<ellipse cx="43.6286" cy="2.68387" rx="0.468447" ry="0.467742" fill="#404145"/>
<ellipse cx="42.6917" cy="2.87097" rx="0.468447" ry="0.467742" fill="#404145"/>
<ellipse cx="41.7548" cy="3.05806" rx="0.468447" ry="0.467742" fill="#404145"/>
<ellipse cx="40.818" cy="3.24516" rx="0.468447" ry="0.467742" fill="#404145"/>
<ellipse cx="39.8811" cy="3.43227" rx="0.468447" ry="0.467742" fill="#404145"/>
<ellipse cx="38.9442" cy="3.61935" rx="0.468447" ry="0.467742" fill="#404145"/>
<ellipse cx="38.0073" cy="3.90001" rx="0.468447" ry="0.467742" fill="#404145"/>
<ellipse cx="37.0704" cy="4.18063" rx="0.468447" ry="0.467742" fill="#404145"/>
<ellipse cx="36.1335" cy="4.46129" rx="0.468447" ry="0.467742" fill="#404145"/>
<ellipse cx="35.1966" cy="4.74193" rx="0.468447" ry="0.467742" fill="#404145"/>
<ellipse cx="34.2597" cy="5.20968" rx="0.468447" ry="0.467742" fill="#404145"/>
<ellipse cx="33.3228" cy="5.67742" rx="0.468447" ry="0.467742" fill="#404145"/>
<ellipse cx="32.3859" cy="6.0516" rx="0.468447" ry="0.467742" fill="#404145"/>
<ellipse cx="31.449" cy="6.42581" rx="0.468447" ry="0.467742" fill="#404145"/>
<ellipse cx="30.5121" cy="6.79999" rx="0.468447" ry="0.467742" fill="#404145"/>
<ellipse cx="29.5752" cy="7.1742" rx="0.468447" ry="0.467742" fill="#404145"/>
<ellipse cx="28.6384" cy="7.54838" rx="0.468447" ry="0.467742" fill="#404145"/>
<ellipse cx="27.7015" cy="7.82903" rx="0.468447" ry="0.467742" fill="#404145"/>
<ellipse cx="26.7646" cy="8.10968" rx="0.468447" ry="0.467742" fill="#404145"/>
<ellipse cx="25.8277" cy="8.39032" rx="0.468447" ry="0.467742" fill="#404145"/>
<ellipse cx="24.8908" cy="8.67097" rx="0.468447" ry="0.467742" fill="#404145"/>
<ellipse cx="23.9539" cy="8.95161" rx="0.468447" ry="0.467742" fill="#404145"/>
<ellipse cx="23.017" cy="9.3258" rx="0.468447" ry="0.467742" fill="#404145"/>
<ellipse cx="22.0801" cy="9.60645" rx="0.468447" ry="0.467742" fill="#404145"/>
<ellipse cx="21.1432" cy="9.8871" rx="0.468447" ry="0.467742" fill="#404145"/>
<ellipse cx="20.2063" cy="10.1677" rx="0.468447" ry="0.467742" fill="#404145"/>
<ellipse cx="19.2694" cy="10.5419" rx="0.468447" ry="0.467742" fill="#404145"/>
<ellipse cx="18.3325" cy="10.8226" rx="0.468447" ry="0.467742" fill="#404145"/>
<ellipse cx="17.3956" cy="11.1032" rx="0.468447" ry="0.467742" fill="#404145"/>
<ellipse cx="16.4587" cy="11.3839" rx="0.468447" ry="0.467742" fill="#404145"/>
<ellipse cx="15.5218" cy="11.6645" rx="0.468447" ry="0.467742" fill="#404145"/>
<ellipse cx="14.585" cy="11.8516" rx="0.468447" ry="0.467742" fill="#404145"/>
<ellipse cx="13.6481" cy="12.0387" rx="0.468447" ry="0.467742" fill="#404145"/>
<ellipse cx="12.7112" cy="12.2258" rx="0.468447" ry="0.467742" fill="#404145"/>
<ellipse cx="11.7743" cy="12.4129" rx="0.468447" ry="0.467742" fill="#404145"/>
<ellipse cx="3.34223" cy="13.5355" rx="0.468447" ry="0.467742" fill="#404145"/>
<ellipse cx="4.27913" cy="13.4419" rx="0.468447" ry="0.467742" fill="#404145"/>
<ellipse cx="5.21602" cy="13.3484" rx="0.468447" ry="0.467742" fill="#404145"/>
<ellipse cx="6.15291" cy="13.2549" rx="0.468447" ry="0.467742" fill="#404145"/>
<ellipse cx="7.08981" cy="13.1613" rx="0.468447" ry="0.467742" fill="#404145"/>
<ellipse cx="8.0267" cy="13.0677" rx="0.468447" ry="0.467742" fill="#404145"/>
<ellipse cx="8.96359" cy="12.9742" rx="0.468447" ry="0.467742" fill="#404145"/>
<ellipse cx="9.90049" cy="12.7871" rx="0.468447" ry="0.467742" fill="#404145"/>
<ellipse cx="10.8374" cy="12.6" rx="0.468447" ry="0.467742" fill="#404145"/>
<ellipse cx="2.40534" cy="49.1774" rx="0.468447" ry="0.467742" fill="#404145"/>
<ellipse cx="96.0947" cy="49.1774" rx="0.468447" ry="0.467742" fill="#404145"/>
<ellipse cx="2.40534" cy="41.6936" rx="0.468447" ry="0.467742" fill="#404145"/>
<ellipse cx="96.0947" cy="41.6936" rx="0.468447" ry="0.467742" fill="#404145"/>
<ellipse cx="2.40534" cy="34.2097" rx="0.468447" ry="0.467742" fill="#404145"/>
<ellipse cx="96.0947" cy="34.2097" rx="0.468447" ry="0.467742" fill="#404145"/>
<ellipse cx="2.40534" cy="26.7258" rx="0.468447" ry="0.467742" fill="#404145"/>
<ellipse cx="96.0947" cy="26.7258" rx="0.468447" ry="0.467742" fill="#404145"/>
<ellipse cx="2.40534" cy="19.2419" rx="0.468447" ry="0.467742" fill="#404145"/>
<ellipse cx="96.0947" cy="19.2419" rx="0.468447" ry="0.467742" fill="#404145"/>
<ellipse cx="2.40534" cy="56.6613" rx="0.468447" ry="0.467742" fill="#404145"/>
<ellipse cx="96.0947" cy="56.6613" rx="0.468447" ry="0.467742" fill="#404145"/>
<ellipse cx="2.40534" cy="49.1774" rx="0.468447" ry="0.467742" fill="#404145"/>
<ellipse cx="96.0947" cy="49.1774" rx="0.468447" ry="0.467742" fill="#404145"/>
<ellipse cx="2.40534" cy="41.6936" rx="0.468447" ry="0.467742" fill="#404145"/>
<ellipse cx="96.0947" cy="41.6936" rx="0.468447" ry="0.467742" fill="#404145"/>
<ellipse cx="2.40534" cy="34.2097" rx="0.468447" ry="0.467742" fill="#404145"/>
<ellipse cx="96.0947" cy="34.2097" rx="0.468447" ry="0.467742" fill="#404145"/>
<ellipse cx="2.40534" cy="26.7258" rx="0.468447" ry="0.467742" fill="#404145"/>
<ellipse cx="96.0947" cy="26.7258" rx="0.468447" ry="0.467742" fill="#404145"/>
<ellipse cx="2.40534" cy="19.2419" rx="0.468447" ry="0.467742" fill="#404145"/>
<ellipse cx="96.0947" cy="19.2419" rx="0.468447" ry="0.467742" fill="#404145"/>
<ellipse cx="2.40534" cy="55.7258" rx="0.468447" ry="0.467742" fill="#404145"/>
<ellipse cx="96.0947" cy="55.7258" rx="0.468447" ry="0.467742" fill="#404145"/>
<ellipse cx="2.40534" cy="48.2419" rx="0.468447" ry="0.467742" fill="#404145"/>
<ellipse cx="96.0947" cy="48.2419" rx="0.468447" ry="0.467742" fill="#404145"/>
<ellipse cx="2.40534" cy="40.7581" rx="0.468447" ry="0.467742" fill="#404145"/>
<ellipse cx="96.0947" cy="40.7581" rx="0.468447" ry="0.467742" fill="#404145"/>
<ellipse cx="2.40534" cy="33.2742" rx="0.468447" ry="0.467742" fill="#404145"/>
<ellipse cx="96.0947" cy="33.2742" rx="0.468447" ry="0.467742" fill="#404145"/>
<ellipse cx="2.40534" cy="25.7903" rx="0.468447" ry="0.467742" fill="#404145"/>
<ellipse cx="96.0947" cy="25.7903" rx="0.468447" ry="0.467742" fill="#404145"/>
<ellipse cx="2.40534" cy="18.3064" rx="0.468447" ry="0.467742" fill="#404145"/>
<ellipse cx="96.0947" cy="18.3064" rx="0.468447" ry="0.467742" fill="#404145"/>
<ellipse cx="2.40534" cy="54.7903" rx="0.468447" ry="0.467742" fill="#404145"/>
<ellipse cx="96.0947" cy="54.7903" rx="0.468447" ry="0.467742" fill="#404145"/>
<ellipse cx="2.40534" cy="47.3065" rx="0.468447" ry="0.467742" fill="#404145"/>
<ellipse cx="96.0947" cy="47.3065" rx="0.468447" ry="0.467742" fill="#404145"/>
<ellipse cx="2.40534" cy="39.8226" rx="0.468447" ry="0.467742" fill="#404145"/>
<ellipse cx="96.0947" cy="39.8226" rx="0.468447" ry="0.467742" fill="#404145"/>
<ellipse cx="2.40534" cy="32.3387" rx="0.468447" ry="0.467742" fill="#404145"/>
<ellipse cx="96.0947" cy="32.3387" rx="0.468447" ry="0.467742" fill="#404145"/>
<ellipse cx="2.40534" cy="24.8548" rx="0.468447" ry="0.467742" fill="#404145"/>
<ellipse cx="96.0947" cy="24.8548" rx="0.468447" ry="0.467742" fill="#404145"/>
<ellipse cx="2.40534" cy="17.371" rx="0.468447" ry="0.467742" fill="#404145"/>
<ellipse cx="96.0947" cy="17.371" rx="0.468447" ry="0.467742" fill="#404145"/>
<ellipse cx="2.40534" cy="53.8548" rx="0.468447" ry="0.467742" fill="#404145"/>
<ellipse cx="96.0947" cy="53.8548" rx="0.468447" ry="0.467742" fill="#404145"/>
<ellipse cx="2.40534" cy="46.371" rx="0.468447" ry="0.467742" fill="#404145"/>
<ellipse cx="96.0947" cy="46.371" rx="0.468447" ry="0.467742" fill="#404145"/>
<ellipse cx="2.40534" cy="38.8871" rx="0.468447" ry="0.467742" fill="#404145"/>
<ellipse cx="96.0947" cy="38.8871" rx="0.468447" ry="0.467742" fill="#404145"/>
<ellipse cx="2.40534" cy="31.4032" rx="0.468447" ry="0.467742" fill="#404145"/>
<ellipse cx="96.0947" cy="31.4032" rx="0.468447" ry="0.467742" fill="#404145"/>
<ellipse cx="2.40534" cy="23.9194" rx="0.468447" ry="0.467742" fill="#404145"/>
<ellipse cx="96.0947" cy="23.9194" rx="0.468447" ry="0.467742" fill="#404145"/>
<ellipse cx="2.40534" cy="16.4355" rx="0.468447" ry="0.467742" fill="#404145"/>
<ellipse cx="96.0947" cy="16.4355" rx="0.468447" ry="0.467742" fill="#404145"/>
<ellipse cx="2.40534" cy="52.9194" rx="0.468447" ry="0.467742" fill="#404145"/>
<ellipse cx="96.0947" cy="52.9194" rx="0.468447" ry="0.467742" fill="#404145"/>
<ellipse cx="2.40534" cy="45.4355" rx="0.468447" ry="0.467742" fill="#404145"/>
<ellipse cx="96.0947" cy="45.4355" rx="0.468447" ry="0.467742" fill="#404145"/>
<ellipse cx="2.40534" cy="37.9516" rx="0.468447" ry="0.467742" fill="#404145"/>
<ellipse cx="96.0947" cy="37.9516" rx="0.468447" ry="0.467742" fill="#404145"/>
<ellipse cx="2.40534" cy="30.4677" rx="0.468447" ry="0.467742" fill="#404145"/>
<ellipse cx="96.0947" cy="30.4677" rx="0.468447" ry="0.467742" fill="#404145"/>
<ellipse cx="2.40534" cy="22.9839" rx="0.468447" ry="0.467742" fill="#404145"/>
<ellipse cx="96.0947" cy="22.9839" rx="0.468447" ry="0.467742" fill="#404145"/>
<ellipse cx="2.40534" cy="15.5" rx="0.468447" ry="0.467742" fill="#404145"/>
<ellipse cx="96.0947" cy="15.5" rx="0.468447" ry="0.467742" fill="#404145"/>
<ellipse cx="2.40534" cy="50.1129" rx="0.468447" ry="0.467742" fill="#404145"/>
<ellipse cx="96.0947" cy="50.1129" rx="0.468447" ry="0.467742" fill="#404145"/>
<ellipse cx="2.40534" cy="42.629" rx="0.468447" ry="0.467742" fill="#404145"/>
<ellipse cx="96.0947" cy="42.629" rx="0.468447" ry="0.467742" fill="#404145"/>
<ellipse cx="2.40534" cy="35.1452" rx="0.468447" ry="0.467742" fill="#404145"/>
<ellipse cx="96.0947" cy="35.1452" rx="0.468447" ry="0.467742" fill="#404145"/>
<ellipse cx="2.40534" cy="27.6613" rx="0.468447" ry="0.467742" fill="#404145"/>
<ellipse cx="96.0947" cy="27.6613" rx="0.468447" ry="0.467742" fill="#404145"/>
<ellipse cx="2.40534" cy="20.1774" rx="0.468447" ry="0.467742" fill="#404145"/>
<ellipse cx="96.0947" cy="20.1774" rx="0.468447" ry="0.467742" fill="#404145"/>
</svg>
