<svg width="110" height="63" viewBox="0 0 110 63" fill="none" xmlns="http://www.w3.org/2000/svg">
<path d="M0.25 62.75V13.1602C32.1356 -3.6451 78.8732 -4.45496 109.75 13.1546V62.75H0.25Z" fill="white" stroke="#404145" stroke-width="0.5"/>
<ellipse cx="107.5" cy="14.3475" rx="0.5" ry="0.533898" fill="#404145"/>
<ellipse rx="0.5" ry="0.533898" transform="matrix(-1 0 0 1 7 12.5322)" fill="#404145"/>
<ellipse rx="0.5" ry="0.533898" transform="matrix(-1 0 0 1 7 12.5322)" fill="#404145"/>
<ellipse rx="0.5" ry="0.533898" transform="matrix(-1 0 0 1 7 15.7847)" fill="#404145"/>
<ellipse cx="106" cy="13.3864" rx="0.5" ry="0.533898" fill="#404145"/>
<ellipse rx="0.5" ry="0.533898" transform="matrix(-1 0 0 1 8.5 11.8915)" fill="#404145"/>
<ellipse rx="0.5" ry="0.533898" transform="matrix(-1 0 0 1 8.5 11.8915)" fill="#404145"/>
<ellipse rx="0.5" ry="0.533898" transform="matrix(-1 0 0 1 8.5 15.1441)" fill="#404145"/>
<ellipse cx="104.5" cy="12.5322" rx="0.5" ry="0.533898" fill="#404145"/>
<ellipse cx="104.5" cy="12.5322" rx="0.5" ry="0.533898" fill="#404145"/>
<ellipse cx="104.5" cy="15.7847" rx="0.5" ry="0.533898" fill="#404145"/>
<ellipse rx="0.5" ry="0.533898" transform="matrix(-1 0 0 1 5.5 13.1729)" fill="#404145"/>
<ellipse rx="0.5" ry="0.533898" transform="matrix(-1 0 0 1 5.5 13.1729)" fill="#404145"/>
<ellipse rx="0.5" ry="0.533898" transform="matrix(-1 0 0 1 5.5 16.4254)" fill="#404145"/>
<ellipse rx="0.5" ry="0.533898" transform="matrix(-1 0 0 1 3.5 13.9203)" fill="#404145"/>
<ellipse cx="103" cy="11.8915" rx="0.5" ry="0.533898" fill="#404145"/>
<ellipse cx="103" cy="11.8915" rx="0.5" ry="0.533898" fill="#404145"/>
<ellipse cx="103" cy="15.1441" rx="0.5" ry="0.533898" fill="#404145"/>
<ellipse rx="0.5" ry="0.533898" transform="matrix(-1 0 0 1 10 11.2508)" fill="#404145"/>
<ellipse rx="0.5" ry="0.533898" transform="matrix(-1 0 0 1 10 11.2508)" fill="#404145"/>
<ellipse rx="0.5" ry="0.533898" transform="matrix(-1 0 0 1 10 14.5034)" fill="#404145"/>
<ellipse cx="101.5" cy="11.2508" rx="0.5" ry="0.533898" fill="#404145"/>
<ellipse cx="101.5" cy="11.2508" rx="0.5" ry="0.533898" fill="#404145"/>
<ellipse cx="101.5" cy="14.5034" rx="0.5" ry="0.533898" fill="#404145"/>
<ellipse cx="100" cy="10.6102" rx="0.5" ry="0.533898" fill="#404145"/>
<ellipse cx="100" cy="10.6102" rx="0.5" ry="0.533898" fill="#404145"/>
<ellipse cx="100" cy="13.8627" rx="0.5" ry="0.533898" fill="#404145"/>
<ellipse cx="98.5" cy="9.96948" rx="0.5" ry="0.533898" fill="#404145"/>
<ellipse cx="98.5" cy="9.96948" rx="0.5" ry="0.533898" fill="#404145"/>
<ellipse cx="98.5" cy="13.222" rx="0.5" ry="0.533898" fill="#404145"/>
<ellipse rx="0.5" ry="0.533898" transform="matrix(-1 0 0 1 11.5 10.7169)" fill="#404145"/>
<ellipse rx="0.5" ry="0.533898" transform="matrix(-1 0 0 1 11.5 10.7169)" fill="#404145"/>
<ellipse rx="0.5" ry="0.533898" transform="matrix(-1 0 0 1 11.5 13.9695)" fill="#404145"/>
<ellipse cx="97" cy="9.43557" rx="0.5" ry="0.533898" fill="#404145"/>
<ellipse cx="97" cy="9.43557" rx="0.5" ry="0.533898" fill="#404145"/>
<ellipse cx="97" cy="12.6881" rx="0.5" ry="0.533898" fill="#404145"/>
<ellipse rx="0.5" ry="0.533898" transform="matrix(-1 0 0 1 13 10.0763)" fill="#404145"/>
<ellipse rx="0.5" ry="0.533898" transform="matrix(-1 0 0 1 13 10.0763)" fill="#404145"/>
<ellipse rx="0.5" ry="0.533898" transform="matrix(-1 0 0 1 13 13.3288)" fill="#404145"/>
<ellipse cx="95.5" cy="8.9017" rx="0.5" ry="0.533898" fill="#404145"/>
<ellipse cx="95.5" cy="8.9017" rx="0.5" ry="0.533898" fill="#404145"/>
<ellipse cx="95.5" cy="12.1542" rx="0.5" ry="0.533898" fill="#404145"/>
<ellipse rx="0.5" ry="0.533898" transform="matrix(-1 0 0 1 14.5 9.54238)" fill="#404145"/>
<ellipse rx="0.5" ry="0.533898" transform="matrix(-1 0 0 1 14.5 9.54238)" fill="#404145"/>
<ellipse rx="0.5" ry="0.533898" transform="matrix(-1 0 0 1 14.5 12.7949)" fill="#404145"/>
<ellipse cx="94" cy="8.36779" rx="0.5" ry="0.533898" fill="#404145"/>
<ellipse cx="94" cy="8.36779" rx="0.5" ry="0.533898" fill="#404145"/>
<ellipse cx="94" cy="11.6203" rx="0.5" ry="0.533898" fill="#404145"/>
<ellipse rx="0.5" ry="0.533898" transform="matrix(-1 0 0 1 17.5 8.47457)" fill="#404145"/>
<ellipse rx="0.5" ry="0.533898" transform="matrix(-1 0 0 1 17.5 8.47457)" fill="#404145"/>
<ellipse rx="0.5" ry="0.533898" transform="matrix(-1 0 0 1 17.5 11.7271)" fill="#404145"/>
<ellipse rx="0.5" ry="0.533898" transform="matrix(-1 0 0 1 16 9.00848)" fill="#404145"/>
<ellipse rx="0.5" ry="0.533898" transform="matrix(-1 0 0 1 16 9.00848)" fill="#404145"/>
<ellipse rx="0.5" ry="0.533898" transform="matrix(-1 0 0 1 16 12.261)" fill="#404145"/>
<ellipse cx="92.5" cy="7.83389" rx="0.5" ry="0.533898" fill="#404145"/>
<ellipse cx="92.5" cy="7.83389" rx="0.5" ry="0.533898" fill="#404145"/>
<ellipse cx="92.5" cy="11.0864" rx="0.5" ry="0.533898" fill="#404145"/>
<ellipse rx="0.5" ry="0.533898" transform="matrix(-1 0 0 1 19 8.04745)" fill="#404145"/>
<ellipse rx="0.5" ry="0.533898" transform="matrix(-1 0 0 1 19 8.04745)" fill="#404145"/>
<ellipse rx="0.5" ry="0.533898" transform="matrix(-1 0 0 1 19 11.3)" fill="#404145"/>
<ellipse cx="91" cy="7.40679" rx="0.5" ry="0.533898" fill="#404145"/>
<ellipse cx="91" cy="7.40679" rx="0.5" ry="0.533898" fill="#404145"/>
<ellipse cx="91" cy="10.6593" rx="0.5" ry="0.533898" fill="#404145"/>
<ellipse rx="0.5" ry="0.533898" transform="matrix(-1 0 0 1 20.5 7.62032)" fill="#404145"/>
<ellipse rx="0.5" ry="0.533898" transform="matrix(-1 0 0 1 20.5 7.62032)" fill="#404145"/>
<ellipse rx="0.5" ry="0.533898" transform="matrix(-1 0 0 1 20.5 10.8729)" fill="#404145"/>
<ellipse cx="89.5" cy="6.87289" rx="0.5" ry="0.533898" fill="#404145"/>
<ellipse cx="89.5" cy="6.87289" rx="0.5" ry="0.533898" fill="#404145"/>
<ellipse cx="89.5" cy="10.1254" rx="0.5" ry="0.533898" fill="#404145"/>
<ellipse rx="0.5" ry="0.533898" transform="matrix(-1 0 0 1 22 7.19323)" fill="#404145"/>
<ellipse rx="0.5" ry="0.533898" transform="matrix(-1 0 0 1 22 7.19323)" fill="#404145"/>
<ellipse rx="0.5" ry="0.533898" transform="matrix(-1 0 0 1 22 10.4458)" fill="#404145"/>
<ellipse cx="88" cy="6.44576" rx="0.5" ry="0.533898" fill="#404145"/>
<ellipse cx="88" cy="6.44576" rx="0.5" ry="0.533898" fill="#404145"/>
<ellipse cx="88" cy="9.6983" rx="0.5" ry="0.533898" fill="#404145"/>
<ellipse rx="0.5" ry="0.533898" transform="matrix(-1 0 0 1 23.5 6.87289)" fill="#404145"/>
<ellipse rx="0.5" ry="0.533898" transform="matrix(-1 0 0 1 23.5 6.87289)" fill="#404145"/>
<ellipse rx="0.5" ry="0.533898" transform="matrix(-1 0 0 1 23.5 10.1254)" fill="#404145"/>
<ellipse cx="86.5" cy="6.01864" rx="0.5" ry="0.533898" fill="#404145"/>
<ellipse cx="86.5" cy="6.01864" rx="0.5" ry="0.533898" fill="#404145"/>
<ellipse cx="86.5" cy="9.27117" rx="0.5" ry="0.533898" fill="#404145"/>
<ellipse rx="0.5" ry="0.533898" transform="matrix(-1 0 0 1 25 6.44576)" fill="#404145"/>
<ellipse rx="0.5" ry="0.533898" transform="matrix(-1 0 0 1 25 6.44576)" fill="#404145"/>
<ellipse rx="0.5" ry="0.533898" transform="matrix(-1 0 0 1 25 9.6983)" fill="#404145"/>
<ellipse cx="85" cy="5.6983" rx="0.5" ry="0.533898" fill="#404145"/>
<ellipse cx="85" cy="5.6983" rx="0.5" ry="0.533898" fill="#404145"/>
<ellipse cx="85" cy="8.95083" rx="0.5" ry="0.533898" fill="#404145"/>
<ellipse rx="0.5" ry="0.533898" transform="matrix(-1 0 0 1 26.5 6.12542)" fill="#404145"/>
<ellipse rx="0.5" ry="0.533898" transform="matrix(-1 0 0 1 26.5 6.12542)" fill="#404145"/>
<ellipse rx="0.5" ry="0.533898" transform="matrix(-1 0 0 1 26.5 9.37795)" fill="#404145"/>
<ellipse cx="83.5" cy="5.27117" rx="0.5" ry="0.533898" fill="#404145"/>
<ellipse cx="83.5" cy="5.27117" rx="0.5" ry="0.533898" fill="#404145"/>
<ellipse cx="83.5" cy="8.52371" rx="0.5" ry="0.533898" fill="#404145"/>
<ellipse rx="0.5" ry="0.533898" transform="matrix(-1 0 0 1 28 5.80508)" fill="#404145"/>
<ellipse rx="0.5" ry="0.533898" transform="matrix(-1 0 0 1 28 5.80508)" fill="#404145"/>
<ellipse rx="0.5" ry="0.533898" transform="matrix(-1 0 0 1 28 9.05761)" fill="#404145"/>
<ellipse cx="82" cy="4.95083" rx="0.5" ry="0.533898" fill="#404145"/>
<ellipse cx="82" cy="4.95083" rx="0.5" ry="0.533898" fill="#404145"/>
<ellipse cx="82" cy="8.20336" rx="0.5" ry="0.533898" fill="#404145"/>
<ellipse cx="80.5" cy="4.7373" rx="0.5" ry="0.533898" fill="#404145"/>
<ellipse cx="80.5" cy="4.7373" rx="0.5" ry="0.533898" fill="#404145"/>
<ellipse cx="80.5" cy="7.98983" rx="0.5" ry="0.533898" fill="#404145"/>
<ellipse cx="79" cy="4.41695" rx="0.5" ry="0.533898" fill="#404145"/>
<ellipse cx="79" cy="4.41695" rx="0.5" ry="0.533898" fill="#404145"/>
<ellipse cx="79" cy="7.66949" rx="0.5" ry="0.533898" fill="#404145"/>
<ellipse cx="77.5" cy="4.09661" rx="0.5" ry="0.533898" fill="#404145"/>
<ellipse cx="77.5" cy="4.09661" rx="0.5" ry="0.533898" fill="#404145"/>
<ellipse cx="77.5" cy="7.34914" rx="0.5" ry="0.533898" fill="#404145"/>
<ellipse cx="76" cy="3.88305" rx="0.5" ry="0.533898" fill="#404145"/>
<ellipse cx="76" cy="3.88305" rx="0.5" ry="0.533898" fill="#404145"/>
<ellipse cx="76" cy="7.13558" rx="0.5" ry="0.533898" fill="#404145"/>
<ellipse rx="0.5" ry="0.533898" transform="matrix(-1 0 0 1 29.5 5.37795)" fill="#404145"/>
<ellipse rx="0.5" ry="0.533898" transform="matrix(-1 0 0 1 29.5 5.37795)" fill="#404145"/>
<ellipse rx="0.5" ry="0.533898" transform="matrix(-1 0 0 1 29.5 8.63049)" fill="#404145"/>
<ellipse cx="74.5" cy="3.66949" rx="0.5" ry="0.533898" fill="#404145"/>
<ellipse cx="74.5" cy="3.66949" rx="0.5" ry="0.533898" fill="#404145"/>
<ellipse cx="74.5" cy="6.92202" rx="0.5" ry="0.533898" fill="#404145"/>
<ellipse rx="0.5" ry="0.533898" transform="matrix(-1 0 0 1 31 5.05764)" fill="#404145"/>
<ellipse rx="0.5" ry="0.533898" transform="matrix(-1 0 0 1 31 5.05764)" fill="#404145"/>
<ellipse rx="0.5" ry="0.533898" transform="matrix(-1 0 0 1 31 8.31017)" fill="#404145"/>
<ellipse cx="73" cy="3.45593" rx="0.5" ry="0.533898" fill="#404145"/>
<ellipse cx="73" cy="3.45593" rx="0.5" ry="0.533898" fill="#404145"/>
<ellipse cx="73" cy="6.70846" rx="0.5" ry="0.533898" fill="#404145"/>
<ellipse rx="0.5" ry="0.533898" transform="matrix(-1 0 0 1 32.5 4.7373)" fill="#404145"/>
<ellipse rx="0.5" ry="0.533898" transform="matrix(-1 0 0 1 32.5 4.7373)" fill="#404145"/>
<ellipse rx="0.5" ry="0.533898" transform="matrix(-1 0 0 1 32.5 7.98983)" fill="#404145"/>
<ellipse rx="0.5" ry="0.533898" transform="matrix(-1 0 0 1 53.5 2.28137)" fill="#404145"/>
<ellipse rx="0.5" ry="0.533898" transform="matrix(-1 0 0 1 53.5 2.28137)" fill="#404145"/>
<ellipse rx="0.5" ry="0.533898" transform="matrix(-1 0 0 1 53.5 5.5339)" fill="#404145"/>
<ellipse cx="52" cy="2.38815" rx="0.5" ry="0.533898" fill="#404145"/>
<ellipse cx="52" cy="2.38815" rx="0.5" ry="0.533898" fill="#404145"/>
<ellipse cx="52" cy="5.64068" rx="0.5" ry="0.533898" fill="#404145"/>
<ellipse cx="71.5" cy="3.24239" rx="0.5" ry="0.533898" fill="#404145"/>
<ellipse cx="71.5" cy="3.24239" rx="0.5" ry="0.533898" fill="#404145"/>
<ellipse cx="71.5" cy="6.49493" rx="0.5" ry="0.533898" fill="#404145"/>
<ellipse rx="0.5" ry="0.533898" transform="matrix(-1 0 0 1 34 4.52374)" fill="#404145"/>
<ellipse rx="0.5" ry="0.533898" transform="matrix(-1 0 0 1 34 4.52374)" fill="#404145"/>
<ellipse rx="0.5" ry="0.533898" transform="matrix(-1 0 0 1 34 7.77627)" fill="#404145"/>
<ellipse cx="70" cy="3.0288" rx="0.5" ry="0.533898" fill="#404145"/>
<ellipse cx="70" cy="3.0288" rx="0.5" ry="0.533898" fill="#404145"/>
<ellipse cx="70" cy="6.28133" rx="0.5" ry="0.533898" fill="#404145"/>
<ellipse rx="0.5" ry="0.533898" transform="matrix(-1 0 0 1 35.5 4.20339)" fill="#404145"/>
<ellipse rx="0.5" ry="0.533898" transform="matrix(-1 0 0 1 35.5 4.20339)" fill="#404145"/>
<ellipse rx="0.5" ry="0.533898" transform="matrix(-1 0 0 1 35.5 7.45593)" fill="#404145"/>
<ellipse cx="68.5" cy="2.92202" rx="0.5" ry="0.533898" fill="#404145"/>
<ellipse cx="68.5" cy="2.92202" rx="0.5" ry="0.533898" fill="#404145"/>
<ellipse cx="68.5" cy="6.17455" rx="0.5" ry="0.533898" fill="#404145"/>
<ellipse rx="0.5" ry="0.533898" transform="matrix(-1 0 0 1 37 3.88305)" fill="#404145"/>
<ellipse rx="0.5" ry="0.533898" transform="matrix(-1 0 0 1 37 3.88305)" fill="#404145"/>
<ellipse rx="0.5" ry="0.533898" transform="matrix(-1 0 0 1 37 7.13558)" fill="#404145"/>
<ellipse cx="67" cy="2.81527" rx="0.5" ry="0.533898" fill="#404145"/>
<ellipse cx="67" cy="2.81527" rx="0.5" ry="0.533898" fill="#404145"/>
<ellipse cx="67" cy="6.0678" rx="0.5" ry="0.533898" fill="#404145"/>
<ellipse rx="0.5" ry="0.533898" transform="matrix(-1 0 0 1 38.5 3.66949)" fill="#404145"/>
<ellipse rx="0.5" ry="0.533898" transform="matrix(-1 0 0 1 38.5 3.66949)" fill="#404145"/>
<ellipse rx="0.5" ry="0.533898" transform="matrix(-1 0 0 1 38.5 6.92202)" fill="#404145"/>
<ellipse cx="65.5" cy="2.60168" rx="0.5" ry="0.533898" fill="#404145"/>
<ellipse cx="65.5" cy="2.60168" rx="0.5" ry="0.533898" fill="#404145"/>
<ellipse cx="65.5" cy="5.85421" rx="0.5" ry="0.533898" fill="#404145"/>
<ellipse rx="0.5" ry="0.533898" transform="matrix(-1 0 0 1 40 3.45593)" fill="#404145"/>
<ellipse rx="0.5" ry="0.533898" transform="matrix(-1 0 0 1 40 3.45593)" fill="#404145"/>
<ellipse rx="0.5" ry="0.533898" transform="matrix(-1 0 0 1 40 6.70846)" fill="#404145"/>
<ellipse cx="64" cy="2.60171" rx="0.5" ry="0.533898" fill="#404145"/>
<ellipse cx="64" cy="2.60171" rx="0.5" ry="0.533898" fill="#404145"/>
<ellipse cx="64" cy="5.85424" rx="0.5" ry="0.533898" fill="#404145"/>
<ellipse rx="0.5" ry="0.533898" transform="matrix(-1 0 0 1 41.5 3.24239)" fill="#404145"/>
<ellipse rx="0.5" ry="0.533898" transform="matrix(-1 0 0 1 41.5 3.24239)" fill="#404145"/>
<ellipse rx="0.5" ry="0.533898" transform="matrix(-1 0 0 1 41.5 6.49493)" fill="#404145"/>
<ellipse cx="62.5" cy="2.49496" rx="0.5" ry="0.533898" fill="#404145"/>
<ellipse cx="62.5" cy="2.49496" rx="0.5" ry="0.533898" fill="#404145"/>
<ellipse cx="62.5" cy="5.74749" rx="0.5" ry="0.533898" fill="#404145"/>
<ellipse rx="0.5" ry="0.533898" transform="matrix(-1 0 0 1 43 3.13561)" fill="#404145"/>
<ellipse rx="0.5" ry="0.533898" transform="matrix(-1 0 0 1 43 3.13561)" fill="#404145"/>
<ellipse rx="0.5" ry="0.533898" transform="matrix(-1 0 0 1 43 6.38815)" fill="#404145"/>
<ellipse cx="61" cy="2.38818" rx="0.5" ry="0.533898" fill="#404145"/>
<ellipse cx="61" cy="2.38818" rx="0.5" ry="0.533898" fill="#404145"/>
<ellipse cx="61" cy="5.64071" rx="0.5" ry="0.533898" fill="#404145"/>
<ellipse rx="0.5" ry="0.533898" transform="matrix(-1 0 0 1 44.5 3.0288)" fill="#404145"/>
<ellipse rx="0.5" ry="0.533898" transform="matrix(-1 0 0 1 44.5 3.0288)" fill="#404145"/>
<ellipse rx="0.5" ry="0.533898" transform="matrix(-1 0 0 1 44.5 6.28133)" fill="#404145"/>
<ellipse cx="59.5" cy="2.28143" rx="0.5" ry="0.533898" fill="#404145"/>
<ellipse cx="59.5" cy="2.28143" rx="0.5" ry="0.533898" fill="#404145"/>
<ellipse cx="59.5" cy="5.53396" rx="0.5" ry="0.533898" fill="#404145"/>
<ellipse rx="0.5" ry="0.533898" transform="matrix(-1 0 0 1 46 2.81524)" fill="#404145"/>
<ellipse rx="0.5" ry="0.533898" transform="matrix(-1 0 0 1 46 2.81524)" fill="#404145"/>
<ellipse rx="0.5" ry="0.533898" transform="matrix(-1 0 0 1 46 6.06777)" fill="#404145"/>
<ellipse rx="0.5" ry="0.533898" transform="matrix(-1 0 0 1 55 2.28137)" fill="#404145"/>
<ellipse rx="0.5" ry="0.533898" transform="matrix(-1 0 0 1 55 2.28137)" fill="#404145"/>
<ellipse rx="0.5" ry="0.533898" transform="matrix(-1 0 0 1 55 5.5339)" fill="#404145"/>
<ellipse cx="50.5" cy="2.4949" rx="0.5" ry="0.533898" fill="#404145"/>
<ellipse cx="50.5" cy="2.4949" rx="0.5" ry="0.533898" fill="#404145"/>
<ellipse cx="50.5" cy="5.74743" rx="0.5" ry="0.533898" fill="#404145"/>
<ellipse cx="58" cy="2.28137" rx="0.5" ry="0.533898" fill="#404145"/>
<ellipse cx="58" cy="2.28137" rx="0.5" ry="0.533898" fill="#404145"/>
<ellipse cx="58" cy="5.5339" rx="0.5" ry="0.533898" fill="#404145"/>
<ellipse rx="0.5" ry="0.533898" transform="matrix(-1 0 0 1 47.5 2.70849)" fill="#404145"/>
<ellipse rx="0.5" ry="0.533898" transform="matrix(-1 0 0 1 47.5 2.70849)" fill="#404145"/>
<ellipse rx="0.5" ry="0.533898" transform="matrix(-1 0 0 1 47.5 5.96102)" fill="#404145"/>
<ellipse rx="0.5" ry="0.533898" transform="matrix(-1 0 0 1 56.5 2.28137)" fill="#404145"/>
<ellipse rx="0.5" ry="0.533898" transform="matrix(-1 0 0 1 56.5 2.28137)" fill="#404145"/>
<ellipse rx="0.5" ry="0.533898" transform="matrix(-1 0 0 1 56.5 5.5339)" fill="#404145"/>
<ellipse cx="49" cy="2.60168" rx="0.5" ry="0.533898" fill="#404145"/>
<ellipse cx="49" cy="2.60168" rx="0.5" ry="0.533898" fill="#404145"/>
<ellipse cx="49" cy="5.85421" rx="0.5" ry="0.533898" fill="#404145"/>
<ellipse cx="108.5" cy="59.1949" rx="0.5" ry="0.533898" fill="#404145"/>
<ellipse cx="1.5" cy="58.7797" rx="0.5" ry="0.533898" fill="#404145"/>
<ellipse cx="105.5" cy="59.178" rx="0.5" ry="0.533898" fill="#404145"/>
<ellipse cx="4.5" cy="58.178" rx="0.5" ry="0.533898" fill="#404145"/>
<ellipse cx="108.5" cy="51.1865" rx="0.5" ry="0.533898" fill="#404145"/>
<ellipse cx="1.5" cy="50.7712" rx="0.5" ry="0.533898" fill="#404145"/>
<ellipse cx="105.5" cy="51.1695" rx="0.5" ry="0.533898" fill="#404145"/>
<ellipse cx="4.5" cy="50.1695" rx="0.5" ry="0.533898" fill="#404145"/>
<ellipse cx="108.5" cy="43.178" rx="0.5" ry="0.533898" fill="#404145"/>
<ellipse cx="1.5" cy="42.7627" rx="0.5" ry="0.533898" fill="#404145"/>
<ellipse cx="105.5" cy="43.161" rx="0.5" ry="0.533898" fill="#404145"/>
<ellipse cx="4.5" cy="42.161" rx="0.5" ry="0.533898" fill="#404145"/>
<ellipse cx="108.5" cy="35.1695" rx="0.5" ry="0.533898" fill="#404145"/>
<ellipse cx="1.5" cy="34.7542" rx="0.5" ry="0.533898" fill="#404145"/>
<ellipse cx="105.5" cy="35.1525" rx="0.5" ry="0.533898" fill="#404145"/>
<ellipse cx="4.5" cy="34.1525" rx="0.5" ry="0.533898" fill="#404145"/>
<ellipse cx="108.5" cy="27.161" rx="0.5" ry="0.533898" fill="#404145"/>
<ellipse cx="1.5" cy="26.7458" rx="0.5" ry="0.533898" fill="#404145"/>
<ellipse cx="105.5" cy="27.1441" rx="0.5" ry="0.533898" fill="#404145"/>
<ellipse cx="4.5" cy="26.1441" rx="0.5" ry="0.533898" fill="#404145"/>
<ellipse cx="108.5" cy="17.5508" rx="0.5" ry="0.533898" fill="#404145"/>
<ellipse cx="1.5" cy="17.1356" rx="0.5" ry="0.533898" fill="#404145"/>
<ellipse cx="105.5" cy="17.5339" rx="0.5" ry="0.533898" fill="#404145"/>
<ellipse cx="4.5" cy="16.5339" rx="0.5" ry="0.533898" fill="#404145"/>
<ellipse cx="108.5" cy="15.9492" rx="0.5" ry="0.533898" fill="#404145"/>
<ellipse cx="1.5" cy="15.5339" rx="0.5" ry="0.533898" fill="#404145"/>
<ellipse cx="108.5" cy="19.1525" rx="0.5" ry="0.533898" fill="#404145"/>
<ellipse cx="1.5" cy="18.7373" rx="0.5" ry="0.533898" fill="#404145"/>
<ellipse cx="105.5" cy="19.1356" rx="0.5" ry="0.533898" fill="#404145"/>
<ellipse cx="4.5" cy="18.1356" rx="0.5" ry="0.533898" fill="#404145"/>
<ellipse cx="108.5" cy="55.9915" rx="0.5" ry="0.533898" fill="#404145"/>
<ellipse cx="1.5" cy="55.5763" rx="0.5" ry="0.533898" fill="#404145"/>
<ellipse cx="105.5" cy="55.9746" rx="0.5" ry="0.533898" fill="#404145"/>
<ellipse cx="4.5" cy="54.9746" rx="0.5" ry="0.533898" fill="#404145"/>
<ellipse cx="108.5" cy="47.9831" rx="0.5" ry="0.533898" fill="#404145"/>
<ellipse cx="1.5" cy="47.5678" rx="0.5" ry="0.533898" fill="#404145"/>
<ellipse cx="105.5" cy="47.9661" rx="0.5" ry="0.533898" fill="#404145"/>
<ellipse cx="4.5" cy="46.9661" rx="0.5" ry="0.533898" fill="#404145"/>
<ellipse cx="108.5" cy="39.9746" rx="0.5" ry="0.533898" fill="#404145"/>
<ellipse cx="1.5" cy="39.5593" rx="0.5" ry="0.533898" fill="#404145"/>
<ellipse cx="105.5" cy="39.9576" rx="0.5" ry="0.533898" fill="#404145"/>
<ellipse cx="4.5" cy="38.9576" rx="0.5" ry="0.533898" fill="#404145"/>
<ellipse cx="108.5" cy="31.9661" rx="0.5" ry="0.533898" fill="#404145"/>
<ellipse cx="1.5" cy="31.5509" rx="0.5" ry="0.533898" fill="#404145"/>
<ellipse cx="105.5" cy="31.9492" rx="0.5" ry="0.533898" fill="#404145"/>
<ellipse cx="4.5" cy="30.9492" rx="0.5" ry="0.533898" fill="#404145"/>
<ellipse cx="108.5" cy="23.9576" rx="0.5" ry="0.533898" fill="#404145"/>
<ellipse cx="1.5" cy="23.5424" rx="0.5" ry="0.533898" fill="#404145"/>
<ellipse cx="105.5" cy="23.9407" rx="0.5" ry="0.533898" fill="#404145"/>
<ellipse cx="4.5" cy="22.9407" rx="0.5" ry="0.533898" fill="#404145"/>
<ellipse cx="108.5" cy="57.5932" rx="0.5" ry="0.533898" fill="#404145"/>
<ellipse cx="1.5" cy="57.178" rx="0.5" ry="0.533898" fill="#404145"/>
<ellipse cx="105.5" cy="57.5763" rx="0.5" ry="0.533898" fill="#404145"/>
<ellipse cx="4.5" cy="56.5763" rx="0.5" ry="0.533898" fill="#404145"/>
<ellipse cx="108.5" cy="49.5847" rx="0.5" ry="0.533898" fill="#404145"/>
<ellipse cx="1.5" cy="49.1695" rx="0.5" ry="0.533898" fill="#404145"/>
<ellipse cx="105.5" cy="49.5678" rx="0.5" ry="0.533898" fill="#404145"/>
<ellipse cx="4.5" cy="48.5678" rx="0.5" ry="0.533898" fill="#404145"/>
<ellipse cx="108.5" cy="41.5763" rx="0.5" ry="0.533898" fill="#404145"/>
<ellipse cx="1.5" cy="41.161" rx="0.5" ry="0.533898" fill="#404145"/>
<ellipse cx="105.5" cy="41.5593" rx="0.5" ry="0.533898" fill="#404145"/>
<ellipse cx="4.5" cy="40.5593" rx="0.5" ry="0.533898" fill="#404145"/>
<ellipse cx="108.5" cy="33.5678" rx="0.5" ry="0.533898" fill="#404145"/>
<ellipse cx="1.5" cy="33.1525" rx="0.5" ry="0.533898" fill="#404145"/>
<ellipse cx="105.5" cy="33.5509" rx="0.5" ry="0.533898" fill="#404145"/>
<ellipse cx="4.5" cy="32.5509" rx="0.5" ry="0.533898" fill="#404145"/>
<ellipse cx="108.5" cy="25.5593" rx="0.5" ry="0.533898" fill="#404145"/>
<ellipse cx="1.5" cy="25.1441" rx="0.5" ry="0.533898" fill="#404145"/>
<ellipse cx="105.5" cy="25.5424" rx="0.5" ry="0.533898" fill="#404145"/>
<ellipse cx="4.5" cy="24.5424" rx="0.5" ry="0.533898" fill="#404145"/>
<ellipse cx="108.5" cy="54.3898" rx="0.5" ry="0.533898" fill="#404145"/>
<ellipse cx="1.5" cy="53.9746" rx="0.5" ry="0.533898" fill="#404145"/>
<ellipse cx="105.5" cy="54.3729" rx="0.5" ry="0.533898" fill="#404145"/>
<ellipse cx="4.5" cy="53.3729" rx="0.5" ry="0.533898" fill="#404145"/>
<ellipse cx="108.5" cy="46.3813" rx="0.5" ry="0.533898" fill="#404145"/>
<ellipse cx="1.5" cy="45.9661" rx="0.5" ry="0.533898" fill="#404145"/>
<ellipse cx="105.5" cy="46.3644" rx="0.5" ry="0.533898" fill="#404145"/>
<ellipse cx="4.5" cy="45.3644" rx="0.5" ry="0.533898" fill="#404145"/>
<ellipse cx="108.5" cy="38.3729" rx="0.5" ry="0.533898" fill="#404145"/>
<ellipse cx="1.5" cy="37.9576" rx="0.5" ry="0.533898" fill="#404145"/>
<ellipse cx="105.5" cy="38.3559" rx="0.5" ry="0.533898" fill="#404145"/>
<ellipse cx="4.5" cy="37.3559" rx="0.5" ry="0.533898" fill="#404145"/>
<ellipse cx="108.5" cy="30.3644" rx="0.5" ry="0.533898" fill="#404145"/>
<ellipse cx="1.5" cy="29.9492" rx="0.5" ry="0.533898" fill="#404145"/>
<ellipse cx="105.5" cy="30.3475" rx="0.5" ry="0.533898" fill="#404145"/>
<ellipse cx="4.5" cy="29.3475" rx="0.5" ry="0.533898" fill="#404145"/>
<ellipse cx="108.5" cy="22.3559" rx="0.5" ry="0.533898" fill="#404145"/>
<ellipse cx="1.5" cy="21.9407" rx="0.5" ry="0.533898" fill="#404145"/>
<ellipse cx="105.5" cy="22.339" rx="0.5" ry="0.533898" fill="#404145"/>
<ellipse cx="4.5" cy="21.339" rx="0.5" ry="0.533898" fill="#404145"/>
<ellipse cx="108.5" cy="62.3983" rx="0.5" ry="0.533898" fill="#404145"/>
<ellipse cx="1.5" cy="61.9831" rx="0.5" ry="0.533898" fill="#404145"/>
<ellipse cx="105.5" cy="62.3814" rx="0.5" ry="0.533898" fill="#404145"/>
<ellipse cx="4.5" cy="61.3814" rx="0.5" ry="0.533898" fill="#404145"/>
<ellipse cx="108.5" cy="60.7966" rx="0.5" ry="0.533898" fill="#404145"/>
<ellipse cx="1.5" cy="60.3813" rx="0.5" ry="0.533898" fill="#404145"/>
<ellipse cx="105.5" cy="60.7797" rx="0.5" ry="0.533898" fill="#404145"/>
<ellipse cx="4.5" cy="59.7797" rx="0.5" ry="0.533898" fill="#404145"/>
<ellipse cx="108.5" cy="52.7881" rx="0.5" ry="0.533898" fill="#404145"/>
<ellipse cx="1.5" cy="52.3729" rx="0.5" ry="0.533898" fill="#404145"/>
<ellipse cx="105.5" cy="52.7712" rx="0.5" ry="0.533898" fill="#404145"/>
<ellipse cx="4.5" cy="51.7712" rx="0.5" ry="0.533898" fill="#404145"/>
<ellipse cx="108.5" cy="44.7797" rx="0.5" ry="0.533898" fill="#404145"/>
<ellipse cx="1.5" cy="44.3644" rx="0.5" ry="0.533898" fill="#404145"/>
<ellipse cx="105.5" cy="44.7627" rx="0.5" ry="0.533898" fill="#404145"/>
<ellipse cx="4.5" cy="43.7627" rx="0.5" ry="0.533898" fill="#404145"/>
<ellipse cx="108.5" cy="36.7712" rx="0.5" ry="0.533898" fill="#404145"/>
<ellipse cx="1.5" cy="36.3559" rx="0.5" ry="0.533898" fill="#404145"/>
<ellipse cx="105.5" cy="36.7542" rx="0.5" ry="0.533898" fill="#404145"/>
<ellipse cx="4.5" cy="35.7542" rx="0.5" ry="0.533898" fill="#404145"/>
<ellipse cx="108.5" cy="28.7627" rx="0.5" ry="0.533898" fill="#404145"/>
<ellipse cx="1.5" cy="28.3475" rx="0.5" ry="0.533898" fill="#404145"/>
<ellipse cx="105.5" cy="28.7458" rx="0.5" ry="0.533898" fill="#404145"/>
<ellipse cx="4.5" cy="27.7458" rx="0.5" ry="0.533898" fill="#404145"/>
<ellipse cx="108.5" cy="20.7542" rx="0.5" ry="0.533898" fill="#404145"/>
<ellipse cx="1.5" cy="20.339" rx="0.5" ry="0.533898" fill="#404145"/>
<ellipse cx="105.5" cy="20.7373" rx="0.5" ry="0.533898" fill="#404145"/>
<ellipse cx="4.5" cy="19.7373" rx="0.5" ry="0.533898" fill="#404145"/>
</svg>
