<svg width="110" height="59" viewBox="0 0 110 59" fill="none" xmlns="http://www.w3.org/2000/svg">
<path d="M0.25 58.75V12.3388C16.1858 4.47443 35.8396 0.347569 55.3762 0.251713C74.9145 0.155849 94.3163 4.09174 109.75 12.3332V58.75H0.25Z" fill="white" stroke="#404145" stroke-width="0.5"/>
<ellipse cx="106" cy="27.0749" rx="1" ry="0.966961" fill="#404145"/>
<ellipse cx="4" cy="31.9097" rx="1" ry="0.966961" fill="#404145"/>
<ellipse cx="106" cy="27.0749" rx="1" ry="0.966961" fill="#404145"/>
<ellipse cx="4" cy="31.9097" rx="1" ry="0.966961" fill="#404145"/>
<ellipse cx="106" cy="50.282" rx="1" ry="0.966961" fill="#404145"/>
<ellipse cx="4" cy="55.1168" rx="1" ry="0.966961" fill="#404145"/>
<ellipse cx="106" cy="50.282" rx="1" ry="0.966961" fill="#404145"/>
<ellipse cx="106" cy="15.4714" rx="1" ry="0.966961" fill="#404145"/>
<ellipse cx="4" cy="20.3062" rx="1" ry="0.966961" fill="#404145"/>
<ellipse cx="4" cy="15.4714" rx="1" ry="0.966961" fill="#404145"/>
<ellipse cx="12" cy="10.1531" rx="1" ry="0.966961" fill="#404145"/>
<ellipse cx="17" cy="8.21916" rx="1" ry="0.966961" fill="#404145"/>
<ellipse cx="22" cy="6.76872" rx="1" ry="0.966961" fill="#404145"/>
<ellipse cx="27" cy="5.31828" rx="1" ry="0.966961" fill="#404145"/>
<ellipse cx="32" cy="4.35133" rx="1" ry="0.966961" fill="#404145"/>
<ellipse cx="37" cy="3.38435" rx="1" ry="0.966961" fill="#404145"/>
<ellipse cx="42" cy="2.90089" rx="1" ry="0.966961" fill="#404145"/>
<ellipse cx="47" cy="2.4174" rx="1" ry="0.966961" fill="#404145"/>
<ellipse cx="52" cy="2.4174" rx="1" ry="0.966961" fill="#404145"/>
<ellipse cx="57" cy="2.4174" rx="1" ry="0.966961" fill="#404145"/>
<ellipse cx="62" cy="2.4174" rx="1" ry="0.966961" fill="#404145"/>
<ellipse cx="67" cy="2.90089" rx="1" ry="0.966961" fill="#404145"/>
<ellipse cx="72" cy="3.38435" rx="1" ry="0.966961" fill="#404145"/>
<ellipse cx="77" cy="4.35133" rx="1" ry="0.966961" fill="#404145"/>
<ellipse cx="82" cy="5.31828" rx="1" ry="0.966961" fill="#404145"/>
<ellipse cx="87" cy="6.76872" rx="1" ry="0.966961" fill="#404145"/>
<ellipse cx="92" cy="8.21916" rx="1" ry="0.966961" fill="#404145"/>
<ellipse cx="97" cy="10.1531" rx="1" ry="0.966961" fill="#404145"/>
<ellipse cx="102" cy="12.087" rx="1" ry="0.966961" fill="#404145"/>
<ellipse cx="106" cy="32.8767" rx="1" ry="0.966961" fill="#404145"/>
<ellipse cx="4" cy="37.7115" rx="1" ry="0.966961" fill="#404145"/>
<ellipse cx="106" cy="56.0838" rx="1" ry="0.966961" fill="#404145"/>
<ellipse cx="106" cy="21.2731" rx="1" ry="0.966961" fill="#404145"/>
<ellipse cx="4" cy="26.108" rx="1" ry="0.966961" fill="#404145"/>
<ellipse cx="106" cy="44.4802" rx="1" ry="0.966961" fill="#404145"/>
<ellipse cx="4" cy="49.315" rx="1" ry="0.966961" fill="#404145"/>
<ellipse cx="106" cy="38.6784" rx="1" ry="0.966961" fill="#404145"/>
<ellipse cx="4" cy="43.5133" rx="1" ry="0.966961" fill="#404145"/>
<ellipse cx="106" cy="27.0749" rx="1" ry="0.966961" fill="#404145"/>
<ellipse cx="106" cy="50.282" rx="1" ry="0.966961" fill="#404145"/>
<ellipse cx="7" cy="12.087" rx="1" ry="0.966961" fill="#404145"/>
</svg>
