<svg width="110" height="62" viewBox="0 0 110 62" fill="none" xmlns="http://www.w3.org/2000/svg">
<rect x="0.1" y="0.1" width="109.8" height="61.8" stroke="#404145" stroke-width="0.2"/>
<path d="M6.5 6.55285V62H0V0H110V62H104V6.55285H102H6.5Z" fill="#FFAC29"/>
<path d="M62.4093 3.8387C64.179 3.8387 64.2637 3.36055 62.649 3.09143C61.6234 2.9205 62.4093 3.23959 62.4093 3.8387Z" stroke="#FF7A00" stroke-linecap="round" stroke-linejoin="round"/>
<path d="M24.3408 4.34632C24.5154 4.38037 27.0413 4.8537 25.9764 4.28992C25.5245 4.0507 25.1221 4.09253 24.5946 4.09253" stroke="#FF7A00" stroke-linecap="round" stroke-linejoin="round"/>
<path d="M105.554 21.0964C105.554 22.4473 105.759 23.3073 104.849 22.0552C104.358 21.3808 105.038 21.0964 105.554 21.0964Z" stroke="#FF7A00" stroke-linecap="round" stroke-linejoin="round"/>
<path d="M105.807 1.80838C108.126 1.80838 105.747 1.57704 105.568 2.20316C105.401 2.78616 106.741 2.56974 107.076 2.56974" stroke="#FF7A00" stroke-linecap="round" stroke-linejoin="round"/>
<path d="M5.0528 12.9752C4.94077 15.2157 4.29143 13.5858 4.29143 12.4676" stroke="#FF7A00" stroke-linecap="round" stroke-linejoin="round"/>
<path d="M2.51489 33.0246C3.48125 37.4268 3.02247 29.1201 3.02247 32.8977C3.02247 33.5724 3.02247 35.5957 3.02247 35.4356C3.02247 34.4894 2.76868 33.5067 2.76868 32.517" stroke="#FF7A00" stroke-linecap="round" stroke-linejoin="round"/>
<path d="M108.091 35.5625C107.072 38.0466 108.116 34.5936 107.443 34.2371C106.781 33.8868 107.591 35.954 107.838 36.3238" stroke="#FF7A00" stroke-linecap="round" stroke-linejoin="round"/>
<path d="M105.807 49.5209C105.631 48.6157 105.482 47.7119 105.554 46.7856C105.571 46.5585 106.315 45.4648 106.315 46.0947C106.315 47.0676 106.315 48.0405 106.315 49.0133" stroke="#FF7A00" stroke-linecap="round" stroke-linejoin="round"/>
<path d="M1.49975 51.2974C1.39124 51.0194 0.570174 49.2412 1.04856 48.8159C1.50669 48.4087 2.19259 49.8701 2.24702 50.1695C2.54902 51.8305 1.24596 51.8884 1.24596 50.2823" stroke="#FF7A00" stroke-linecap="round" stroke-linejoin="round"/>
<path d="M105.412 59.7389C105.288 55.7081 104.49 51.7731 104.49 47.7473C104.49 45.0992 104.797 42.5379 104.797 39.9066" stroke="#FF7A00" stroke-width="0.4" stroke-linecap="round" stroke-linejoin="round"/>
<path d="M107.257 54.6655C107.511 52.1299 107.103 49.7227 107.103 47.2007C107.103 46.1733 107.147 45.1352 107.095 44.1088C107.037 42.9732 106.694 41.8739 106.651 40.7351C106.569 38.5666 106.181 36.4408 106.181 34.2696C106.181 33.0406 106.275 31.7627 106.078 30.5457C105.816 28.9201 105.487 27.4149 105.412 25.7627" stroke="#FF7A00" stroke-width="0.4" stroke-linecap="round" stroke-linejoin="round"/>
<path d="M109.256 40.3678C108.486 38.107 108.948 35.1151 108.948 32.7492C108.948 30.893 108.948 29.0367 108.948 27.1805C108.948 25.8325 109.004 24.47 108.94 23.1235C108.878 21.8191 108.161 20.7295 107.684 19.5448C107.137 18.1861 106.602 16.8659 106.181 15.4622" stroke="#FF7A00" stroke-width="0.4" stroke-linecap="round" stroke-linejoin="round"/>
<path d="M106.796 22.3805C107.038 20.5444 105.928 18.8125 105.481 17.0509C105.195 15.9283 105.105 14.4819 105.105 13.3184C105.105 12.0702 105.122 11.2146 105.643 10.0643C106.041 9.18429 105.896 8.36718 106.121 7.46784C106.376 6.44735 106.488 5.60623 106.488 4.54681" stroke="#FF7A00" stroke-width="0.4" stroke-linecap="round" stroke-linejoin="round"/>
<path d="M108.641 11.3113C108.405 9.57091 108.487 7.8039 108.487 6.05006C108.487 4.66007 108.494 3.70481 107.103 3.00946" stroke="#FF7A00" stroke-width="0.4" stroke-linecap="round" stroke-linejoin="round"/>
<path d="M107.257 11.1576C107.601 12.9208 107.258 14.449 108.487 15.9235" stroke="#FF7A00" stroke-width="0.4" stroke-linecap="round" stroke-linejoin="round"/>
<path d="M106.95 24.3791C106.95 26.2383 106.852 28.0908 107.257 29.9137" stroke="#FF7A00" stroke-width="0.4" stroke-linecap="round" stroke-linejoin="round"/>
<path d="M108.641 43.2889C108.641 46.5248 108.794 49.7562 108.794 52.9744C108.794 54.0082 108.831 55.0501 108.794 56.0833C108.755 57.1773 107.888 57.9994 107.565 58.9702" stroke="#FF7A00" stroke-width="0.4" stroke-linecap="round" stroke-linejoin="round"/>
<path d="M61.7294 4.84344C57.6986 4.96746 53.7636 5.76587 49.7378 5.76587C47.0897 5.76587 44.5285 5.45839 41.8972 5.45839" stroke="#FF7A00" stroke-width="0.4" stroke-linecap="round" stroke-linejoin="round"/>
<path d="M56.6561 2.99858C54.1204 2.74502 51.7133 3.15232 49.1912 3.15232C48.1639 3.15232 47.1258 3.10823 46.0993 3.16086C44.9638 3.2191 43.8645 3.56202 42.7256 3.605C40.5571 3.68683 38.4313 4.07475 36.2601 4.07475C35.0311 4.07475 33.7532 3.98095 32.5362 4.17725C30.9106 4.43943 29.4055 4.76834 27.7532 4.84344" stroke="#FF7A00" stroke-width="0.4" stroke-linecap="round" stroke-linejoin="round"/>
<path d="M42.3584 0.99997C40.0976 1.76961 37.1057 1.30745 34.7398 1.30745C32.8835 1.30745 31.0273 1.30745 29.171 1.30745C27.8231 1.30745 26.4606 1.25187 25.1141 1.31599C23.8097 1.3781 22.72 2.09459 21.5354 2.57152C20.1766 3.11854 18.8564 3.65365 17.4528 4.07474" stroke="#FF7A00" stroke-width="0.4" stroke-linecap="round" stroke-linejoin="round"/>
<path d="M24.371 3.45979C22.5349 3.21728 20.803 4.32772 19.0414 4.7751C17.9189 5.0602 16.4724 5.15091 15.309 5.15091C14.0607 5.15091 13.2052 5.1332 12.0549 4.61283C11.1748 4.21472 10.3577 4.35936 9.45838 4.13453C8.43789 3.8794 7.59677 3.76726 6.53735 3.76726" stroke="#FF7A00" stroke-width="0.4" stroke-linecap="round" stroke-linejoin="round"/>
<path d="M13.3019 1.61493C11.5615 1.85092 9.79444 1.76867 8.0406 1.76867C6.65061 1.76867 5.69535 1.76161 5 3.15231" stroke="#FF7A00" stroke-width="0.4" stroke-linecap="round" stroke-linejoin="round"/>
<path d="M13.1481 2.99857C14.9113 2.65453 16.4395 2.99743 17.914 1.76866" stroke="#FF7A00" stroke-width="0.4" stroke-linecap="round" stroke-linejoin="round"/>
<path d="M26.3696 3.30605C28.2289 3.30605 30.0813 3.40366 31.9042 2.99858" stroke="#FF7A00" stroke-width="0.4" stroke-linecap="round" stroke-linejoin="round"/>
<path d="M45.2794 1.61493C48.5154 1.61493 51.7467 1.46119 54.9649 1.46119C55.9987 1.46119 57.0406 1.42429 58.0739 1.46119C59.1678 1.50026 59.99 2.36751 60.9607 2.6911" stroke="#FF7A00" stroke-width="0.4" stroke-linecap="round" stroke-linejoin="round"/>
<path d="M105 4.84344C102.158 4.96746 99.3833 5.76587 96.5447 5.76587C94.6775 5.76587 92.8716 5.45839 91.0162 5.45839" stroke="#FF7A00" stroke-width="0.4" stroke-linecap="round" stroke-linejoin="round"/>
<path d="M101.423 2.99858C99.6349 2.74502 97.9376 3.15232 96.1593 3.15232C95.4349 3.15232 94.703 3.10823 93.9792 3.16086C93.1785 3.2191 92.4034 3.56202 91.6004 3.605C90.0714 3.68683 88.5725 4.07475 87.0415 4.07475C86.175 4.07475 85.274 3.98095 84.4158 4.17725C83.2696 4.43943 82.2083 4.76834 81.0433 4.84344" stroke="#FF7A00" stroke-width="0.4" stroke-linecap="round" stroke-linejoin="round"/>
<path d="M91.3415 0.99997C89.7474 1.76961 87.6378 1.30745 85.9696 1.30745C84.6607 1.30745 83.3519 1.30745 82.043 1.30745C81.0926 1.30745 80.1319 1.25187 79.1825 1.31599C78.2627 1.3781 77.4944 2.09459 76.6591 2.57152C75.7011 3.11854 74.7702 3.65365 73.7805 4.07474" stroke="#FF7A00" stroke-width="0.4" stroke-linecap="round" stroke-linejoin="round"/>
<path d="M78.6585 3.45979C77.3639 3.21728 76.1427 4.32772 74.9006 4.7751C74.1091 5.0602 73.0892 5.15091 72.2689 5.15091C71.3887 5.15091 70.7855 5.1332 69.9744 4.61283C69.3539 4.21472 68.7777 4.35936 68.1436 4.13453C67.4241 3.8794 66.831 3.76726 66.084 3.76726" stroke="#FF7A00" stroke-width="0.4" stroke-linecap="round" stroke-linejoin="round"/>
<path d="M70.8537 1.61493C69.6265 1.85092 68.3806 1.76867 67.1439 1.76867C66.1638 1.76867 65.4903 1.76161 65 3.15231" stroke="#FF7A00" stroke-width="0.4" stroke-linecap="round" stroke-linejoin="round"/>
<path d="M70.7453 2.99857C71.9885 2.65453 73.066 2.99743 74.1057 1.76866" stroke="#FF7A00" stroke-width="0.4" stroke-linecap="round" stroke-linejoin="round"/>
<path d="M80.0678 3.30605C81.3787 3.30605 82.6849 3.40366 83.9702 2.99858" stroke="#FF7A00" stroke-width="0.4" stroke-linecap="round" stroke-linejoin="round"/>
<path d="M93.4011 1.61493C95.6828 1.61493 97.9612 1.46119 100.23 1.46119C100.959 1.46119 101.694 1.42429 102.422 1.46119C103.194 1.50026 103.774 2.36751 104.458 2.6911" stroke="#FF7A00" stroke-width="0.4" stroke-linecap="round" stroke-linejoin="round"/>
<path d="M2.76728 54.6561C3.02085 52.1204 2.61355 49.7133 2.61355 47.1912C2.61355 46.1639 2.65764 45.1258 2.60501 44.0993C2.54677 42.9638 2.20385 41.8645 2.16087 40.7256C2.07904 38.5571 1.69112 36.4313 1.69112 34.2601C1.69112 33.0311 1.78492 31.7532 1.58862 30.5362C1.32644 28.9106 0.997527 27.4055 0.922424 25.7532" stroke="#FF7A00" stroke-width="0.4" stroke-linecap="round" stroke-linejoin="round"/>
<path d="M4.7659 40.3584C3.99626 38.0976 4.45842 35.1057 4.45842 32.7398C4.45842 30.8835 4.45842 29.0273 4.45842 27.171C4.45842 25.8231 4.514 24.4606 4.44988 23.1141C4.38777 21.8097 3.67128 20.72 3.19435 19.5354C2.64733 18.1766 2.11222 16.8564 1.69113 15.4528" stroke="#FF7A00" stroke-width="0.4" stroke-linecap="round" stroke-linejoin="round"/>
<path d="M2.30608 22.371C2.54859 20.5349 1.43815 18.803 0.990765 17.0414C0.705671 15.9189 0.61496 14.4724 0.61496 13.309C0.61496 12.0607 0.632671 11.2052 1.15304 10.0549C1.55115 9.17483 1.40651 8.35772 1.63134 7.45838C1.88647 6.43789 1.99861 5.59677 1.99861 4.53735" stroke="#FF7A00" stroke-width="0.4" stroke-linecap="round" stroke-linejoin="round"/>
<path d="M4.15094 11.3019C3.91495 9.56145 3.9972 7.79444 3.9972 6.0406C3.9972 4.65061 4.00426 3.69535 2.61356 3" stroke="#FF7A00" stroke-width="0.4" stroke-linecap="round" stroke-linejoin="round"/>
<path d="M2.7673 11.1481C3.11134 12.9113 2.76844 14.4395 3.99721 15.914" stroke="#FF7A00" stroke-width="0.4" stroke-linecap="round" stroke-linejoin="round"/>
<path d="M2.45982 24.3696C2.45982 26.2289 2.36221 28.0813 2.76729 29.9042" stroke="#FF7A00" stroke-width="0.4" stroke-linecap="round" stroke-linejoin="round"/>
<path d="M4.15094 43.2794C4.15094 46.5154 4.30468 49.7467 4.30468 52.9649C4.30468 53.9987 4.34158 55.0406 4.30468 56.0739C4.26561 57.1678 3.39836 57.99 3.07477 58.9607" stroke="#FF7A00" stroke-width="0.4" stroke-linecap="round" stroke-linejoin="round"/>
<path d="M1.75353 59.1649C1.75353 56.0771 1.75353 52.9894 1.75353 49.9016C1.75353 48.2407 2.9762 44.1682 0.992157 43.1761" stroke="#FF7A00" stroke-width="0.3" stroke-linecap="round" stroke-linejoin="round"/>
<g style="mix-blend-mode:hard-light" filter="url(#filter0_f)">
<path d="M14.8562 15.6794L18.3917 19.2149" stroke="#404145" stroke-opacity="0.6" stroke-width="0.5"/>
<path d="M14.7678 19.3033L18.3033 15.7678" stroke="#404145" stroke-opacity="0.6" stroke-width="0.5"/>
<g style="mix-blend-mode:darken">
<ellipse cx="16.6269" cy="17.4798" rx="0.729013" ry="0.962733" fill="#404145"/>
</g>
<g filter="url(#filter1_f)">
<path d="M14.7678 17.5355H18.3033" stroke="#404145" stroke-width="0.1"/>
</g>
<g filter="url(#filter2_f)">
<path d="M16.5355 15.7678V19.3033" stroke="#404145"/>
</g>
</g>
<g style="mix-blend-mode:hard-light" filter="url(#filter3_f)">
<path d="M14.8562 26.6794L18.3917 30.2149" stroke="#404145" stroke-opacity="0.6" stroke-width="0.5"/>
<path d="M14.7678 30.3033L18.3033 26.7678" stroke="#404145" stroke-opacity="0.6" stroke-width="0.5"/>
<g style="mix-blend-mode:darken">
<ellipse cx="16.6269" cy="28.4798" rx="0.729013" ry="0.962733" fill="#404145"/>
</g>
<g filter="url(#filter4_f)">
<path d="M14.7678 28.5355H18.3033" stroke="#404145" stroke-width="0.1"/>
</g>
<g filter="url(#filter5_f)">
<path d="M16.5355 26.7678V30.3033" stroke="#404145"/>
</g>
</g>
<g style="mix-blend-mode:hard-light" filter="url(#filter6_f)">
<path d="M14.8562 37.6794L18.3917 41.2149" stroke="#404145" stroke-opacity="0.6" stroke-width="0.5"/>
<path d="M14.7678 41.3033L18.3033 37.7678" stroke="#404145" stroke-opacity="0.6" stroke-width="0.5"/>
<g style="mix-blend-mode:darken">
<ellipse cx="16.6269" cy="39.4798" rx="0.729013" ry="0.962733" fill="#404145"/>
</g>
<g filter="url(#filter7_f)">
<path d="M14.7678 39.5355H18.3033" stroke="#404145" stroke-width="0.1"/>
</g>
<g filter="url(#filter8_f)">
<path d="M16.5355 37.7678V41.3033" stroke="#404145"/>
</g>
</g>
<g style="mix-blend-mode:hard-light" filter="url(#filter9_f)">
<path d="M29.9272 15.6794L33.4628 19.2149" stroke="#404145" stroke-opacity="0.6" stroke-width="0.5"/>
<path d="M29.8388 19.3033L33.3744 15.7678" stroke="#404145" stroke-opacity="0.6" stroke-width="0.5"/>
<g style="mix-blend-mode:darken">
<ellipse cx="31.698" cy="17.4798" rx="0.729013" ry="0.962733" fill="#404145"/>
</g>
<g filter="url(#filter10_f)">
<path d="M29.8388 17.5355H33.3744" stroke="#404145" stroke-width="0.1"/>
</g>
<g filter="url(#filter11_f)">
<path d="M31.6066 15.7678V19.3033" stroke="#404145"/>
</g>
</g>
<g style="mix-blend-mode:hard-light" filter="url(#filter12_f)">
<path d="M29.9272 26.6794L33.4628 30.2149" stroke="#404145" stroke-opacity="0.6" stroke-width="0.5"/>
<path d="M29.8388 30.3033L33.3744 26.7678" stroke="#404145" stroke-opacity="0.6" stroke-width="0.5"/>
<g style="mix-blend-mode:darken">
<ellipse cx="31.698" cy="28.4798" rx="0.729013" ry="0.962733" fill="#404145"/>
</g>
<g filter="url(#filter13_f)">
<path d="M29.8388 28.5355H33.3744" stroke="#404145" stroke-width="0.1"/>
</g>
<g filter="url(#filter14_f)">
<path d="M31.6066 26.7678V30.3033" stroke="#404145"/>
</g>
</g>
<g style="mix-blend-mode:hard-light" filter="url(#filter15_f)">
<path d="M29.9272 37.6794L33.4628 41.2149" stroke="#404145" stroke-opacity="0.6" stroke-width="0.5"/>
<path d="M29.8388 41.3033L33.3744 37.7678" stroke="#404145" stroke-opacity="0.6" stroke-width="0.5"/>
<g style="mix-blend-mode:darken">
<ellipse cx="31.698" cy="39.4798" rx="0.729013" ry="0.962733" fill="#404145"/>
</g>
<g filter="url(#filter16_f)">
<path d="M29.8388 39.5355H33.3744" stroke="#404145" stroke-width="0.1"/>
</g>
<g filter="url(#filter17_f)">
<path d="M31.6066 37.7678V41.3033" stroke="#404145"/>
</g>
</g>
<g style="mix-blend-mode:hard-light" filter="url(#filter18_f)">
<path d="M44.9983 15.6794L48.5338 19.2149" stroke="#404145" stroke-opacity="0.6" stroke-width="0.5"/>
<path d="M44.9099 19.3033L48.4454 15.7678" stroke="#404145" stroke-opacity="0.6" stroke-width="0.5"/>
<g style="mix-blend-mode:darken">
<ellipse cx="46.7691" cy="17.4798" rx="0.729013" ry="0.962733" fill="#404145"/>
</g>
<g filter="url(#filter19_f)">
<path d="M44.9099 17.5355H48.4454" stroke="#404145" stroke-width="0.1"/>
</g>
<g filter="url(#filter20_f)">
<path d="M46.6777 15.7678V19.3033" stroke="#404145"/>
</g>
</g>
<g style="mix-blend-mode:hard-light" filter="url(#filter21_f)">
<path d="M44.9983 26.6794L48.5338 30.2149" stroke="#404145" stroke-opacity="0.6" stroke-width="0.5"/>
<path d="M44.9099 30.3033L48.4454 26.7678" stroke="#404145" stroke-opacity="0.6" stroke-width="0.5"/>
<g style="mix-blend-mode:darken">
<ellipse cx="46.7691" cy="28.4798" rx="0.729013" ry="0.962733" fill="#404145"/>
</g>
<g filter="url(#filter22_f)">
<path d="M44.9099 28.5355H48.4454" stroke="#404145" stroke-width="0.1"/>
</g>
<g filter="url(#filter23_f)">
<path d="M46.6777 26.7678V30.3033" stroke="#404145"/>
</g>
</g>
<g style="mix-blend-mode:hard-light" filter="url(#filter24_f)">
<path d="M44.9983 37.6794L48.5338 41.2149" stroke="#404145" stroke-opacity="0.6" stroke-width="0.5"/>
<path d="M44.9099 41.3033L48.4454 37.7678" stroke="#404145" stroke-opacity="0.6" stroke-width="0.5"/>
<g style="mix-blend-mode:darken">
<ellipse cx="46.7691" cy="39.4798" rx="0.729013" ry="0.962733" fill="#404145"/>
</g>
<g filter="url(#filter25_f)">
<path d="M44.9099 39.5355H48.4454" stroke="#404145" stroke-width="0.1"/>
</g>
<g filter="url(#filter26_f)">
<path d="M46.6777 37.7678V41.3033" stroke="#404145"/>
</g>
</g>
<g style="mix-blend-mode:hard-light" filter="url(#filter27_f)">
<path d="M60.0694 15.6794L63.6049 19.2149" stroke="#404145" stroke-opacity="0.6" stroke-width="0.5"/>
<path d="M59.981 19.3033L63.5165 15.7678" stroke="#404145" stroke-opacity="0.6" stroke-width="0.5"/>
<g style="mix-blend-mode:darken">
<ellipse cx="61.8401" cy="17.4798" rx="0.729013" ry="0.962733" fill="#404145"/>
</g>
<g filter="url(#filter28_f)">
<path d="M59.981 17.5355H63.5165" stroke="#404145" stroke-width="0.1"/>
</g>
<g filter="url(#filter29_f)">
<path d="M61.7487 15.7678V19.3033" stroke="#404145"/>
</g>
</g>
<g style="mix-blend-mode:hard-light" filter="url(#filter30_f)">
<path d="M60.0694 26.6794L63.6049 30.2149" stroke="#404145" stroke-opacity="0.6" stroke-width="0.5"/>
<path d="M59.981 30.3033L63.5165 26.7678" stroke="#404145" stroke-opacity="0.6" stroke-width="0.5"/>
<g style="mix-blend-mode:darken">
<ellipse cx="61.8401" cy="28.4798" rx="0.729013" ry="0.962733" fill="#404145"/>
</g>
<g filter="url(#filter31_f)">
<path d="M59.981 28.5355H63.5165" stroke="#404145" stroke-width="0.1"/>
</g>
<g filter="url(#filter32_f)">
<path d="M61.7487 26.7678V30.3033" stroke="#404145"/>
</g>
</g>
<g style="mix-blend-mode:hard-light" filter="url(#filter33_f)">
<path d="M60.0694 37.6794L63.6049 41.2149" stroke="#404145" stroke-opacity="0.6" stroke-width="0.5"/>
<path d="M59.981 41.3033L63.5165 37.7678" stroke="#404145" stroke-opacity="0.6" stroke-width="0.5"/>
<g style="mix-blend-mode:darken">
<ellipse cx="61.8401" cy="39.4798" rx="0.729013" ry="0.962733" fill="#404145"/>
</g>
<g filter="url(#filter34_f)">
<path d="M59.981 39.5355H63.5165" stroke="#404145" stroke-width="0.1"/>
</g>
<g filter="url(#filter35_f)">
<path d="M61.7487 37.7678V41.3033" stroke="#404145"/>
</g>
</g>
<g style="mix-blend-mode:hard-light" filter="url(#filter36_f)">
<path d="M75.1404 15.6794L78.676 19.2149" stroke="#404145" stroke-opacity="0.6" stroke-width="0.5"/>
<path d="M75.052 19.3033L78.5876 15.7678" stroke="#404145" stroke-opacity="0.6" stroke-width="0.5"/>
<g style="mix-blend-mode:darken">
<ellipse cx="76.9112" cy="17.4798" rx="0.729013" ry="0.962733" fill="#404145"/>
</g>
<g filter="url(#filter37_f)">
<path d="M75.052 17.5355H78.5876" stroke="#404145" stroke-width="0.1"/>
</g>
<g filter="url(#filter38_f)">
<path d="M76.8198 15.7678V19.3033" stroke="#404145"/>
</g>
</g>
<g style="mix-blend-mode:hard-light" filter="url(#filter39_f)">
<path d="M75.1404 26.6794L78.676 30.2149" stroke="#404145" stroke-opacity="0.6" stroke-width="0.5"/>
<path d="M75.052 30.3033L78.5876 26.7678" stroke="#404145" stroke-opacity="0.6" stroke-width="0.5"/>
<g style="mix-blend-mode:darken">
<ellipse cx="76.9112" cy="28.4798" rx="0.729013" ry="0.962733" fill="#404145"/>
</g>
<g filter="url(#filter40_f)">
<path d="M75.052 28.5355H78.5876" stroke="#404145" stroke-width="0.1"/>
</g>
<g filter="url(#filter41_f)">
<path d="M76.8198 26.7678V30.3033" stroke="#404145"/>
</g>
</g>
<g style="mix-blend-mode:hard-light" filter="url(#filter42_f)">
<path d="M75.1404 37.6794L78.676 41.2149" stroke="#404145" stroke-opacity="0.6" stroke-width="0.5"/>
<path d="M75.052 41.3033L78.5876 37.7678" stroke="#404145" stroke-opacity="0.6" stroke-width="0.5"/>
<g style="mix-blend-mode:darken">
<ellipse cx="76.9112" cy="39.4798" rx="0.729013" ry="0.962733" fill="#404145"/>
</g>
<g filter="url(#filter43_f)">
<path d="M75.052 39.5355H78.5876" stroke="#404145" stroke-width="0.1"/>
</g>
<g filter="url(#filter44_f)">
<path d="M76.8198 37.7678V41.3033" stroke="#404145"/>
</g>
</g>
<g style="mix-blend-mode:hard-light" filter="url(#filter45_f)">
<path d="M90.2115 15.6794L93.747 19.2149" stroke="#404145" stroke-opacity="0.6" stroke-width="0.5"/>
<path d="M90.1231 19.3033L93.6586 15.7678" stroke="#404145" stroke-opacity="0.6" stroke-width="0.5"/>
<g style="mix-blend-mode:darken">
<ellipse cx="91.9823" cy="17.4798" rx="0.729013" ry="0.962733" fill="#404145"/>
</g>
<g filter="url(#filter46_f)">
<path d="M90.1231 17.5355H93.6586" stroke="#404145" stroke-width="0.1"/>
</g>
<g filter="url(#filter47_f)">
<path d="M91.8909 15.7678V19.3033" stroke="#404145"/>
</g>
</g>
<g style="mix-blend-mode:hard-light" filter="url(#filter48_f)">
<path d="M90.2115 26.6794L93.747 30.2149" stroke="#404145" stroke-opacity="0.6" stroke-width="0.5"/>
<path d="M90.1231 30.3033L93.6586 26.7678" stroke="#404145" stroke-opacity="0.6" stroke-width="0.5"/>
<g style="mix-blend-mode:darken">
<ellipse cx="91.9823" cy="28.4798" rx="0.729013" ry="0.962733" fill="#404145"/>
</g>
<g filter="url(#filter49_f)">
<path d="M90.1231 28.5355H93.6586" stroke="#404145" stroke-width="0.1"/>
</g>
<g filter="url(#filter50_f)">
<path d="M91.8909 26.7678V30.3033" stroke="#404145"/>
</g>
</g>
<g style="mix-blend-mode:hard-light" filter="url(#filter51_f)">
<path d="M90.2115 37.6794L93.747 41.2149" stroke="#404145" stroke-opacity="0.6" stroke-width="0.5"/>
<path d="M90.1231 41.3033L93.6586 37.7678" stroke="#404145" stroke-opacity="0.6" stroke-width="0.5"/>
<g style="mix-blend-mode:darken">
<ellipse cx="91.9823" cy="39.4798" rx="0.729013" ry="0.962733" fill="#404145"/>
</g>
<g filter="url(#filter52_f)">
<path d="M90.1231 39.5355H93.6586" stroke="#404145" stroke-width="0.1"/>
</g>
<g filter="url(#filter53_f)">
<path d="M91.8909 37.7678V41.3033" stroke="#404145"/>
</g>
</g>
<defs>
<filter id="filter0_f" x="14.1178" y="15.1178" width="4.83553" height="4.83553" filterUnits="userSpaceOnUse" color-interpolation-filters="sRGB">
<feFlood flood-opacity="0" result="BackgroundImageFix"/>
<feBlend mode="normal" in="SourceGraphic" in2="BackgroundImageFix" result="shape"/>
<feGaussianBlur stdDeviation="0.075" result="effect1_foregroundBlur"/>
</filter>
<filter id="filter1_f" x="13.7178" y="14.7178" width="5.63553" height="5.63553" filterUnits="userSpaceOnUse" color-interpolation-filters="sRGB">
<feFlood flood-opacity="0" result="BackgroundImageFix"/>
<feBlend mode="normal" in="SourceGraphic" in2="BackgroundImageFix" result="shape"/>
<feGaussianBlur stdDeviation="0.5" result="effect1_foregroundBlur"/>
</filter>
<filter id="filter2_f" x="10.2678" y="11.2678" width="12.5355" height="12.5355" filterUnits="userSpaceOnUse" color-interpolation-filters="sRGB">
<feFlood flood-opacity="0" result="BackgroundImageFix"/>
<feBlend mode="normal" in="SourceGraphic" in2="BackgroundImageFix" result="shape"/>
<feGaussianBlur stdDeviation="2" result="effect1_foregroundBlur"/>
</filter>
<filter id="filter3_f" x="14.1178" y="26.1178" width="4.83553" height="4.83553" filterUnits="userSpaceOnUse" color-interpolation-filters="sRGB">
<feFlood flood-opacity="0" result="BackgroundImageFix"/>
<feBlend mode="normal" in="SourceGraphic" in2="BackgroundImageFix" result="shape"/>
<feGaussianBlur stdDeviation="0.075" result="effect1_foregroundBlur"/>
</filter>
<filter id="filter4_f" x="13.7178" y="25.7178" width="5.63553" height="5.63553" filterUnits="userSpaceOnUse" color-interpolation-filters="sRGB">
<feFlood flood-opacity="0" result="BackgroundImageFix"/>
<feBlend mode="normal" in="SourceGraphic" in2="BackgroundImageFix" result="shape"/>
<feGaussianBlur stdDeviation="0.5" result="effect1_foregroundBlur"/>
</filter>
<filter id="filter5_f" x="10.2678" y="22.2678" width="12.5355" height="12.5355" filterUnits="userSpaceOnUse" color-interpolation-filters="sRGB">
<feFlood flood-opacity="0" result="BackgroundImageFix"/>
<feBlend mode="normal" in="SourceGraphic" in2="BackgroundImageFix" result="shape"/>
<feGaussianBlur stdDeviation="2" result="effect1_foregroundBlur"/>
</filter>
<filter id="filter6_f" x="14.1178" y="37.1178" width="4.83553" height="4.83553" filterUnits="userSpaceOnUse" color-interpolation-filters="sRGB">
<feFlood flood-opacity="0" result="BackgroundImageFix"/>
<feBlend mode="normal" in="SourceGraphic" in2="BackgroundImageFix" result="shape"/>
<feGaussianBlur stdDeviation="0.075" result="effect1_foregroundBlur"/>
</filter>
<filter id="filter7_f" x="13.7178" y="36.7178" width="5.63553" height="5.63553" filterUnits="userSpaceOnUse" color-interpolation-filters="sRGB">
<feFlood flood-opacity="0" result="BackgroundImageFix"/>
<feBlend mode="normal" in="SourceGraphic" in2="BackgroundImageFix" result="shape"/>
<feGaussianBlur stdDeviation="0.5" result="effect1_foregroundBlur"/>
</filter>
<filter id="filter8_f" x="10.2678" y="33.2678" width="12.5355" height="12.5355" filterUnits="userSpaceOnUse" color-interpolation-filters="sRGB">
<feFlood flood-opacity="0" result="BackgroundImageFix"/>
<feBlend mode="normal" in="SourceGraphic" in2="BackgroundImageFix" result="shape"/>
<feGaussianBlur stdDeviation="2" result="effect1_foregroundBlur"/>
</filter>
<filter id="filter9_f" x="29.1888" y="15.1178" width="4.83553" height="4.83553" filterUnits="userSpaceOnUse" color-interpolation-filters="sRGB">
<feFlood flood-opacity="0" result="BackgroundImageFix"/>
<feBlend mode="normal" in="SourceGraphic" in2="BackgroundImageFix" result="shape"/>
<feGaussianBlur stdDeviation="0.075" result="effect1_foregroundBlur"/>
</filter>
<filter id="filter10_f" x="28.7888" y="14.7178" width="5.63553" height="5.63553" filterUnits="userSpaceOnUse" color-interpolation-filters="sRGB">
<feFlood flood-opacity="0" result="BackgroundImageFix"/>
<feBlend mode="normal" in="SourceGraphic" in2="BackgroundImageFix" result="shape"/>
<feGaussianBlur stdDeviation="0.5" result="effect1_foregroundBlur"/>
</filter>
<filter id="filter11_f" x="25.3388" y="11.2678" width="12.5355" height="12.5355" filterUnits="userSpaceOnUse" color-interpolation-filters="sRGB">
<feFlood flood-opacity="0" result="BackgroundImageFix"/>
<feBlend mode="normal" in="SourceGraphic" in2="BackgroundImageFix" result="shape"/>
<feGaussianBlur stdDeviation="2" result="effect1_foregroundBlur"/>
</filter>
<filter id="filter12_f" x="29.1888" y="26.1178" width="4.83553" height="4.83553" filterUnits="userSpaceOnUse" color-interpolation-filters="sRGB">
<feFlood flood-opacity="0" result="BackgroundImageFix"/>
<feBlend mode="normal" in="SourceGraphic" in2="BackgroundImageFix" result="shape"/>
<feGaussianBlur stdDeviation="0.075" result="effect1_foregroundBlur"/>
</filter>
<filter id="filter13_f" x="28.7888" y="25.7178" width="5.63553" height="5.63553" filterUnits="userSpaceOnUse" color-interpolation-filters="sRGB">
<feFlood flood-opacity="0" result="BackgroundImageFix"/>
<feBlend mode="normal" in="SourceGraphic" in2="BackgroundImageFix" result="shape"/>
<feGaussianBlur stdDeviation="0.5" result="effect1_foregroundBlur"/>
</filter>
<filter id="filter14_f" x="25.3388" y="22.2678" width="12.5355" height="12.5355" filterUnits="userSpaceOnUse" color-interpolation-filters="sRGB">
<feFlood flood-opacity="0" result="BackgroundImageFix"/>
<feBlend mode="normal" in="SourceGraphic" in2="BackgroundImageFix" result="shape"/>
<feGaussianBlur stdDeviation="2" result="effect1_foregroundBlur"/>
</filter>
<filter id="filter15_f" x="29.1888" y="37.1178" width="4.83553" height="4.83553" filterUnits="userSpaceOnUse" color-interpolation-filters="sRGB">
<feFlood flood-opacity="0" result="BackgroundImageFix"/>
<feBlend mode="normal" in="SourceGraphic" in2="BackgroundImageFix" result="shape"/>
<feGaussianBlur stdDeviation="0.075" result="effect1_foregroundBlur"/>
</filter>
<filter id="filter16_f" x="28.7888" y="36.7178" width="5.63553" height="5.63553" filterUnits="userSpaceOnUse" color-interpolation-filters="sRGB">
<feFlood flood-opacity="0" result="BackgroundImageFix"/>
<feBlend mode="normal" in="SourceGraphic" in2="BackgroundImageFix" result="shape"/>
<feGaussianBlur stdDeviation="0.5" result="effect1_foregroundBlur"/>
</filter>
<filter id="filter17_f" x="25.3388" y="33.2678" width="12.5355" height="12.5355" filterUnits="userSpaceOnUse" color-interpolation-filters="sRGB">
<feFlood flood-opacity="0" result="BackgroundImageFix"/>
<feBlend mode="normal" in="SourceGraphic" in2="BackgroundImageFix" result="shape"/>
<feGaussianBlur stdDeviation="2" result="effect1_foregroundBlur"/>
</filter>
<filter id="filter18_f" x="44.2599" y="15.1178" width="4.83553" height="4.83553" filterUnits="userSpaceOnUse" color-interpolation-filters="sRGB">
<feFlood flood-opacity="0" result="BackgroundImageFix"/>
<feBlend mode="normal" in="SourceGraphic" in2="BackgroundImageFix" result="shape"/>
<feGaussianBlur stdDeviation="0.075" result="effect1_foregroundBlur"/>
</filter>
<filter id="filter19_f" x="43.8599" y="14.7178" width="5.63553" height="5.63553" filterUnits="userSpaceOnUse" color-interpolation-filters="sRGB">
<feFlood flood-opacity="0" result="BackgroundImageFix"/>
<feBlend mode="normal" in="SourceGraphic" in2="BackgroundImageFix" result="shape"/>
<feGaussianBlur stdDeviation="0.5" result="effect1_foregroundBlur"/>
</filter>
<filter id="filter20_f" x="40.4099" y="11.2678" width="12.5355" height="12.5355" filterUnits="userSpaceOnUse" color-interpolation-filters="sRGB">
<feFlood flood-opacity="0" result="BackgroundImageFix"/>
<feBlend mode="normal" in="SourceGraphic" in2="BackgroundImageFix" result="shape"/>
<feGaussianBlur stdDeviation="2" result="effect1_foregroundBlur"/>
</filter>
<filter id="filter21_f" x="44.2599" y="26.1178" width="4.83553" height="4.83553" filterUnits="userSpaceOnUse" color-interpolation-filters="sRGB">
<feFlood flood-opacity="0" result="BackgroundImageFix"/>
<feBlend mode="normal" in="SourceGraphic" in2="BackgroundImageFix" result="shape"/>
<feGaussianBlur stdDeviation="0.075" result="effect1_foregroundBlur"/>
</filter>
<filter id="filter22_f" x="43.8599" y="25.7178" width="5.63553" height="5.63553" filterUnits="userSpaceOnUse" color-interpolation-filters="sRGB">
<feFlood flood-opacity="0" result="BackgroundImageFix"/>
<feBlend mode="normal" in="SourceGraphic" in2="BackgroundImageFix" result="shape"/>
<feGaussianBlur stdDeviation="0.5" result="effect1_foregroundBlur"/>
</filter>
<filter id="filter23_f" x="40.4099" y="22.2678" width="12.5355" height="12.5355" filterUnits="userSpaceOnUse" color-interpolation-filters="sRGB">
<feFlood flood-opacity="0" result="BackgroundImageFix"/>
<feBlend mode="normal" in="SourceGraphic" in2="BackgroundImageFix" result="shape"/>
<feGaussianBlur stdDeviation="2" result="effect1_foregroundBlur"/>
</filter>
<filter id="filter24_f" x="44.2599" y="37.1178" width="4.83553" height="4.83553" filterUnits="userSpaceOnUse" color-interpolation-filters="sRGB">
<feFlood flood-opacity="0" result="BackgroundImageFix"/>
<feBlend mode="normal" in="SourceGraphic" in2="BackgroundImageFix" result="shape"/>
<feGaussianBlur stdDeviation="0.075" result="effect1_foregroundBlur"/>
</filter>
<filter id="filter25_f" x="43.8599" y="36.7178" width="5.63553" height="5.63553" filterUnits="userSpaceOnUse" color-interpolation-filters="sRGB">
<feFlood flood-opacity="0" result="BackgroundImageFix"/>
<feBlend mode="normal" in="SourceGraphic" in2="BackgroundImageFix" result="shape"/>
<feGaussianBlur stdDeviation="0.5" result="effect1_foregroundBlur"/>
</filter>
<filter id="filter26_f" x="40.4099" y="33.2678" width="12.5355" height="12.5355" filterUnits="userSpaceOnUse" color-interpolation-filters="sRGB">
<feFlood flood-opacity="0" result="BackgroundImageFix"/>
<feBlend mode="normal" in="SourceGraphic" in2="BackgroundImageFix" result="shape"/>
<feGaussianBlur stdDeviation="2" result="effect1_foregroundBlur"/>
</filter>
<filter id="filter27_f" x="59.331" y="15.1178" width="4.83553" height="4.83553" filterUnits="userSpaceOnUse" color-interpolation-filters="sRGB">
<feFlood flood-opacity="0" result="BackgroundImageFix"/>
<feBlend mode="normal" in="SourceGraphic" in2="BackgroundImageFix" result="shape"/>
<feGaussianBlur stdDeviation="0.075" result="effect1_foregroundBlur"/>
</filter>
<filter id="filter28_f" x="58.931" y="14.7178" width="5.63553" height="5.63553" filterUnits="userSpaceOnUse" color-interpolation-filters="sRGB">
<feFlood flood-opacity="0" result="BackgroundImageFix"/>
<feBlend mode="normal" in="SourceGraphic" in2="BackgroundImageFix" result="shape"/>
<feGaussianBlur stdDeviation="0.5" result="effect1_foregroundBlur"/>
</filter>
<filter id="filter29_f" x="55.481" y="11.2678" width="12.5355" height="12.5355" filterUnits="userSpaceOnUse" color-interpolation-filters="sRGB">
<feFlood flood-opacity="0" result="BackgroundImageFix"/>
<feBlend mode="normal" in="SourceGraphic" in2="BackgroundImageFix" result="shape"/>
<feGaussianBlur stdDeviation="2" result="effect1_foregroundBlur"/>
</filter>
<filter id="filter30_f" x="59.331" y="26.1178" width="4.83553" height="4.83553" filterUnits="userSpaceOnUse" color-interpolation-filters="sRGB">
<feFlood flood-opacity="0" result="BackgroundImageFix"/>
<feBlend mode="normal" in="SourceGraphic" in2="BackgroundImageFix" result="shape"/>
<feGaussianBlur stdDeviation="0.075" result="effect1_foregroundBlur"/>
</filter>
<filter id="filter31_f" x="58.931" y="25.7178" width="5.63553" height="5.63553" filterUnits="userSpaceOnUse" color-interpolation-filters="sRGB">
<feFlood flood-opacity="0" result="BackgroundImageFix"/>
<feBlend mode="normal" in="SourceGraphic" in2="BackgroundImageFix" result="shape"/>
<feGaussianBlur stdDeviation="0.5" result="effect1_foregroundBlur"/>
</filter>
<filter id="filter32_f" x="55.481" y="22.2678" width="12.5355" height="12.5355" filterUnits="userSpaceOnUse" color-interpolation-filters="sRGB">
<feFlood flood-opacity="0" result="BackgroundImageFix"/>
<feBlend mode="normal" in="SourceGraphic" in2="BackgroundImageFix" result="shape"/>
<feGaussianBlur stdDeviation="2" result="effect1_foregroundBlur"/>
</filter>
<filter id="filter33_f" x="59.331" y="37.1178" width="4.83553" height="4.83553" filterUnits="userSpaceOnUse" color-interpolation-filters="sRGB">
<feFlood flood-opacity="0" result="BackgroundImageFix"/>
<feBlend mode="normal" in="SourceGraphic" in2="BackgroundImageFix" result="shape"/>
<feGaussianBlur stdDeviation="0.075" result="effect1_foregroundBlur"/>
</filter>
<filter id="filter34_f" x="58.931" y="36.7178" width="5.63553" height="5.63553" filterUnits="userSpaceOnUse" color-interpolation-filters="sRGB">
<feFlood flood-opacity="0" result="BackgroundImageFix"/>
<feBlend mode="normal" in="SourceGraphic" in2="BackgroundImageFix" result="shape"/>
<feGaussianBlur stdDeviation="0.5" result="effect1_foregroundBlur"/>
</filter>
<filter id="filter35_f" x="55.481" y="33.2678" width="12.5355" height="12.5355" filterUnits="userSpaceOnUse" color-interpolation-filters="sRGB">
<feFlood flood-opacity="0" result="BackgroundImageFix"/>
<feBlend mode="normal" in="SourceGraphic" in2="BackgroundImageFix" result="shape"/>
<feGaussianBlur stdDeviation="2" result="effect1_foregroundBlur"/>
</filter>
<filter id="filter36_f" x="74.402" y="15.1178" width="4.83553" height="4.83553" filterUnits="userSpaceOnUse" color-interpolation-filters="sRGB">
<feFlood flood-opacity="0" result="BackgroundImageFix"/>
<feBlend mode="normal" in="SourceGraphic" in2="BackgroundImageFix" result="shape"/>
<feGaussianBlur stdDeviation="0.075" result="effect1_foregroundBlur"/>
</filter>
<filter id="filter37_f" x="74.002" y="14.7178" width="5.63553" height="5.63553" filterUnits="userSpaceOnUse" color-interpolation-filters="sRGB">
<feFlood flood-opacity="0" result="BackgroundImageFix"/>
<feBlend mode="normal" in="SourceGraphic" in2="BackgroundImageFix" result="shape"/>
<feGaussianBlur stdDeviation="0.5" result="effect1_foregroundBlur"/>
</filter>
<filter id="filter38_f" x="70.552" y="11.2678" width="12.5355" height="12.5355" filterUnits="userSpaceOnUse" color-interpolation-filters="sRGB">
<feFlood flood-opacity="0" result="BackgroundImageFix"/>
<feBlend mode="normal" in="SourceGraphic" in2="BackgroundImageFix" result="shape"/>
<feGaussianBlur stdDeviation="2" result="effect1_foregroundBlur"/>
</filter>
<filter id="filter39_f" x="74.402" y="26.1178" width="4.83553" height="4.83553" filterUnits="userSpaceOnUse" color-interpolation-filters="sRGB">
<feFlood flood-opacity="0" result="BackgroundImageFix"/>
<feBlend mode="normal" in="SourceGraphic" in2="BackgroundImageFix" result="shape"/>
<feGaussianBlur stdDeviation="0.075" result="effect1_foregroundBlur"/>
</filter>
<filter id="filter40_f" x="74.002" y="25.7178" width="5.63553" height="5.63553" filterUnits="userSpaceOnUse" color-interpolation-filters="sRGB">
<feFlood flood-opacity="0" result="BackgroundImageFix"/>
<feBlend mode="normal" in="SourceGraphic" in2="BackgroundImageFix" result="shape"/>
<feGaussianBlur stdDeviation="0.5" result="effect1_foregroundBlur"/>
</filter>
<filter id="filter41_f" x="70.552" y="22.2678" width="12.5355" height="12.5355" filterUnits="userSpaceOnUse" color-interpolation-filters="sRGB">
<feFlood flood-opacity="0" result="BackgroundImageFix"/>
<feBlend mode="normal" in="SourceGraphic" in2="BackgroundImageFix" result="shape"/>
<feGaussianBlur stdDeviation="2" result="effect1_foregroundBlur"/>
</filter>
<filter id="filter42_f" x="74.402" y="37.1178" width="4.83553" height="4.83553" filterUnits="userSpaceOnUse" color-interpolation-filters="sRGB">
<feFlood flood-opacity="0" result="BackgroundImageFix"/>
<feBlend mode="normal" in="SourceGraphic" in2="BackgroundImageFix" result="shape"/>
<feGaussianBlur stdDeviation="0.075" result="effect1_foregroundBlur"/>
</filter>
<filter id="filter43_f" x="74.002" y="36.7178" width="5.63553" height="5.63553" filterUnits="userSpaceOnUse" color-interpolation-filters="sRGB">
<feFlood flood-opacity="0" result="BackgroundImageFix"/>
<feBlend mode="normal" in="SourceGraphic" in2="BackgroundImageFix" result="shape"/>
<feGaussianBlur stdDeviation="0.5" result="effect1_foregroundBlur"/>
</filter>
<filter id="filter44_f" x="70.552" y="33.2678" width="12.5355" height="12.5355" filterUnits="userSpaceOnUse" color-interpolation-filters="sRGB">
<feFlood flood-opacity="0" result="BackgroundImageFix"/>
<feBlend mode="normal" in="SourceGraphic" in2="BackgroundImageFix" result="shape"/>
<feGaussianBlur stdDeviation="2" result="effect1_foregroundBlur"/>
</filter>
<filter id="filter45_f" x="89.4731" y="15.1178" width="4.83553" height="4.83553" filterUnits="userSpaceOnUse" color-interpolation-filters="sRGB">
<feFlood flood-opacity="0" result="BackgroundImageFix"/>
<feBlend mode="normal" in="SourceGraphic" in2="BackgroundImageFix" result="shape"/>
<feGaussianBlur stdDeviation="0.075" result="effect1_foregroundBlur"/>
</filter>
<filter id="filter46_f" x="89.0731" y="14.7178" width="5.63553" height="5.63553" filterUnits="userSpaceOnUse" color-interpolation-filters="sRGB">
<feFlood flood-opacity="0" result="BackgroundImageFix"/>
<feBlend mode="normal" in="SourceGraphic" in2="BackgroundImageFix" result="shape"/>
<feGaussianBlur stdDeviation="0.5" result="effect1_foregroundBlur"/>
</filter>
<filter id="filter47_f" x="85.6231" y="11.2678" width="12.5355" height="12.5355" filterUnits="userSpaceOnUse" color-interpolation-filters="sRGB">
<feFlood flood-opacity="0" result="BackgroundImageFix"/>
<feBlend mode="normal" in="SourceGraphic" in2="BackgroundImageFix" result="shape"/>
<feGaussianBlur stdDeviation="2" result="effect1_foregroundBlur"/>
</filter>
<filter id="filter48_f" x="89.4731" y="26.1178" width="4.83553" height="4.83553" filterUnits="userSpaceOnUse" color-interpolation-filters="sRGB">
<feFlood flood-opacity="0" result="BackgroundImageFix"/>
<feBlend mode="normal" in="SourceGraphic" in2="BackgroundImageFix" result="shape"/>
<feGaussianBlur stdDeviation="0.075" result="effect1_foregroundBlur"/>
</filter>
<filter id="filter49_f" x="89.0731" y="25.7178" width="5.63553" height="5.63553" filterUnits="userSpaceOnUse" color-interpolation-filters="sRGB">
<feFlood flood-opacity="0" result="BackgroundImageFix"/>
<feBlend mode="normal" in="SourceGraphic" in2="BackgroundImageFix" result="shape"/>
<feGaussianBlur stdDeviation="0.5" result="effect1_foregroundBlur"/>
</filter>
<filter id="filter50_f" x="85.6231" y="22.2678" width="12.5355" height="12.5355" filterUnits="userSpaceOnUse" color-interpolation-filters="sRGB">
<feFlood flood-opacity="0" result="BackgroundImageFix"/>
<feBlend mode="normal" in="SourceGraphic" in2="BackgroundImageFix" result="shape"/>
<feGaussianBlur stdDeviation="2" result="effect1_foregroundBlur"/>
</filter>
<filter id="filter51_f" x="89.4731" y="37.1178" width="4.83553" height="4.83553" filterUnits="userSpaceOnUse" color-interpolation-filters="sRGB">
<feFlood flood-opacity="0" result="BackgroundImageFix"/>
<feBlend mode="normal" in="SourceGraphic" in2="BackgroundImageFix" result="shape"/>
<feGaussianBlur stdDeviation="0.075" result="effect1_foregroundBlur"/>
</filter>
<filter id="filter52_f" x="89.0731" y="36.7178" width="5.63553" height="5.63553" filterUnits="userSpaceOnUse" color-interpolation-filters="sRGB">
<feFlood flood-opacity="0" result="BackgroundImageFix"/>
<feBlend mode="normal" in="SourceGraphic" in2="BackgroundImageFix" result="shape"/>
<feGaussianBlur stdDeviation="0.5" result="effect1_foregroundBlur"/>
</filter>
<filter id="filter53_f" x="85.6231" y="33.2678" width="12.5355" height="12.5355" filterUnits="userSpaceOnUse" color-interpolation-filters="sRGB">
<feFlood flood-opacity="0" result="BackgroundImageFix"/>
<feBlend mode="normal" in="SourceGraphic" in2="BackgroundImageFix" result="shape"/>
<feGaussianBlur stdDeviation="2" result="effect1_foregroundBlur"/>
</filter>
</defs>
</svg>
