<svg width="110" height="62" viewBox="0 0 110 62" fill="none" xmlns="http://www.w3.org/2000/svg">
<path d="M10 0.25H100C105.385 0.25 109.75 4.61522 109.75 10V61.75H0.25V10C0.25 4.61523 4.61522 0.25 10 0.25Z" stroke="#404145" stroke-width="0.5"/>
<circle cx="9" cy="1.53366" r="0.5" fill="#404145"/>
<circle cx="61.5" cy="1.53366" r="0.5" fill="#404145"/>
<circle cx="60" cy="3.5" r="0.5" fill="#404145"/>
<circle cx="33" cy="1.53366" r="0.5" fill="#404145"/>
<circle cx="31.5" cy="3.5" r="0.5" fill="#404145"/>
<circle cx="85.5" cy="1.53366" r="0.5" fill="#404145"/>
<circle cx="84" cy="3.5" r="0.5" fill="#404145"/>
<circle cx="21" cy="1.53366" r="0.5" fill="#404145"/>
<circle cx="19.5" cy="3.5" r="0.5" fill="#404145"/>
<circle cx="73.5" cy="1.53366" r="0.5" fill="#404145"/>
<circle cx="72" cy="3.5" r="0.5" fill="#404145"/>
<circle cx="45" cy="1.53366" r="0.5" fill="#404145"/>
<circle cx="43.5" cy="3.5" r="0.5" fill="#404145"/>
<circle cx="97.5" cy="1.53366" r="0.5" fill="#404145"/>
<circle cx="96" cy="3.5" r="0.5" fill="#404145"/>
<circle cx="15" cy="1.53366" r="0.5" fill="#404145"/>
<circle cx="13.5" cy="3.5" r="0.5" fill="#404145"/>
<circle cx="67.5" cy="1.53366" r="0.5" fill="#404145"/>
<circle cx="66" cy="3.5" r="0.5" fill="#404145"/>
<circle cx="39" cy="1.53366" r="0.5" fill="#404145"/>
<circle cx="37.5" cy="3.5" r="0.5" fill="#404145"/>
<circle cx="91.5" cy="1.53366" r="0.5" fill="#404145"/>
<circle cx="90" cy="3.5" r="0.5" fill="#404145"/>
<circle cx="27" cy="1.53366" r="0.5" fill="#404145"/>
<circle cx="25.5" cy="3.5" r="0.5" fill="#404145"/>
<circle cx="79.5" cy="1.53366" r="0.5" fill="#404145"/>
<circle cx="78" cy="3.5" r="0.5" fill="#404145"/>
<circle cx="51" cy="1.53366" r="0.5" fill="#404145"/>
<circle cx="49.5" cy="3.5" r="0.5" fill="#404145"/>
<circle cx="55.5" cy="1.53366" r="0.5" fill="#404145"/>
<circle cx="54" cy="3.5" r="0.5" fill="#404145"/>
<circle cx="108" cy="13.5337" r="0.5" fill="#404145"/>
<circle cx="105.5" cy="12" r="0.5" fill="#404145"/>
<circle cx="3.5" cy="12" r="0.5" fill="#404145"/>
<circle cx="1.5" cy="13.5337" r="0.5" fill="#404145"/>
<circle cx="108" cy="25.5337" r="0.5" fill="#404145"/>
<circle cx="105.5" cy="24" r="0.5" fill="#404145"/>
<circle cx="3.5" cy="24" r="0.5" fill="#404145"/>
<circle cx="108" cy="45" r="0.5" fill="#404145"/>
<circle cx="105.5" cy="43.4663" r="0.5" fill="#404145"/>
<circle cx="3.5" cy="43.4663" r="0.5" fill="#404145"/>
<circle cx="1.5" cy="25.5337" r="0.5" fill="#404145"/>
<circle cx="1.5" cy="25.5337" r="0.5" fill="#404145"/>
<circle cx="108" cy="7.53366" r="0.5" fill="#404145"/>
<circle cx="105.5" cy="7.5" r="0.5" fill="#404145"/>
<circle cx="107.5" cy="6" r="0.5" fill="#404145"/>
<circle cx="105" cy="6" r="0.5" fill="#404145"/>
<circle cx="103.5" cy="4.5" r="0.5" fill="#404145"/>
<circle cx="102" cy="3.5" r="0.5" fill="#404145"/>
<circle cx="106.5" cy="4.5" r="0.5" fill="#404145"/>
<circle cx="105" cy="3" r="0.5" fill="#404145"/>
<circle cx="103.5" cy="2" r="0.5" fill="#404145"/>
<circle cx="108" cy="19.5337" r="0.5" fill="#404145"/>
<circle cx="105.5" cy="18" r="0.5" fill="#404145"/>
<circle cx="3.5" cy="18" r="0.5" fill="#404145"/>
<circle cx="1.5" cy="19.5337" r="0.5" fill="#404145"/>
<circle cx="108" cy="31.5337" r="0.5" fill="#404145"/>
<circle cx="105.5" cy="30" r="0.5" fill="#404145"/>
<circle cx="3.5" cy="30" r="0.5" fill="#404145"/>
<circle cx="108" cy="51" r="0.5" fill="#404145"/>
<circle cx="105.5" cy="49.4663" r="0.5" fill="#404145"/>
<circle cx="3.5" cy="49.4663" r="0.5" fill="#404145"/>
<circle cx="1.5" cy="31.5337" r="0.5" fill="#404145"/>
<circle cx="1.5" cy="46.5" r="0.5" fill="#404145"/>
<circle cx="1.5" cy="46.5" r="0.5" fill="#404145"/>
<circle cx="1.5" cy="31.5337" r="0.5" fill="#404145"/>
<circle cx="1.5" cy="46.5" r="0.5" fill="#404145"/>
<circle cx="1.5" cy="46.5" r="0.5" fill="#404145"/>
<circle cx="108" cy="40.5337" r="0.5" fill="#404145"/>
<circle cx="105.5" cy="39" r="0.5" fill="#404145"/>
<circle cx="3.5" cy="39" r="0.5" fill="#404145"/>
<circle cx="108" cy="60" r="0.5" fill="#404145"/>
<circle cx="105.5" cy="60" r="0.5" fill="#404145"/>
<circle cx="105.5" cy="58.4663" r="0.5" fill="#404145"/>
<circle cx="3.5" cy="58.4663" r="0.5" fill="#404145"/>
<circle cx="3.5" cy="60" r="0.5" fill="#404145"/>
<circle cx="108" cy="42" r="0.5" fill="#404145"/>
<circle cx="105.5" cy="40.4663" r="0.5" fill="#404145"/>
<circle cx="3.5" cy="40.4663" r="0.5" fill="#404145"/>
<circle cx="1.5" cy="40.5337" r="0.5" fill="#404145"/>
<circle cx="1.5" cy="55.5" r="0.5" fill="#404145"/>
<circle cx="1.5" cy="55.5" r="0.5" fill="#404145"/>
<circle cx="1.5" cy="60" r="0.5" fill="#404145"/>
<circle cx="1.5" cy="60" r="0.5" fill="#404145"/>
<circle cx="1.5" cy="42" r="0.5" fill="#404145"/>
<circle cx="1.5" cy="42" r="0.5" fill="#404145"/>
<circle cx="108" cy="16.5337" r="0.5" fill="#404145"/>
<circle cx="105.5" cy="15" r="0.5" fill="#404145"/>
<circle cx="3.5" cy="15" r="0.5" fill="#404145"/>
<circle cx="1.5" cy="16.5337" r="0.5" fill="#404145"/>
<circle cx="108" cy="28.5337" r="0.5" fill="#404145"/>
<circle cx="105.5" cy="27" r="0.5" fill="#404145"/>
<circle cx="3.5" cy="27" r="0.5" fill="#404145"/>
<circle cx="108" cy="48" r="0.5" fill="#404145"/>
<circle cx="105.5" cy="46.4663" r="0.5" fill="#404145"/>
<circle cx="3.5" cy="46.4663" r="0.5" fill="#404145"/>
<circle cx="1.5" cy="28.5337" r="0.5" fill="#404145"/>
<circle cx="1.5" cy="43.5" r="0.5" fill="#404145"/>
<circle cx="1.5" cy="43.5" r="0.5" fill="#404145"/>
<circle cx="1.5" cy="28.5337" r="0.5" fill="#404145"/>
<circle cx="1.5" cy="43.5" r="0.5" fill="#404145"/>
<circle cx="1.5" cy="43.5" r="0.5" fill="#404145"/>
<circle cx="108" cy="37.5337" r="0.5" fill="#404145"/>
<circle cx="105.5" cy="36" r="0.5" fill="#404145"/>
<circle cx="3.5" cy="36" r="0.5" fill="#404145"/>
<circle cx="108" cy="57" r="0.5" fill="#404145"/>
<circle cx="105.5" cy="55.4663" r="0.5" fill="#404145"/>
<circle cx="3.5" cy="55.4663" r="0.5" fill="#404145"/>
<circle cx="1.5" cy="37.5337" r="0.5" fill="#404145"/>
<circle cx="1.5" cy="52.5" r="0.5" fill="#404145"/>
<circle cx="1.5" cy="52.5" r="0.5" fill="#404145"/>
<circle cx="1.5" cy="37.5337" r="0.5" fill="#404145"/>
<circle cx="1.5" cy="52.5" r="0.5" fill="#404145"/>
<circle cx="1.5" cy="52.5" r="0.5" fill="#404145"/>
<circle cx="1.5" cy="57" r="0.5" fill="#404145"/>
<circle cx="1.5" cy="57" r="0.5" fill="#404145"/>
<circle cx="108" cy="10.5337" r="0.5" fill="#404145"/>
<circle cx="105.5" cy="9" r="0.5" fill="#404145"/>
<circle cx="3.5" cy="9" r="0.5" fill="#404145"/>
<circle cx="1.5" cy="10.5337" r="0.5" fill="#404145"/>
<circle cx="108" cy="22.5337" r="0.5" fill="#404145"/>
<circle cx="105.5" cy="21" r="0.5" fill="#404145"/>
<circle cx="3.5" cy="21" r="0.5" fill="#404145"/>
<circle cx="1.5" cy="22.5337" r="0.5" fill="#404145"/>
<circle cx="108" cy="34.5337" r="0.5" fill="#404145"/>
<circle cx="105.5" cy="33" r="0.5" fill="#404145"/>
<circle cx="3.5" cy="33" r="0.5" fill="#404145"/>
<circle cx="108" cy="54" r="0.5" fill="#404145"/>
<circle cx="105.5" cy="52.4663" r="0.5" fill="#404145"/>
<circle cx="3.5" cy="52.4663" r="0.5" fill="#404145"/>
<circle cx="1.5" cy="34.5337" r="0.5" fill="#404145"/>
<circle cx="1.5" cy="49.5" r="0.5" fill="#404145"/>
<circle cx="1.5" cy="49.5" r="0.5" fill="#404145"/>
<circle cx="1.5" cy="34.5337" r="0.5" fill="#404145"/>
<circle cx="1.5" cy="49.5" r="0.5" fill="#404145"/>
<circle cx="1.5" cy="49.5" r="0.5" fill="#404145"/>
<circle cx="108" cy="15.0337" r="0.5" fill="#404145"/>
<circle cx="105.5" cy="13.5" r="0.5" fill="#404145"/>
<circle cx="3.5" cy="13.5" r="0.5" fill="#404145"/>
<circle cx="1.5" cy="15.0337" r="0.5" fill="#404145"/>
<circle cx="108" cy="27.0337" r="0.5" fill="#404145"/>
<circle cx="105.5" cy="25.5" r="0.5" fill="#404145"/>
<circle cx="3.5" cy="25.5" r="0.5" fill="#404145"/>
<circle cx="108" cy="46.5" r="0.5" fill="#404145"/>
<circle cx="105.5" cy="44.9663" r="0.5" fill="#404145"/>
<circle cx="3.5" cy="44.9663" r="0.5" fill="#404145"/>
<circle cx="1.5" cy="27.0337" r="0.5" fill="#404145"/>
<circle cx="1.5" cy="27.0337" r="0.5" fill="#404145"/>
<circle cx="108" cy="9.03366" r="0.5" fill="#404145"/>
<circle cx="105.5" cy="7.5" r="0.5" fill="#404145"/>
<circle cx="3.8" cy="7.5" r="0.5" fill="#404145"/>
<circle cx="4.8" cy="6" r="0.5" fill="#404145"/>
<circle cx="6.2" cy="4.5" r="0.5" fill="#404145"/>
<circle cx="7.5" cy="3.5" r="0.5" fill="#404145"/>
<circle cx="1.5" cy="9.03366" r="0.5" fill="#404145"/>
<circle cx="1.8" cy="7.5" r="0.5" fill="#404145"/>
<circle cx="2.39999" cy="5.96634" r="0.5" fill="#404145"/>
<circle cx="3.3" cy="4.43268" r="0.5" fill="#404145"/>
<circle cx="4.5" cy="3.29999" r="0.5" fill="#404145"/>
<circle cx="6.10001" cy="2.29999" r="0.5" fill="#404145"/>
<circle cx="7.5" cy="1.70001" r="0.5" fill="#404145"/>
<circle cx="108" cy="21.0337" r="0.5" fill="#404145"/>
<circle cx="105.5" cy="19.5" r="0.5" fill="#404145"/>
<circle cx="3.5" cy="19.5" r="0.5" fill="#404145"/>
<circle cx="1.5" cy="21.0337" r="0.5" fill="#404145"/>
<circle cx="108" cy="33.0337" r="0.5" fill="#404145"/>
<circle cx="105.5" cy="31.5" r="0.5" fill="#404145"/>
<circle cx="3.5" cy="31.5" r="0.5" fill="#404145"/>
<circle cx="108" cy="52.5" r="0.5" fill="#404145"/>
<circle cx="105.5" cy="50.9663" r="0.5" fill="#404145"/>
<circle cx="3.5" cy="50.9663" r="0.5" fill="#404145"/>
<circle cx="1.5" cy="33.0337" r="0.5" fill="#404145"/>
<circle cx="1.5" cy="48" r="0.5" fill="#404145"/>
<circle cx="1.5" cy="48" r="0.5" fill="#404145"/>
<circle cx="1.5" cy="33.0337" r="0.5" fill="#404145"/>
<circle cx="1.5" cy="48" r="0.5" fill="#404145"/>
<circle cx="1.5" cy="48" r="0.5" fill="#404145"/>
<circle cx="108" cy="18.0337" r="0.5" fill="#404145"/>
<circle cx="105.5" cy="16.5" r="0.5" fill="#404145"/>
<circle cx="3.5" cy="16.5" r="0.5" fill="#404145"/>
<circle cx="1.5" cy="18.0337" r="0.5" fill="#404145"/>
<circle cx="108" cy="30.0337" r="0.5" fill="#404145"/>
<circle cx="105.5" cy="28.5" r="0.5" fill="#404145"/>
<circle cx="3.5" cy="28.5" r="0.5" fill="#404145"/>
<circle cx="108" cy="49.5" r="0.5" fill="#404145"/>
<circle cx="105.5" cy="47.9663" r="0.5" fill="#404145"/>
<circle cx="3.5" cy="47.9663" r="0.5" fill="#404145"/>
<circle cx="1.5" cy="30.0337" r="0.5" fill="#404145"/>
<circle cx="1.5" cy="45" r="0.5" fill="#404145"/>
<circle cx="1.5" cy="45" r="0.5" fill="#404145"/>
<circle cx="1.5" cy="30.0337" r="0.5" fill="#404145"/>
<circle cx="1.5" cy="45" r="0.5" fill="#404145"/>
<circle cx="1.5" cy="45" r="0.5" fill="#404145"/>
<circle cx="108" cy="39.0337" r="0.5" fill="#404145"/>
<circle cx="105.5" cy="37.5" r="0.5" fill="#404145"/>
<circle cx="3.5" cy="37.5" r="0.5" fill="#404145"/>
<circle cx="108" cy="58.5" r="0.5" fill="#404145"/>
<circle cx="105.5" cy="56.9663" r="0.5" fill="#404145"/>
<circle cx="3.5" cy="56.9663" r="0.5" fill="#404145"/>
<circle cx="1.5" cy="39.0337" r="0.5" fill="#404145"/>
<circle cx="1.5" cy="54" r="0.5" fill="#404145"/>
<circle cx="1.5" cy="54" r="0.5" fill="#404145"/>
<circle cx="1.5" cy="58.5" r="0.5" fill="#404145"/>
<circle cx="1.5" cy="58.5" r="0.5" fill="#404145"/>
<circle cx="1.5" cy="39.0337" r="0.5" fill="#404145"/>
<circle cx="1.5" cy="54" r="0.5" fill="#404145"/>
<circle cx="1.5" cy="54" r="0.5" fill="#404145"/>
<circle cx="1.5" cy="58.5" r="0.5" fill="#404145"/>
<circle cx="1.5" cy="58.5" r="0.5" fill="#404145"/>
<circle cx="108" cy="12.0337" r="0.5" fill="#404145"/>
<circle cx="105.5" cy="10.5" r="0.5" fill="#404145"/>
<circle cx="3.5" cy="10.5" r="0.5" fill="#404145"/>
<circle cx="1.5" cy="12.0337" r="0.5" fill="#404145"/>
<circle cx="108" cy="24.0337" r="0.5" fill="#404145"/>
<circle cx="105.5" cy="22.5" r="0.5" fill="#404145"/>
<circle cx="3.5" cy="22.5" r="0.5" fill="#404145"/>
<circle cx="108" cy="43.5" r="0.5" fill="#404145"/>
<circle cx="105.5" cy="41.9663" r="0.5" fill="#404145"/>
<circle cx="3.5" cy="41.9663" r="0.5" fill="#404145"/>
<circle cx="1.5" cy="24.0337" r="0.5" fill="#404145"/>
<circle cx="1.5" cy="24.0337" r="0.5" fill="#404145"/>
<circle cx="108" cy="36.0337" r="0.5" fill="#404145"/>
<circle cx="105.5" cy="34.5" r="0.5" fill="#404145"/>
<circle cx="3.5" cy="34.5" r="0.5" fill="#404145"/>
<circle cx="108" cy="55.5" r="0.5" fill="#404145"/>
<circle cx="105.5" cy="53.9663" r="0.5" fill="#404145"/>
<circle cx="3.5" cy="53.9663" r="0.5" fill="#404145"/>
<circle cx="1.5" cy="36.0337" r="0.5" fill="#404145"/>
<circle cx="1.5" cy="51" r="0.5" fill="#404145"/>
<circle cx="1.5" cy="51" r="0.5" fill="#404145"/>
<circle cx="1.5" cy="36.0337" r="0.5" fill="#404145"/>
<circle cx="1.5" cy="51" r="0.5" fill="#404145"/>
<circle cx="1.5" cy="51" r="0.5" fill="#404145"/>
<circle cx="60" cy="1.53366" r="0.5" fill="#404145"/>
<circle cx="58.5" cy="3.5" r="0.5" fill="#404145"/>
<circle cx="31.5" cy="1.53366" r="0.5" fill="#404145"/>
<circle cx="30" cy="3.5" r="0.5" fill="#404145"/>
<circle cx="84" cy="1.53366" r="0.5" fill="#404145"/>
<circle cx="82.5" cy="3.5" r="0.5" fill="#404145"/>
<circle cx="19.5" cy="1.53366" r="0.5" fill="#404145"/>
<circle cx="18" cy="3.5" r="0.5" fill="#404145"/>
<circle cx="72" cy="1.53366" r="0.5" fill="#404145"/>
<circle cx="70.5" cy="3.5" r="0.5" fill="#404145"/>
<circle cx="43.5" cy="1.53366" r="0.5" fill="#404145"/>
<circle cx="42" cy="3.5" r="0.5" fill="#404145"/>
<circle cx="96" cy="1.53366" r="0.5" fill="#404145"/>
<circle cx="94.5" cy="3.5" r="0.5" fill="#404145"/>
<circle cx="13.5" cy="1.53366" r="0.5" fill="#404145"/>
<circle cx="12" cy="3.5" r="0.5" fill="#404145"/>
<circle cx="66" cy="1.53366" r="0.5" fill="#404145"/>
<circle cx="64.5" cy="3.5" r="0.5" fill="#404145"/>
<circle cx="37.5" cy="1.53366" r="0.5" fill="#404145"/>
<circle cx="36" cy="3.5" r="0.5" fill="#404145"/>
<circle cx="90" cy="1.53366" r="0.5" fill="#404145"/>
<circle cx="88.5" cy="3.5" r="0.5" fill="#404145"/>
<circle cx="25.5" cy="1.53366" r="0.5" fill="#404145"/>
<circle cx="24" cy="3.5" r="0.5" fill="#404145"/>
<circle cx="78" cy="1.53366" r="0.5" fill="#404145"/>
<circle cx="76.5" cy="3.5" r="0.5" fill="#404145"/>
<circle cx="49.5" cy="1.53366" r="0.5" fill="#404145"/>
<circle cx="48" cy="3.5" r="0.5" fill="#404145"/>
<circle cx="102" cy="1.53366" r="0.5" fill="#404145"/>
<circle cx="100.5" cy="3.5" r="0.5" fill="#404145"/>
<circle cx="54" cy="1.53366" r="0.5" fill="#404145"/>
<circle cx="52.5" cy="3.5" r="0.5" fill="#404145"/>
<circle cx="58.5" cy="1.53366" r="0.5" fill="#404145"/>
<circle cx="57" cy="3.5" r="0.5" fill="#404145"/>
<circle cx="30" cy="1.53366" r="0.5" fill="#404145"/>
<circle cx="28.5" cy="3.5" r="0.5" fill="#404145"/>
<circle cx="82.5" cy="1.53366" r="0.5" fill="#404145"/>
<circle cx="81" cy="3.5" r="0.5" fill="#404145"/>
<circle cx="18" cy="1.53366" r="0.5" fill="#404145"/>
<circle cx="16.5" cy="3.5" r="0.5" fill="#404145"/>
<circle cx="70.5" cy="1.53366" r="0.5" fill="#404145"/>
<circle cx="69" cy="3.5" r="0.5" fill="#404145"/>
<circle cx="42" cy="1.53366" r="0.5" fill="#404145"/>
<circle cx="40.5" cy="3.5" r="0.5" fill="#404145"/>
<circle cx="94.5" cy="1.53366" r="0.5" fill="#404145"/>
<circle cx="93" cy="3.5" r="0.5" fill="#404145"/>
<circle cx="12" cy="1.53366" r="0.5" fill="#404145"/>
<circle cx="10.5" cy="3.5" r="0.5" fill="#404145"/>
<circle cx="64.5" cy="1.53366" r="0.5" fill="#404145"/>
<circle cx="63" cy="3.5" r="0.5" fill="#404145"/>
<circle cx="36" cy="1.53366" r="0.5" fill="#404145"/>
<circle cx="34.5" cy="3.5" r="0.5" fill="#404145"/>
<circle cx="88.5" cy="1.53366" r="0.5" fill="#404145"/>
<circle cx="87" cy="3.5" r="0.5" fill="#404145"/>
<circle cx="24" cy="1.53366" r="0.5" fill="#404145"/>
<circle cx="22.5" cy="3.5" r="0.5" fill="#404145"/>
<circle cx="76.5" cy="1.53366" r="0.5" fill="#404145"/>
<circle cx="75" cy="3.5" r="0.5" fill="#404145"/>
<circle cx="48" cy="1.53366" r="0.5" fill="#404145"/>
<circle cx="46.5" cy="3.5" r="0.5" fill="#404145"/>
<circle cx="100.5" cy="1.53366" r="0.5" fill="#404145"/>
<circle cx="99" cy="3.5" r="0.5" fill="#404145"/>
<circle cx="52.5" cy="1.53366" r="0.5" fill="#404145"/>
<circle cx="51" cy="3.5" r="0.5" fill="#404145"/>
<circle cx="57" cy="1.53366" r="0.5" fill="#404145"/>
<circle cx="55.5" cy="3.5" r="0.5" fill="#404145"/>
<circle cx="28.5" cy="1.53366" r="0.5" fill="#404145"/>
<circle cx="27" cy="3.5" r="0.5" fill="#404145"/>
<circle cx="81" cy="1.53366" r="0.5" fill="#404145"/>
<circle cx="79.5" cy="3.5" r="0.5" fill="#404145"/>
<circle cx="16.5" cy="1.53366" r="0.5" fill="#404145"/>
<circle cx="15" cy="3.5" r="0.5" fill="#404145"/>
<circle cx="69" cy="1.53366" r="0.5" fill="#404145"/>
<circle cx="67.5" cy="3.5" r="0.5" fill="#404145"/>
<circle cx="40.5" cy="1.53366" r="0.5" fill="#404145"/>
<circle cx="39" cy="3.5" r="0.5" fill="#404145"/>
<circle cx="93" cy="1.53366" r="0.5" fill="#404145"/>
<circle cx="91.5" cy="3.5" r="0.5" fill="#404145"/>
<circle cx="10.5" cy="1.53366" r="0.5" fill="#404145"/>
<circle cx="9" cy="3.5" r="0.5" fill="#404145"/>
<circle cx="63" cy="1.53366" r="0.5" fill="#404145"/>
<circle cx="61.5" cy="3.5" r="0.5" fill="#404145"/>
<circle cx="34.5" cy="1.53366" r="0.5" fill="#404145"/>
<circle cx="33" cy="3.5" r="0.5" fill="#404145"/>
<circle cx="87" cy="1.53366" r="0.5" fill="#404145"/>
<circle cx="85.5" cy="3.5" r="0.5" fill="#404145"/>
<circle cx="22.5" cy="1.53366" r="0.5" fill="#404145"/>
<circle cx="21" cy="3.5" r="0.5" fill="#404145"/>
<circle cx="75" cy="1.53366" r="0.5" fill="#404145"/>
<circle cx="73.5" cy="3.5" r="0.5" fill="#404145"/>
<circle cx="46.5" cy="1.53366" r="0.5" fill="#404145"/>
<circle cx="45" cy="3.5" r="0.5" fill="#404145"/>
<circle cx="99" cy="1.53366" r="0.5" fill="#404145"/>
<circle cx="97.5" cy="3.5" r="0.5" fill="#404145"/>
</svg>
