<svg width="110" height="62" viewBox="0 0 110 62" fill="none" xmlns="http://www.w3.org/2000/svg">
<path d="M0.25 10C0.25 4.61523 4.61522 0.25 10 0.25H100C105.385 0.25 109.75 4.61522 109.75 10V61.75H0.25V10Z" stroke="#404145" stroke-width="0.5"/>
<circle cx="40" cy="4" r="1" fill="#404145"/>
<circle cx="76" cy="4" r="1" fill="#404145"/>
<circle cx="10" cy="4" r="1" fill="#404145"/>
<circle cx="52" cy="4" r="1" fill="#404145"/>
<circle cx="88" cy="4" r="1" fill="#404145"/>
<circle cx="100" cy="4" r="1" fill="#404145"/>
<circle cx="22" cy="4" r="1" fill="#404145"/>
<circle cx="46" cy="4" r="1" fill="#404145"/>
<circle cx="82" cy="4" r="1" fill="#404145"/>
<circle cx="16" cy="4" r="1" fill="#404145"/>
<circle cx="34" cy="4" r="1" fill="#404145"/>
<circle cx="70" cy="4" r="1" fill="#404145"/>
<circle cx="5" cy="5" r="1" fill="#404145"/>
<circle cx="58" cy="4" r="1" fill="#404145"/>
<circle cx="94" cy="4" r="1" fill="#404145"/>
<circle cx="105" cy="5" r="1" fill="#404145"/>
<circle cx="106" cy="22" r="1" fill="#404145"/>
<circle cx="4" cy="21" r="1" fill="#404145"/>
<circle cx="106" cy="22" r="1" fill="#404145"/>
<circle cx="4" cy="21" r="1" fill="#404145"/>
<circle cx="106" cy="46" r="1" fill="#404145"/>
<circle cx="4" cy="45" r="1" fill="#404145"/>
<circle cx="106" cy="46" r="1" fill="#404145"/>
<circle cx="4" cy="45" r="1" fill="#404145"/>
<circle cx="106" cy="10" r="1" fill="#404145"/>
<circle cx="4" cy="9" r="1" fill="#404145"/>
<circle cx="106" cy="28" r="1" fill="#404145"/>
<circle cx="4" cy="27" r="1" fill="#404145"/>
<circle cx="106" cy="52" r="1" fill="#404145"/>
<circle cx="4" cy="51" r="1" fill="#404145"/>
<circle cx="106" cy="16" r="1" fill="#404145"/>
<circle cx="4" cy="15" r="1" fill="#404145"/>
<circle cx="106" cy="40" r="1" fill="#404145"/>
<circle cx="4" cy="39" r="1" fill="#404145"/>
<circle cx="106" cy="34" r="1" fill="#404145"/>
<circle cx="4" cy="33" r="1" fill="#404145"/>
<circle cx="106" cy="58" r="1" fill="#404145"/>
<circle cx="4" cy="57" r="1" fill="#404145"/>
<circle cx="106" cy="22" r="1" fill="#404145"/>
<circle cx="4" cy="21" r="1" fill="#404145"/>
<circle cx="106" cy="46" r="1" fill="#404145"/>
<circle cx="4" cy="45" r="1" fill="#404145"/>
<circle cx="28" cy="4" r="1" fill="#404145"/>
<circle cx="64" cy="4" r="1" fill="#404145"/>
</svg>
